<svg width="449" height="421" viewBox="0 0 449 421" fill="none" xmlns="http://www.w3.org/2000/svg">
<g opacity="0.7">
<path d="M381.371 3.65936H302.497V97.1546H381.371V3.65936Z" fill="#F4F4F4"/>
<path d="M381.37 97.1546H383.929V3.65933H381.37V97.1546Z" fill="#F4F4F4"/>
<path opacity="0.05" d="M381.37 97.1546H383.929V3.65933H381.37V97.1546Z" fill="#292A2E"/>
<path opacity="0.05" d="M367.003 22.3607H316.865V78.4534H367.003V22.3607Z" fill="#292A2E"/>
<path opacity="0.03" d="M367.003 22.3607H364.39V78.4534H367.003V22.3607Z" fill="#292A2E"/>
<path d="M445.876 122.401H381.37V187.499H445.876V122.401Z" fill="#F4F4F4"/>
<path opacity="0.05" d="M434.126 134.26H393.121V175.641H434.126V134.26Z" fill="#292A2E"/>
<path d="M445.877 187.499H448.436V122.401H445.877V187.499Z" fill="#F4F4F4"/>
<path opacity="0.05" d="M445.877 187.499H448.436V122.401H445.877V187.499Z" fill="#292A2E"/>
<path opacity="0.03" d="M434.126 134.26H431.513V175.641H434.126V134.26Z" fill="#292A2E"/>
</g>
<g opacity="0.7">
<path d="M219.877 0H34.1855V185.691H219.877V0Z" fill="#F4F4F4"/>
<path d="M34.185 0H32.0566V185.691H34.185V0Z" fill="#F4F4F4"/>
<path opacity="0.05" d="M34.185 0H32.0566V185.691H34.185V0Z" fill="#292A2E"/>
<path opacity="0.05" d="M79.1693 127.956V79.3738H118.966V107.599H180.611V157.576H206.811V185.691H180.611H175.564H43.1172V127.956H79.1693Z" fill="#292A2E"/>
<path opacity="0.34" d="M113.858 84.6485H84.8779V89.9233H113.858V84.6485Z" fill="#FFFFFA"/>
<path opacity="0.34" d="M113.858 95.5796H84.8779V100.854H113.858V95.5796Z" fill="#FFFFFA"/>
<path opacity="0.34" d="M113.858 106.51H84.8779V111.785H113.858V106.51Z" fill="#FFFFFA"/>
<path opacity="0.34" d="M53.5982 133.077H48.2568V138.352H53.5982V133.077Z" fill="#FFFFFA"/>
<path opacity="0.34" d="M53.5982 144.008H48.2568V149.283H53.5982V144.008Z" fill="#FFFFFA"/>
<path opacity="0.34" d="M53.5982 154.938H48.2568V160.213H53.5982V154.938Z" fill="#FFFFFA"/>
<path opacity="0.34" d="M63.48 133.077H58.1387V138.352H63.48V133.077Z" fill="#FFFFFA"/>
<path opacity="0.34" d="M63.48 144.008H58.1387V149.283H63.48V144.008Z" fill="#FFFFFA"/>
<path opacity="0.34" d="M63.48 154.938H58.1387V160.213H63.48V154.938Z" fill="#FFFFFA"/>
<path opacity="0.34" d="M73.0952 133.077H67.7539V138.352H73.0952V133.077Z" fill="#FFFFFA"/>
<path opacity="0.34" d="M73.0952 144.008H67.7539V149.283H73.0952V144.008Z" fill="#FFFFFA"/>
<path opacity="0.34" d="M73.0952 154.938H67.7539V160.213H73.0952V154.938Z" fill="#FFFFFA"/>
<path d="M34.1855 91.8038H71.5496V0H74.6397V91.8038H175.564V0H178.654V91.8038H219.877V94.8939H178.654V185.691H175.564V94.8939H74.6397V185.691H71.5496V94.8939H34.1855V91.8038Z" fill="white"/>
<path d="M227.274 185.467H26.7881V191.642H227.274V185.467Z" fill="#F4F4F4"/>
<path opacity="0.1" d="M227.274 185.467H26.7881V191.642H227.274V185.467Z" fill="#292A2E"/>
<path opacity="0.1" d="M26.7879 185.467H23.8936V191.642H26.7879V185.467Z" fill="#292A2E"/>
<path opacity="0.1" d="M26.7879 185.467H23.8936V191.642H26.7879V185.467Z" fill="#292A2E"/>
</g>
<path d="M141.357 23.0577H358.704C361.835 23.0577 364.837 24.3014 367.051 26.5153C369.265 28.7291 370.509 31.7317 370.509 34.8625V295.181C370.509 298.38 369.238 301.448 366.976 303.71C364.714 305.972 361.646 307.243 358.447 307.243H141.614C138.415 307.243 135.347 305.972 133.085 303.71C130.823 301.448 129.553 298.38 129.553 295.181V34.8612C129.553 31.7306 130.797 28.7285 133.011 26.5149C135.224 24.3014 138.227 23.0578 141.357 23.0577Z" fill="white"/>
<path d="M358.447 307.701H141.615C138.294 307.701 135.11 306.382 132.762 304.034C130.414 301.686 129.095 298.501 129.095 295.181V34.4028C129.095 31.2722 130.339 28.27 132.552 26.0564C134.766 23.8429 137.769 22.5993 140.899 22.5993H359.162C362.293 22.5993 365.296 23.843 367.51 26.0567C369.723 28.2705 370.967 31.273 370.967 34.4037V295.181C370.967 298.501 369.648 301.686 367.3 304.034C364.952 306.382 361.768 307.701 358.447 307.701ZM130.012 34.8415V295.181C130.011 296.705 130.312 298.214 130.895 299.621C131.478 301.029 132.332 302.308 133.41 303.386C134.487 304.463 135.766 305.318 137.174 305.901C138.582 306.484 140.091 306.784 141.615 306.784H358.447C361.525 306.784 364.476 305.562 366.652 303.386C368.828 301.21 370.051 298.258 370.051 295.181V34.7269C370.05 33.2545 369.76 31.7965 369.197 30.4363C368.633 29.0761 367.807 27.8401 366.766 26.7991C365.724 25.7581 364.488 24.9324 363.128 24.3691C361.767 23.8058 360.309 23.516 358.837 23.5161H141.338C138.334 23.5161 135.453 24.7093 133.329 26.8332C131.205 28.9571 130.012 31.8377 130.012 34.8415Z" fill="#292A2E"/>
<path d="M176.295 79.5683H149.955C148.487 79.5666 147.08 78.9828 146.042 77.945C145.004 76.9072 144.42 75.5 144.418 74.0322V47.6923C144.42 46.2243 145.004 44.8169 146.042 43.7788C147.08 42.7408 148.487 42.1569 149.955 42.1552H176.295C177.763 42.1568 179.17 42.7406 180.208 43.7787C181.246 44.8167 181.83 46.2242 181.832 47.6923V74.0322C181.83 75.5001 181.246 76.9073 180.208 77.9452C179.17 78.983 177.762 79.5667 176.295 79.5683ZM149.955 43.0711C148.73 43.0725 147.556 43.5598 146.69 44.4259C145.823 45.2921 145.336 46.4664 145.335 47.6913V74.0322C145.336 75.2571 145.823 76.4314 146.69 77.2976C147.556 78.1637 148.73 78.651 149.955 78.6524H176.295C177.52 78.6511 178.694 78.1639 179.56 77.2978C180.426 76.4316 180.914 75.2572 180.915 74.0322V47.6923C180.914 46.4673 180.426 45.2928 179.56 44.4267C178.694 43.5605 177.52 43.0733 176.295 43.072L149.955 43.0711Z" fill="#292A2E"/>
<path d="M176.295 131.752H149.955C148.487 131.751 147.08 131.167 146.042 130.129C145.004 129.091 144.42 127.683 144.418 126.215V99.8758C144.42 98.4077 145.003 97.0002 146.041 95.9621C147.079 94.924 148.487 94.34 149.955 94.3383H176.295C177.763 94.34 179.17 94.924 180.208 95.9621C181.246 97.0002 181.83 98.4077 181.832 99.8758V126.215C181.83 127.683 181.246 129.091 180.208 130.129C179.17 131.167 177.763 131.751 176.295 131.752ZM149.955 95.2565C148.73 95.2579 147.556 95.7452 146.689 96.6115C145.823 97.4777 145.336 98.6522 145.335 99.8772V126.217C145.336 127.442 145.823 128.616 146.689 129.482C147.556 130.348 148.73 130.836 149.955 130.837H176.295C177.52 130.836 178.694 130.348 179.56 129.482C180.426 128.616 180.914 127.442 180.915 126.217V99.8758C180.914 98.6508 180.426 97.4763 179.56 96.6101C178.694 95.7438 177.52 95.2566 176.295 95.2551L149.955 95.2565Z" fill="#292A2E"/>
<path d="M176.295 183.936H149.955C148.487 183.934 147.08 183.351 146.042 182.312C145.004 181.274 144.42 179.867 144.418 178.399V152.06C144.42 150.592 145.004 149.184 146.042 148.146C147.08 147.108 148.487 146.524 149.955 146.523H176.295C177.763 146.524 179.17 147.108 180.208 148.146C181.246 149.184 181.83 150.592 181.832 152.06V178.399C181.83 179.867 181.246 181.275 180.208 182.313C179.17 183.351 177.763 183.935 176.295 183.936ZM149.955 147.439C148.73 147.441 147.556 147.928 146.689 148.794C145.823 149.66 145.336 150.835 145.335 152.06V178.399C145.336 179.624 145.823 180.798 146.689 181.665C147.556 182.531 148.73 183.018 149.955 183.019H176.295C177.52 183.018 178.694 182.531 179.56 181.665C180.426 180.798 180.914 179.624 180.915 178.399V152.06C180.914 150.835 180.426 149.66 179.56 148.794C178.694 147.928 177.52 147.441 176.295 147.439H149.955Z" fill="#292A2E"/>
<path d="M176.295 235.403H149.955C148.487 235.401 147.08 234.818 146.042 233.78C145.004 232.742 144.42 231.334 144.418 229.866V203.527C144.42 202.059 145.003 200.651 146.041 199.613C147.079 198.575 148.487 197.991 149.955 197.989H176.295C177.763 197.991 179.17 198.575 180.208 199.613C181.246 200.651 181.83 202.059 181.832 203.527V229.866C181.83 231.334 181.246 232.742 180.208 233.78C179.17 234.818 177.763 235.402 176.295 235.403ZM149.955 198.906C148.73 198.907 147.556 199.395 146.689 200.261C145.823 201.127 145.336 202.302 145.335 203.527V229.866C145.336 231.091 145.823 232.265 146.69 233.132C147.556 233.998 148.73 234.485 149.955 234.486H176.295C177.52 234.485 178.694 233.998 179.56 233.132C180.426 232.266 180.914 231.091 180.915 229.866V203.527C180.914 202.302 180.427 201.127 179.56 200.261C178.694 199.395 177.52 198.907 176.295 198.906H149.955Z" fill="#292A2E"/>
<path d="M176.295 286.87H149.955C148.487 286.868 147.079 286.284 146.041 285.246C145.003 284.208 144.42 282.8 144.418 281.332V254.993C144.42 253.525 145.003 252.117 146.041 251.079C147.079 250.041 148.487 249.457 149.955 249.456H176.295C177.763 249.457 179.17 250.041 180.208 251.079C181.246 252.117 181.83 253.525 181.832 254.993V281.333C181.83 282.801 181.246 284.208 180.208 285.246C179.17 286.284 177.763 286.868 176.295 286.87ZM149.955 250.372C148.73 250.373 147.556 250.861 146.689 251.727C145.823 252.593 145.336 253.768 145.335 254.993V281.332C145.336 282.557 145.823 283.731 146.689 284.598C147.556 285.464 148.73 285.951 149.955 285.953H176.295C177.52 285.951 178.694 285.464 179.56 284.598C180.426 283.732 180.914 282.557 180.915 281.332V254.993C180.914 253.768 180.426 252.594 179.56 251.727C178.694 250.861 177.52 250.374 176.295 250.372L149.955 250.372Z" fill="#292A2E"/>
<path d="M158.44 123.583C157.966 123.583 157.51 123.4 157.169 123.071L149.492 115.691C149.318 115.524 149.179 115.324 149.083 115.104C148.986 114.883 148.934 114.646 148.929 114.405C148.924 114.164 148.967 113.925 149.055 113.701C149.142 113.476 149.274 113.272 149.44 113.098C149.607 112.924 149.807 112.785 150.027 112.689C150.248 112.592 150.485 112.54 150.726 112.535C150.967 112.531 151.206 112.573 151.43 112.661C151.655 112.749 151.859 112.88 152.033 113.047L158.409 119.176L174.389 103.049C174.732 102.71 175.196 102.519 175.679 102.519C176.162 102.52 176.626 102.71 176.969 103.05C177.312 103.39 177.507 103.852 177.512 104.335C177.517 104.818 177.331 105.284 176.994 105.63L159.742 123.038C159.572 123.211 159.369 123.348 159.146 123.441C158.922 123.535 158.682 123.583 158.44 123.583Z" fill="#0CBC8B"/>
<path d="M158.44 175.767C157.966 175.768 157.51 175.584 157.169 175.255L149.492 167.875C149.141 167.538 148.939 167.076 148.929 166.589C148.919 166.103 149.103 165.633 149.44 165.282C149.777 164.932 150.24 164.729 150.726 164.72C151.212 164.71 151.682 164.894 152.033 165.231L158.409 171.359L174.389 155.233C174.731 154.888 175.197 154.692 175.683 154.69C176.169 154.688 176.637 154.879 176.982 155.221C177.328 155.564 177.523 156.029 177.525 156.515C177.528 157.002 177.336 157.469 176.994 157.815L159.742 175.222C159.572 175.395 159.369 175.532 159.146 175.626C158.922 175.719 158.682 175.767 158.44 175.767Z" fill="#0CBC8B"/>
<path opacity="0.5" d="M350.704 52.7061H196.228C195.521 52.7061 194.948 53.2789 194.948 53.9855C194.948 54.6921 195.521 55.2649 196.228 55.2649H350.704C351.411 55.2649 351.984 54.6921 351.984 53.9855C351.984 53.2789 351.411 52.7061 350.704 52.7061Z" fill="#262626"/>
<path opacity="0.5" d="M295.696 66.4581H196.228C195.521 66.4581 194.948 67.0309 194.948 67.7375C194.948 68.4441 195.521 69.0169 196.228 69.0169H295.696C296.403 69.0169 296.975 68.4441 296.975 67.7375C296.975 67.0309 296.403 66.4581 295.696 66.4581Z" fill="#262626"/>
<path opacity="0.5" d="M350.704 104.89H196.228C195.521 104.89 194.948 105.462 194.948 106.169C194.948 106.876 195.521 107.448 196.228 107.448H350.704C351.411 107.448 351.984 106.876 351.984 106.169C351.984 105.462 351.411 104.89 350.704 104.89Z" fill="#262626"/>
<path opacity="0.5" d="M295.696 118.642H196.228C195.521 118.642 194.948 119.215 194.948 119.921C194.948 120.628 195.521 121.201 196.228 121.201H295.696C296.403 121.201 296.975 120.628 296.975 119.921C296.975 119.215 296.403 118.642 295.696 118.642Z" fill="#262626"/>
<path opacity="0.5" d="M350.704 157.074H196.228C195.521 157.074 194.948 157.647 194.948 158.353C194.948 159.06 195.521 159.633 196.228 159.633H350.704C351.411 159.633 351.984 159.06 351.984 158.353C351.984 157.647 351.411 157.074 350.704 157.074Z" fill="#262626"/>
<path opacity="0.5" d="M295.696 170.826H196.228C195.521 170.826 194.948 171.398 194.948 172.105C194.948 172.812 195.521 173.384 196.228 173.384H295.696C296.403 173.384 296.975 172.812 296.975 172.105C296.975 171.398 296.403 170.826 295.696 170.826Z" fill="#262626"/>
<path opacity="0.5" d="M350.704 208.541H196.228C195.521 208.541 194.948 209.113 194.948 209.82C194.948 210.527 195.521 211.099 196.228 211.099H350.704C351.411 211.099 351.984 210.527 351.984 209.82C351.984 209.113 351.411 208.541 350.704 208.541Z" fill="#262626"/>
<path opacity="0.5" d="M295.696 222.293H196.228C195.521 222.293 194.948 222.866 194.948 223.572C194.948 224.279 195.521 224.852 196.228 224.852H295.696C296.403 224.852 296.975 224.279 296.975 223.572C296.975 222.866 296.403 222.293 295.696 222.293Z" fill="#262626"/>
<path opacity="0.5" d="M350.704 260.007H196.228C195.521 260.007 194.948 260.58 194.948 261.286C194.948 261.993 195.521 262.566 196.228 262.566H350.704C351.411 262.566 351.984 261.993 351.984 261.286C351.984 260.58 351.411 260.007 350.704 260.007Z" fill="#262626"/>
<path opacity="0.5" d="M295.696 273.759H196.228C195.521 273.759 194.948 274.332 194.948 275.039C194.948 275.745 195.521 276.318 196.228 276.318H295.696C296.403 276.318 296.975 275.745 296.975 275.039C296.975 274.332 296.403 273.759 295.696 273.759Z" fill="#262626"/>
<path d="M157.117 70.2395C157.25 69.9111 157.488 69.6354 157.792 69.4542C158.097 69.2731 158.453 69.1965 158.805 69.2361C158.805 69.2077 158.78 69.1389 158.83 69.1394L157.684 68.4151C157.341 68.209 157.085 67.8858 156.962 67.5052C156.839 67.1247 156.858 66.7125 157.016 66.3449C157.183 65.9868 157.477 65.7035 157.841 65.5501C158.205 65.3967 158.614 65.3841 158.987 65.5148C158.983 65.4992 158.993 65.4836 158.994 65.4689L158.523 65.1714C158.201 64.9759 157.956 64.6751 157.83 64.3199C157.704 63.9647 157.705 63.577 157.832 63.2223C157.917 63.0016 158.049 62.8025 158.22 62.6392C158.391 62.476 158.596 62.3526 158.82 62.2781C159.044 62.2035 159.282 62.1796 159.517 62.2082C159.751 62.2367 159.976 62.3169 160.176 62.443L161.264 63.1306C161.267 63.1242 161.264 63.1173 161.267 63.1113C161.27 63.1054 161.282 63.1026 161.288 63.0958C161.032 62.84 160.871 62.5052 160.831 62.146C160.791 61.7868 160.874 61.4246 161.066 61.1187C161.513 60.2967 162.66 60.3921 163.364 60.8363L165.472 62.4082C165.797 62.6507 166.058 62.9699 166.229 63.3373C166.401 63.7047 166.48 64.109 166.458 64.5141C166.27 68.0199 165.561 77.166 163.315 75.745L157.787 72.2547C157.467 72.0413 157.228 71.7272 157.106 71.3622C156.985 70.9973 156.988 70.6022 157.117 70.2395Z" fill="#E98862"/>
<path d="M158.44 70.8768C157.966 70.8771 157.51 70.6936 157.169 70.3647L149.492 62.9844C149.315 62.8182 149.174 62.6187 149.075 62.3974C148.976 62.1762 148.922 61.9376 148.917 61.6954C148.911 61.4532 148.953 61.2122 149.041 60.9864C149.128 60.7606 149.26 60.5544 149.428 60.3798C149.596 60.2051 149.796 60.0655 150.019 59.9689C150.241 59.8723 150.48 59.8208 150.722 59.8171C150.964 59.8135 151.205 59.8579 151.43 59.9478C151.655 60.0377 151.86 60.1713 152.033 60.3408L158.408 66.4688L174.389 50.3435C174.558 50.1724 174.76 50.0364 174.982 49.9432C175.204 49.8501 175.442 49.8015 175.683 49.8004C175.924 49.7993 176.162 49.8457 176.385 49.9368C176.608 50.0279 176.811 50.1621 176.982 50.3315C177.153 50.501 177.289 50.7026 177.382 50.9246C177.475 51.1466 177.524 51.3849 177.525 51.6257C177.526 51.8665 177.48 52.1051 177.389 52.328C177.298 52.5509 177.163 52.7537 176.994 52.9247L159.742 70.3327C159.572 70.5052 159.369 70.6421 159.145 70.7355C158.922 70.829 158.682 70.877 158.44 70.8768Z" fill="#0CBC8B"/>
<path d="M153.156 66.401C153.195 66.134 153.287 65.8776 153.428 65.6475C153.569 65.4174 153.755 65.2183 153.975 65.0626C154.195 64.9068 154.445 64.7976 154.709 64.7415C154.973 64.6855 155.245 64.6838 155.51 64.7365C156.018 64.8566 156.462 65.1651 156.752 65.5997C157.042 66.0343 157.156 66.5626 157.071 67.0781L157.016 69.8931C157.005 70.4886 157.211 71.0677 157.597 71.5212C157.983 71.9747 158.522 72.2712 159.112 72.3548C159.69 72.4367 160.278 72.3086 160.769 71.9938C161.261 71.6789 161.623 71.1982 161.79 70.639L163.226 65.8335L161.665 63.5016C162.211 62.6215 162.669 60.3455 163.616 61.0235C164.417 61.5213 166.235 62.7251 166.733 63.8656C166.743 63.8701 167.674 73.6557 167.167 74.4717L162.685 86.4617C160.535 89.9236 150.157 87.2447 150.157 87.2447L153.156 66.401Z" fill="#E98862"/>
<path d="M158.408 66.4688L174.389 50.3435C174.558 50.1725 174.76 50.0365 174.982 49.9433C175.204 49.8501 175.442 49.8016 175.683 49.8005C175.924 49.7994 176.162 49.8457 176.385 49.9369C176.608 50.028 176.811 50.1621 176.982 50.3316C177.153 50.5011 177.289 50.7026 177.382 50.9247C177.475 51.1467 177.524 51.3849 177.525 51.6257C177.526 51.8665 177.48 52.1052 177.389 52.3281C177.297 52.551 177.163 52.7537 176.994 52.9248L159.742 70.3327" fill="#0CBC8B"/>
<path d="M76.8483 149.811L141.523 144.368C146.285 144.493 150.431 140.534 152.178 136.091L169.122 82.9814L146.957 74.2681L131.999 119.762L75.1201 123.742L76.8483 149.811Z" fill="#367CFF"/>
<path d="M39.2956 399.866C39.2956 399.866 41.3653 410.593 51.4103 411.192C61.4553 411.792 59.277 419.792 59.277 419.792H20.8906V400.614L39.2956 399.866Z" fill="#367CFF"/>
<path d="M27.4563 204.159C27.4563 204.159 27.5769 200.934 27.5512 208.249C27.4563 235.538 26.9828 266.707 25.8258 284.947C23.966 314.269 19.1973 406.712 19.1973 406.712L44.4214 406.501L68.8691 203.05L27.4563 204.159Z" fill="#262626"/>
<path d="M55.9414 236.338C55.9414 236.338 56.9866 256.141 57.1791 260.79C57.6274 271.542 57.7833 282.674 57.7833 295.295L61.7604 262.207C61.7604 262.207 58.8509 251.838 55.9414 236.338Z" fill="#0A0A0A"/>
<path d="M84.2018 399.866C84.2018 399.866 86.2715 410.593 96.3165 411.192C106.362 411.792 104.183 419.792 104.183 419.792H65.7969V400.614L84.2018 399.866Z" fill="#367CFF"/>
<path d="M96.415 206.278C96.415 206.278 98.6492 299.543 98.3219 304.101L88.9416 406.005L64.1341 406.463L66.5517 300.414C66.5517 300.414 64.8465 271.161 57.7783 243.997C54.162 230.055 51.9856 215.78 51.2832 201.394L96.415 206.278Z" fill="#262626"/>
<path d="M27.1811 204.156L27.0986 204.16C27.0986 204.16 27.1587 202.569 27.1811 204.156Z" fill="#333333"/>
<path d="M99.9653 157.26C99.4455 163.371 96.9147 198.75 96.4146 206.278H27.4833C27.0942 199.488 25.3453 169.8 23.8688 156.523C22.4592 143.854 19.6937 137.511 21.7207 133.765C25.0332 127.643 34.0848 124.106 40.2568 123.271C44.0258 122.761 76.1572 122.394 76.2342 122.394C78.7582 122.394 93.4546 123.58 96.7033 126.082C102.581 130.609 100.874 146.603 99.9653 157.26Z" fill="#367CFF"/>
<path d="M100.918 147.965C100.977 147.965 101.033 147.943 101.076 147.903C101.118 147.863 101.144 147.808 101.147 147.749L101.703 138.961C101.707 138.9 101.686 138.841 101.646 138.796C101.605 138.75 101.549 138.723 101.488 138.719C101.427 138.716 101.368 138.737 101.323 138.778C101.278 138.818 101.25 138.874 101.246 138.935L100.69 147.723C100.686 147.783 100.707 147.843 100.747 147.888C100.788 147.934 100.845 147.961 100.905 147.965L100.918 147.965Z" fill="#0C0C0C"/>
<path d="M12.5807 205.878C10.5535 205.878 8.55649 205.387 6.75955 204.449C4.96261 203.511 3.41895 202.152 2.2599 200.489C1.10086 198.826 0.360736 196.907 0.102517 194.896C-0.155703 192.886 0.0756197 190.842 0.776803 188.94C1.48687 187.009 18.182 142.799 21.3592 134.607L44.8932 144.142C43.1054 148.748 36.6314 166.206 31.4294 180.27L40.0712 179.33L42.7914 204.352L13.9417 205.804C13.4897 205.853 13.0354 205.878 12.5807 205.878Z" fill="#367CFF"/>
<path d="M84.4469 121.558C84.3699 121.548 82.2553 129.505 65.7541 128.266C54.3307 127.41 51.5436 119.635 51.2832 119.635C52.5149 119.373 54.5154 119.101 55.0623 118.81C56.8611 117.843 58.1717 116.667 58.8308 114.142C59.3465 112.167 59.6101 104.565 59.6101 100.752L77.1886 104.702C76.9433 109.004 75.2284 118.978 81.239 120.743C82.2388 121.035 83.3161 121.303 84.4469 121.558Z" fill="#E98862"/>
<path d="M76.5799 113.159C69.6502 113.706 60.748 110.78 59.0569 101.534L57.5313 93.1914C55.8403 83.9459 59.3255 75.5626 68.0311 73.9705C76.7362 72.3785 84.6139 78.6838 86.3045 87.9294L86.9802 91.6228C87.6288 95.1708 88.944 112.184 76.5799 113.159Z" fill="#E98862"/>
<path d="M83.0049 104.67C81.7612 98.4206 81.1905 94.2505 81.257 89.8517C83.009 86.7803 82.5483 83.2506 82.15 81.7269C83.3566 82.4931 84.7753 82.8568 86.2018 82.7656C86.2018 82.7656 83.3042 71.1368 73.4559 68.0078C71.6447 67.3032 67.0208 66.413 60.8814 67.2551C55.6597 67.9711 42.7877 71.8753 40.9486 86.3669V86.3751C40.8881 86.856 39.6522 100.208 37.1896 106.614C33.8777 115.226 29.2272 117.901 29.345 127.838C29.4967 140.619 52.9931 142.321 67.1633 141.364C81.3335 140.408 89.2465 135.748 89.3501 126.538C89.4629 116.217 85.494 117.175 83.0049 104.67Z" fill="#0A0A0A"/>
<path d="M26.0158 156.779L25.5576 156.794L27.2513 206.286L27.7094 206.27L26.0158 156.779Z" fill="#0C0C0C"/>
<path d="M437.999 420.114H6.90682C6.82172 420.114 6.7401 420.08 6.67992 420.02C6.61974 419.96 6.58594 419.878 6.58594 419.793C6.58594 419.708 6.61974 419.626 6.67992 419.566C6.7401 419.506 6.82172 419.472 6.90682 419.472H437.999C438.084 419.472 438.166 419.506 438.226 419.566C438.286 419.626 438.32 419.708 438.32 419.793C438.32 419.878 438.286 419.96 438.226 420.02C438.166 420.08 438.084 420.114 437.999 420.114Z" fill="#292A2E"/>
<path d="M393.502 360.038C393.38 360.038 393.263 359.989 393.178 359.903C392.532 359.258 391.479 347.408 388.643 312.127C387.483 297.691 386.387 284.055 385.587 275.768C385.53 275.177 385.301 275.108 385.225 275.085C384.13 274.755 380.801 277.381 378.942 279.679C378.904 279.726 378.857 279.765 378.804 279.794C378.751 279.823 378.693 279.841 378.634 279.847C378.574 279.853 378.513 279.848 378.455 279.831C378.398 279.814 378.344 279.785 378.297 279.747C378.25 279.71 378.211 279.663 378.183 279.61C378.154 279.557 378.136 279.499 378.129 279.439C378.123 279.379 378.129 279.319 378.146 279.261C378.163 279.203 378.191 279.15 378.229 279.103C379.458 277.583 383.464 273.598 385.489 274.207C385.897 274.33 386.406 274.685 386.5 275.68C387.3 283.974 388.396 297.614 389.557 312.053C391.281 333.493 393.233 357.782 393.874 359.312C393.923 359.38 393.953 359.461 393.959 359.545C393.965 359.629 393.948 359.713 393.91 359.788C393.871 359.864 393.813 359.927 393.741 359.971C393.669 360.015 393.586 360.038 393.502 360.038Z" fill="#494949"/>
<path d="M384.41 290.974C392.016 284.877 394.537 275.387 390.041 269.777C385.544 264.167 375.732 264.562 368.126 270.66C360.519 276.757 357.998 286.248 362.494 291.857C366.991 297.467 376.803 297.072 384.41 290.974Z" fill="#0CBC8B"/>
<path opacity="0.2" d="M384.41 290.974C392.016 284.877 394.537 275.387 390.041 269.777C385.544 264.167 375.732 264.562 368.126 270.66C360.519 276.757 357.998 286.248 362.494 291.857C366.991 297.467 376.803 297.072 384.41 290.974Z" fill="white"/>
<path d="M364.626 293.284C364.583 293.284 364.54 293.271 364.504 293.248C364.467 293.225 364.438 293.191 364.419 293.152C364.401 293.113 364.394 293.069 364.399 293.026C364.405 292.983 364.422 292.942 364.45 292.909L386.129 266.766C386.148 266.742 386.171 266.723 386.198 266.708C386.225 266.694 386.254 266.685 386.284 266.681C386.315 266.678 386.345 266.681 386.374 266.69C386.403 266.699 386.431 266.714 386.454 266.733C386.477 266.753 386.497 266.777 386.511 266.804C386.525 266.831 386.533 266.86 386.536 266.89C386.538 266.921 386.535 266.951 386.525 266.98C386.516 267.009 386.501 267.036 386.481 267.059L364.803 293.201C364.781 293.227 364.754 293.248 364.724 293.262C364.693 293.277 364.66 293.284 364.626 293.284Z" fill="white"/>
<path d="M398.23 354.433C398.157 354.433 398.085 354.416 398.02 354.382C397.955 354.349 397.899 354.3 397.856 354.24C397.814 354.181 397.786 354.112 397.776 354.039C397.766 353.967 397.773 353.893 397.797 353.824L405.94 330.406C406.179 329.718 406.588 329.101 407.128 328.611C407.668 328.122 408.322 327.776 409.03 327.605C409.739 327.434 410.479 327.444 411.182 327.633C411.886 327.822 412.531 328.185 413.058 328.688L417.363 332.802C417.451 332.886 417.502 333.001 417.505 333.123C417.507 333.244 417.462 333.362 417.378 333.45C417.294 333.538 417.178 333.589 417.057 333.591C416.935 333.594 416.817 333.549 416.73 333.465L412.425 329.352C412.009 328.955 411.499 328.669 410.944 328.52C410.388 328.371 409.805 328.363 409.245 328.498C408.686 328.633 408.17 328.906 407.744 329.292C407.318 329.678 406.995 330.165 406.806 330.708L398.662 354.125C398.631 354.215 398.573 354.293 398.495 354.348C398.418 354.404 398.325 354.433 398.23 354.433Z" fill="#494949"/>
<path d="M429.391 345.767C435.029 341.304 434.694 331.49 428.643 323.846C422.593 316.202 413.118 313.623 407.481 318.085C401.843 322.547 402.178 332.361 408.229 340.005C414.279 347.649 423.754 350.229 429.391 345.767Z" fill="#0CBC8B"/>
<path d="M389.802 358.544C389.699 358.544 389.599 358.509 389.518 358.446C389.438 358.382 389.381 358.292 389.357 358.192L375.692 301.055C375.598 300.665 375.399 300.309 375.117 300.025C374.834 299.741 374.479 299.541 374.089 299.446C373.7 299.352 373.292 299.366 372.911 299.488C372.529 299.61 372.189 299.835 371.927 300.138L367.715 305.006C367.635 305.098 367.522 305.154 367.401 305.163C367.279 305.172 367.16 305.132 367.068 305.053C366.976 304.973 366.919 304.86 366.91 304.739C366.902 304.618 366.941 304.498 367.021 304.406L371.234 299.538C371.606 299.107 372.09 298.788 372.632 298.615C373.175 298.442 373.754 298.421 374.307 298.556C374.86 298.691 375.365 298.976 375.767 299.38C376.169 299.783 376.451 300.29 376.583 300.843L390.249 357.981C390.265 358.048 390.266 358.119 390.251 358.186C390.236 358.254 390.206 358.317 390.163 358.372C390.12 358.426 390.065 358.47 390.003 358.5C389.94 358.531 389.872 358.546 389.802 358.546V358.544Z" fill="#494949"/>
<path d="M384.492 317.708C386.149 308.105 381.751 299.33 374.67 298.108C367.588 296.885 360.504 303.679 358.847 313.282C357.189 322.884 361.587 331.66 368.668 332.882C375.75 334.104 382.834 327.31 384.492 317.708Z" fill="#0CBC8B"/>
<path d="M393.503 360.038C393.484 360.038 393.465 360.036 393.446 360.034C393.386 360.027 393.329 360.008 393.276 359.978C393.224 359.948 393.178 359.909 393.141 359.861C393.104 359.814 393.077 359.759 393.061 359.701C393.044 359.643 393.04 359.583 393.047 359.523L401.774 288.673C401.869 287.902 402.184 287.174 402.683 286.577C403.182 285.981 403.843 285.541 404.585 285.311C405.328 285.08 406.122 285.07 406.87 285.28C407.619 285.49 408.291 285.912 408.806 286.495L418.78 297.791C418.86 297.882 418.902 298.002 418.894 298.123C418.886 298.245 418.831 298.358 418.74 298.439C418.649 298.519 418.529 298.56 418.408 298.553C418.286 298.545 418.173 298.49 418.092 298.398L408.118 287.102C407.721 286.651 407.201 286.325 406.623 286.163C406.044 286.001 405.431 286.009 404.857 286.187C404.282 286.364 403.772 286.704 403.386 287.165C403.001 287.626 402.757 288.189 402.683 288.785L393.957 359.635C393.944 359.746 393.89 359.848 393.806 359.923C393.723 359.997 393.615 360.038 393.503 360.038Z" fill="#494949"/>
<path d="M429.01 304.069C432.49 297.778 428.395 288.853 419.865 284.134C411.334 279.415 401.597 280.69 398.117 286.981C394.637 293.272 398.732 302.198 407.263 306.916C415.793 311.635 425.53 310.36 429.01 304.069Z" fill="#0CBC8B"/>
<path opacity="0.2" d="M429.391 345.767C435.029 341.304 434.694 331.49 428.643 323.846C422.593 316.202 413.118 313.623 407.481 318.085C401.843 322.547 402.178 332.361 408.229 340.005C414.279 347.649 423.754 350.229 429.391 345.767Z" fill="white"/>
<path opacity="0.5" d="M384.492 317.708C386.149 308.105 381.751 299.33 374.67 298.108C367.588 296.885 360.504 303.679 358.847 313.282C357.189 322.884 361.587 331.66 368.668 332.882C375.75 334.104 382.834 327.31 384.492 317.708Z" fill="white"/>
<path opacity="0.5" d="M429.01 304.069C432.49 297.778 428.395 288.853 419.865 284.134C411.334 279.415 401.597 280.69 398.117 286.981C394.637 293.272 398.732 302.198 407.263 306.916C415.793 311.635 425.53 310.36 429.01 304.069Z" fill="white"/>
<path d="M404.663 420.153H382.34L378.642 348.732H408.362L404.663 420.153Z" fill="#292A2E"/>
<path opacity="0.3" d="M404.663 420.153H382.34L378.642 348.732H408.362L404.663 420.153Z" fill="white"/>
<path d="M429.392 345.993C429.358 345.993 429.323 345.985 429.292 345.97C429.261 345.955 429.234 345.933 429.212 345.906L407.3 318.224C407.263 318.177 407.245 318.116 407.253 318.055C407.26 317.995 407.29 317.94 407.338 317.902C407.386 317.864 407.447 317.847 407.507 317.854C407.567 317.861 407.623 317.892 407.66 317.94L429.572 345.621C429.599 345.655 429.616 345.695 429.62 345.738C429.625 345.781 429.618 345.824 429.599 345.863C429.58 345.902 429.551 345.935 429.515 345.957C429.478 345.98 429.435 345.993 429.392 345.993Z" fill="white"/>
<path d="M427.552 306.287C427.503 306.286 427.456 306.27 427.417 306.241L399.378 285.769C399.354 285.751 399.333 285.729 399.318 285.703C399.302 285.678 399.292 285.649 399.287 285.619C399.282 285.59 399.284 285.559 399.291 285.53C399.298 285.501 399.311 285.473 399.328 285.449C399.346 285.424 399.368 285.404 399.394 285.388C399.42 285.373 399.448 285.362 399.478 285.357C399.508 285.353 399.538 285.354 399.568 285.361C399.597 285.368 399.624 285.381 399.649 285.399L427.689 305.873C427.728 305.901 427.756 305.942 427.771 305.988C427.785 306.033 427.784 306.083 427.769 306.128C427.754 306.174 427.725 306.214 427.686 306.242C427.647 306.27 427.6 306.285 427.552 306.285V306.287Z" fill="white"/>
<path d="M367.788 332.576C367.768 332.576 367.748 332.573 367.729 332.568C367.67 332.552 367.62 332.514 367.589 332.461C367.559 332.409 367.551 332.346 367.566 332.287L376.492 298.845C376.5 298.816 376.513 298.788 376.531 298.764C376.549 298.739 376.572 298.719 376.598 298.703C376.625 298.688 376.654 298.678 376.684 298.674C376.714 298.67 376.745 298.672 376.774 298.679C376.803 298.687 376.831 298.701 376.855 298.719C376.879 298.738 376.899 298.761 376.914 298.788C376.929 298.814 376.939 298.843 376.942 298.874C376.946 298.904 376.944 298.934 376.935 298.964L368.009 332.406C367.996 332.454 367.967 332.497 367.928 332.528C367.888 332.559 367.839 332.576 367.788 332.576Z" fill="white"/>
</svg>
