<svg width="741" height="843" viewBox="0 0 741 843" fill="none" xmlns="http://www.w3.org/2000/svg">
<g clip-path="url(#clip0_383_1776)">
<path d="M695.96 237.453L487.23 237.453C483.263 237.453 479.458 235.877 476.653 233.072C473.847 230.266 472.271 226.462 472.271 222.494V70.5421C472.271 66.5766 473.847 62.7735 476.651 59.9695C479.455 57.1654 483.258 55.5901 487.223 55.5901L695.967 55.5901C699.933 55.5901 703.736 57.1654 706.54 59.9695C709.344 62.7735 710.919 66.5766 710.919 70.5421V222.494C710.919 226.462 709.343 230.266 706.538 233.072C703.733 235.877 699.928 237.453 695.96 237.453Z" fill="white"/>
<path d="M471.646 222.493V70.5409C471.646 66.4096 473.288 62.4475 476.209 59.5263C479.13 56.605 483.092 54.9639 487.223 54.9639H695.967C700.099 54.9639 704.061 56.605 706.982 59.5263C709.903 62.4475 711.544 66.4096 711.544 70.5409V222.493C711.544 224.539 711.141 226.566 710.358 228.457C709.575 230.347 708.427 232.065 706.98 233.512C705.533 234.96 703.815 236.107 701.924 236.891C700.034 237.674 698.007 238.077 695.961 238.077H487.23C485.184 238.077 483.157 237.674 481.267 236.891C479.376 236.107 477.658 234.96 476.211 233.512C474.764 232.065 473.616 230.347 472.833 228.457C472.05 226.566 471.646 224.539 471.646 222.493ZM487.223 56.2139C483.424 56.2149 479.781 57.7248 477.095 60.4116C474.409 63.0983 472.9 66.7418 472.9 70.5409V222.493C472.9 226.294 474.411 229.94 477.099 232.629C479.787 235.317 483.433 236.827 487.234 236.827H695.961C699.762 236.827 703.408 235.317 706.096 232.629C708.784 229.94 710.294 226.294 710.294 222.493V70.5409C710.294 66.7411 708.785 63.097 706.098 60.4101C703.411 57.7233 699.767 56.2139 695.967 56.2139H487.223Z" fill="#292A2E"/>
<path d="M472.272 70.5389V83.1999H710.917V70.5389C710.917 66.5734 709.342 62.7703 706.538 59.9663C703.734 57.1622 699.931 55.5869 695.965 55.5869H487.223C485.26 55.5869 483.316 55.9737 481.502 56.7251C479.688 57.4765 478.039 58.5779 476.651 59.9663C475.263 61.3547 474.162 63.003 473.41 64.8171C472.659 66.6312 472.272 68.5754 472.272 70.5389Z" fill="#292A2E"/>
<path d="M553.774 103.666H542.513C542.38 103.666 542.253 103.613 542.159 103.52C542.065 103.426 542.013 103.299 542.013 103.166C542.013 103.033 542.065 102.906 542.159 102.812C542.253 102.719 542.38 102.666 542.513 102.666H553.774C553.906 102.666 554.033 102.719 554.127 102.812C554.221 102.906 554.274 103.033 554.274 103.166C554.274 103.299 554.221 103.426 554.127 103.52C554.033 103.613 553.906 103.666 553.774 103.666Z" fill="#292A2E"/>
<path d="M534.392 103.666H530.131C529.998 103.666 529.871 103.613 529.777 103.52C529.684 103.426 529.631 103.299 529.631 103.166C529.631 103.033 529.684 102.906 529.777 102.812C529.871 102.719 529.998 102.666 530.131 102.666H534.392C534.524 102.666 534.652 102.719 534.745 102.812C534.839 102.906 534.892 103.033 534.892 103.166C534.892 103.299 534.839 103.426 534.745 103.52C534.652 103.613 534.524 103.666 534.392 103.666Z" fill="#367CFF"/>
<path d="M534.392 112.686H530.131C529.998 112.686 529.871 112.633 529.777 112.539C529.684 112.445 529.631 112.318 529.631 112.186C529.631 112.053 529.684 111.926 529.777 111.832C529.871 111.738 529.998 111.686 530.131 111.686H534.392C534.524 111.686 534.652 111.738 534.745 111.832C534.839 111.926 534.892 112.053 534.892 112.186C534.892 112.318 534.839 112.445 534.745 112.539C534.652 112.633 534.524 112.686 534.392 112.686Z" fill="#367CFF"/>
<path d="M534.392 121.706H530.131C529.998 121.706 529.871 121.653 529.777 121.56C529.684 121.466 529.631 121.339 529.631 121.206C529.631 121.073 529.684 120.946 529.777 120.853C529.871 120.759 529.998 120.706 530.131 120.706H534.392C534.524 120.706 534.652 120.759 534.745 120.853C534.839 120.946 534.892 121.073 534.892 121.206C534.892 121.339 534.839 121.466 534.745 121.56C534.652 121.653 534.524 121.706 534.392 121.706Z" fill="#367CFF"/>
<path d="M534.392 130.726H530.131C529.998 130.726 529.871 130.673 529.777 130.579C529.684 130.485 529.631 130.358 529.631 130.226C529.631 130.093 529.684 129.966 529.777 129.872C529.871 129.778 529.998 129.726 530.131 129.726H534.392C534.524 129.726 534.652 129.778 534.745 129.872C534.839 129.966 534.892 130.093 534.892 130.226C534.892 130.358 534.839 130.485 534.745 130.579C534.652 130.673 534.524 130.726 534.392 130.726Z" fill="#367CFF"/>
<path d="M534.392 139.746H530.131C529.998 139.746 529.871 139.693 529.777 139.6C529.684 139.506 529.631 139.379 529.631 139.246C529.631 139.113 529.684 138.986 529.777 138.893C529.871 138.799 529.998 138.746 530.131 138.746H534.392C534.524 138.746 534.652 138.799 534.745 138.893C534.839 138.986 534.892 139.113 534.892 139.246C534.892 139.379 534.839 139.506 534.745 139.6C534.652 139.693 534.524 139.746 534.392 139.746Z" fill="#367CFF"/>
<path d="M534.392 148.766H530.131C529.998 148.766 529.871 148.713 529.777 148.619C529.684 148.525 529.631 148.398 529.631 148.266C529.631 148.133 529.684 148.006 529.777 147.912C529.871 147.818 529.998 147.766 530.131 147.766H534.392C534.524 147.766 534.652 147.818 534.745 147.912C534.839 148.006 534.892 148.133 534.892 148.266C534.892 148.398 534.839 148.525 534.745 148.619C534.652 148.713 534.524 148.766 534.392 148.766Z" fill="#367CFF"/>
<path d="M534.392 157.786H530.131C529.998 157.786 529.871 157.733 529.777 157.64C529.684 157.546 529.631 157.419 529.631 157.286C529.631 157.154 529.684 157.026 529.777 156.933C529.871 156.839 529.998 156.786 530.131 156.786H534.392C534.524 156.786 534.652 156.839 534.745 156.933C534.839 157.026 534.892 157.154 534.892 157.286C534.892 157.419 534.839 157.546 534.745 157.64C534.652 157.733 534.524 157.786 534.392 157.786Z" fill="#367CFF"/>
<path d="M534.392 166.806H530.131C529.998 166.806 529.871 166.753 529.777 166.659C529.684 166.565 529.631 166.438 529.631 166.306C529.631 166.173 529.684 166.046 529.777 165.952C529.871 165.858 529.998 165.806 530.131 165.806H534.392C534.524 165.806 534.652 165.858 534.745 165.952C534.839 166.046 534.892 166.173 534.892 166.306C534.892 166.438 534.839 166.565 534.745 166.659C534.652 166.753 534.524 166.806 534.392 166.806Z" fill="#367CFF"/>
<path d="M534.392 175.826H530.131C529.998 175.826 529.871 175.773 529.777 175.68C529.684 175.586 529.631 175.459 529.631 175.326C529.631 175.194 529.684 175.066 529.777 174.973C529.871 174.879 529.998 174.826 530.131 174.826H534.392C534.524 174.826 534.652 174.879 534.745 174.973C534.839 175.066 534.892 175.194 534.892 175.326C534.892 175.459 534.839 175.586 534.745 175.68C534.652 175.773 534.524 175.826 534.392 175.826Z" fill="#367CFF"/>
<path d="M534.392 184.846H530.131C529.998 184.846 529.871 184.793 529.777 184.699C529.684 184.605 529.631 184.478 529.631 184.346C529.631 184.213 529.684 184.086 529.777 183.992C529.871 183.898 529.998 183.846 530.131 183.846H534.392C534.524 183.846 534.652 183.898 534.745 183.992C534.839 184.086 534.892 184.213 534.892 184.346C534.892 184.478 534.839 184.605 534.745 184.699C534.652 184.793 534.524 184.846 534.392 184.846Z" fill="#367CFF"/>
<path d="M534.392 193.866H530.131C529.998 193.866 529.871 193.814 529.777 193.72C529.684 193.626 529.631 193.499 529.631 193.366C529.631 193.234 529.684 193.106 529.777 193.013C529.871 192.919 529.998 192.866 530.131 192.866H534.392C534.524 192.866 534.652 192.919 534.745 193.013C534.839 193.106 534.892 193.234 534.892 193.366C534.892 193.499 534.839 193.626 534.745 193.72C534.652 193.814 534.524 193.866 534.392 193.866Z" fill="#367CFF"/>
<path d="M534.392 202.886H530.131C529.998 202.886 529.871 202.833 529.777 202.739C529.684 202.646 529.631 202.518 529.631 202.386C529.631 202.253 529.684 202.126 529.777 202.032C529.871 201.938 529.998 201.886 530.131 201.886H534.392C534.524 201.886 534.652 201.938 534.745 202.032C534.839 202.126 534.892 202.253 534.892 202.386C534.892 202.518 534.839 202.646 534.745 202.739C534.652 202.833 534.524 202.886 534.392 202.886Z" fill="#367CFF"/>
<path d="M534.392 211.906H530.131C529.998 211.906 529.871 211.854 529.777 211.76C529.684 211.666 529.631 211.539 529.631 211.406C529.631 211.274 529.684 211.146 529.777 211.053C529.871 210.959 529.998 210.906 530.131 210.906H534.392C534.524 210.906 534.652 210.959 534.745 211.053C534.839 211.146 534.892 211.274 534.892 211.406C534.892 211.539 534.839 211.666 534.745 211.76C534.652 211.854 534.524 211.906 534.392 211.906Z" fill="#367CFF"/>
<path d="M534.392 220.927H530.131C529.998 220.927 529.871 220.874 529.777 220.78C529.684 220.687 529.631 220.559 529.631 220.427C529.631 220.294 529.684 220.167 529.777 220.073C529.871 219.979 529.998 219.927 530.131 219.927H534.392C534.524 219.927 534.652 219.979 534.745 220.073C534.839 220.167 534.892 220.294 534.892 220.427C534.892 220.559 534.839 220.687 534.745 220.78C534.652 220.874 534.524 220.927 534.392 220.927Z" fill="#367CFF"/>
<path d="M562.774 112.686H552.513C552.38 112.686 552.253 112.633 552.159 112.539C552.065 112.445 552.013 112.318 552.013 112.186C552.013 112.053 552.065 111.926 552.159 111.832C552.253 111.738 552.38 111.686 552.513 111.686H562.774C562.906 111.686 563.033 111.738 563.127 111.832C563.221 111.926 563.274 112.053 563.274 112.186C563.274 112.318 563.221 112.445 563.127 112.539C563.033 112.633 562.906 112.686 562.774 112.686Z" fill="#292A2E"/>
<path d="M553.774 166.806H542.513C542.38 166.806 542.253 166.753 542.159 166.659C542.065 166.565 542.013 166.438 542.013 166.306C542.013 166.173 542.065 166.046 542.159 165.952C542.253 165.858 542.38 165.806 542.513 165.806H553.774C553.906 165.806 554.033 165.858 554.127 165.952C554.221 166.046 554.274 166.173 554.274 166.306C554.274 166.438 554.221 166.565 554.127 166.659C554.033 166.753 553.906 166.806 553.774 166.806Z" fill="#292A2E"/>
<path d="M562.774 175.826H552.513C552.38 175.826 552.253 175.773 552.159 175.68C552.065 175.586 552.013 175.459 552.013 175.326C552.013 175.194 552.065 175.066 552.159 174.973C552.253 174.879 552.38 174.826 552.513 174.826H562.774C562.906 174.826 563.033 174.879 563.127 174.973C563.221 175.066 563.274 175.194 563.274 175.326C563.274 175.459 563.221 175.586 563.127 175.68C563.033 175.773 562.906 175.826 562.774 175.826Z" fill="#292A2E"/>
<path d="M620.774 121.706H559.513C559.38 121.706 559.253 121.653 559.159 121.56C559.065 121.466 559.013 121.339 559.013 121.206C559.013 121.073 559.065 120.946 559.159 120.853C559.253 120.759 559.38 120.706 559.513 120.706H620.774C620.906 120.706 621.033 120.759 621.127 120.853C621.221 120.946 621.274 121.073 621.274 121.206C621.274 121.339 621.221 121.466 621.127 121.56C621.033 121.653 620.906 121.706 620.774 121.706Z" fill="#292A2E"/>
<path d="M674.861 121.706H631.601C631.468 121.706 631.341 121.653 631.247 121.56C631.153 121.466 631.101 121.339 631.101 121.206C631.101 121.073 631.153 120.946 631.247 120.853C631.341 120.759 631.468 120.706 631.601 120.706H674.861C674.993 120.706 675.12 120.759 675.214 120.853C675.308 120.946 675.361 121.073 675.361 121.206C675.361 121.339 675.308 121.466 675.214 121.56C675.12 121.653 674.993 121.706 674.861 121.706Z" fill="#0CBC8B"/>
<path d="M698.076 121.706H684.816C684.684 121.706 684.557 121.653 684.463 121.56C684.369 121.466 684.316 121.339 684.316 121.206C684.316 121.073 684.369 120.946 684.463 120.853C684.557 120.759 684.684 120.706 684.816 120.706H698.076C698.209 120.706 698.336 120.759 698.43 120.853C698.524 120.946 698.576 121.073 698.576 121.206C698.576 121.339 698.524 121.466 698.43 121.56C698.336 121.653 698.209 121.706 698.076 121.706Z" fill="#292A2E"/>
<path d="M650.774 139.746H559.513C559.38 139.746 559.253 139.693 559.159 139.6C559.065 139.506 559.013 139.379 559.013 139.246C559.013 139.113 559.065 138.986 559.159 138.893C559.253 138.799 559.38 138.746 559.513 138.746H650.774C650.906 138.746 651.033 138.799 651.127 138.893C651.221 138.986 651.274 139.113 651.274 139.246C651.274 139.379 651.221 139.506 651.127 139.6C651.033 139.693 650.906 139.746 650.774 139.746Z" fill="#292A2E"/>
<path d="M674.861 139.746H661.601C661.468 139.746 661.341 139.693 661.247 139.6C661.153 139.506 661.101 139.379 661.101 139.246C661.101 139.113 661.153 138.986 661.247 138.893C661.341 138.799 661.468 138.746 661.601 138.746H674.861C674.993 138.746 675.12 138.799 675.214 138.893C675.308 138.986 675.361 139.113 675.361 139.246C675.361 139.379 675.308 139.506 675.214 139.6C675.12 139.693 674.993 139.746 674.861 139.746Z" fill="#367CFF"/>
<path d="M570.774 130.726H559.513C559.38 130.726 559.253 130.673 559.159 130.579C559.065 130.485 559.013 130.358 559.013 130.226C559.013 130.093 559.065 129.966 559.159 129.872C559.253 129.778 559.38 129.726 559.513 129.726H570.774C570.906 129.726 571.033 129.778 571.127 129.872C571.221 129.966 571.274 130.093 571.274 130.226C571.274 130.358 571.221 130.485 571.127 130.579C571.033 130.673 570.906 130.726 570.774 130.726Z" fill="#0CBC8B"/>
<path d="M644.861 130.726H581.601C581.468 130.726 581.341 130.673 581.247 130.579C581.153 130.485 581.101 130.358 581.101 130.226C581.101 130.093 581.153 129.966 581.247 129.872C581.341 129.778 581.468 129.726 581.601 129.726H644.861C644.993 129.726 645.12 129.778 645.214 129.872C645.308 129.966 645.361 130.093 645.361 130.226C645.361 130.358 645.308 130.485 645.214 130.579C645.12 130.673 644.993 130.726 644.861 130.726Z" fill="#367CFF"/>
<path d="M698.164 130.726H656.901C656.768 130.726 656.641 130.673 656.547 130.579C656.454 130.485 656.401 130.358 656.401 130.226C656.401 130.093 656.454 129.966 656.547 129.872C656.641 129.778 656.768 129.726 656.901 129.726H698.162C698.294 129.726 698.422 129.778 698.515 129.872C698.609 129.966 698.662 130.093 698.662 130.226C698.662 130.358 698.609 130.485 698.515 130.579C698.422 130.673 698.294 130.726 698.162 130.726H698.164Z" fill="#292A2E"/>
<path d="M620.774 148.766H559.513C559.38 148.766 559.253 148.713 559.159 148.619C559.065 148.525 559.013 148.398 559.013 148.266C559.013 148.133 559.065 148.006 559.159 147.912C559.253 147.818 559.38 147.766 559.513 147.766H620.774C620.906 147.766 621.033 147.818 621.127 147.912C621.221 148.006 621.274 148.133 621.274 148.266C621.274 148.398 621.221 148.525 621.127 148.619C621.033 148.713 620.906 148.766 620.774 148.766Z" fill="#292A2E"/>
<path d="M654.861 148.766H631.601C631.468 148.766 631.341 148.713 631.247 148.619C631.153 148.525 631.101 148.398 631.101 148.266C631.101 148.133 631.153 148.006 631.247 147.912C631.341 147.818 631.468 147.766 631.601 147.766H654.861C654.993 147.766 655.12 147.818 655.214 147.912C655.308 148.006 655.361 148.133 655.361 148.266C655.361 148.398 655.308 148.525 655.214 148.619C655.12 148.713 654.993 148.766 654.861 148.766Z" fill="#0CBC8B"/>
<path d="M698.076 148.766H664.816C664.684 148.766 664.557 148.713 664.463 148.619C664.369 148.525 664.316 148.398 664.316 148.266C664.316 148.133 664.369 148.006 664.463 147.912C664.557 147.818 664.684 147.766 664.816 147.766H698.076C698.209 147.766 698.336 147.818 698.43 147.912C698.524 148.006 698.576 148.133 698.576 148.266C698.576 148.398 698.524 148.525 698.43 148.619C698.336 148.713 698.209 148.766 698.076 148.766Z" fill="#292A2E"/>
<path d="M570.774 157.786H559.513C559.38 157.786 559.253 157.733 559.159 157.64C559.065 157.546 559.013 157.419 559.013 157.286C559.013 157.154 559.065 157.026 559.159 156.933C559.253 156.839 559.38 156.786 559.513 156.786H570.774C570.906 156.786 571.033 156.839 571.127 156.933C571.221 157.026 571.274 157.154 571.274 157.286C571.274 157.419 571.221 157.546 571.127 157.64C571.033 157.733 570.906 157.786 570.774 157.786Z" fill="#367CFF"/>
<path d="M644.861 157.786H581.601C581.468 157.786 581.341 157.733 581.247 157.64C581.153 157.546 581.101 157.419 581.101 157.286C581.101 157.154 581.153 157.026 581.247 156.933C581.341 156.839 581.468 156.786 581.601 156.786H644.861C644.993 156.786 645.12 156.839 645.214 156.933C645.308 157.026 645.361 157.154 645.361 157.286C645.361 157.419 645.308 157.546 645.214 157.64C645.12 157.733 644.993 157.786 644.861 157.786Z" fill="#0CBC8B"/>
<path d="M618.774 193.866H557.513C557.38 193.866 557.253 193.814 557.159 193.72C557.065 193.626 557.013 193.499 557.013 193.366C557.013 193.234 557.065 193.106 557.159 193.013C557.253 192.919 557.38 192.866 557.513 192.866H618.774C618.906 192.866 619.033 192.919 619.127 193.013C619.221 193.106 619.274 193.234 619.274 193.366C619.274 193.499 619.221 193.626 619.127 193.72C619.033 193.814 618.906 193.866 618.774 193.866Z" fill="#292A2E"/>
<path d="M672.861 193.866H629.601C629.468 193.866 629.341 193.814 629.247 193.72C629.153 193.626 629.101 193.499 629.101 193.366C629.101 193.234 629.153 193.106 629.247 193.013C629.341 192.919 629.468 192.866 629.601 192.866H672.861C672.993 192.866 673.12 192.919 673.214 193.013C673.308 193.106 673.361 193.234 673.361 193.366C673.361 193.499 673.308 193.626 673.214 193.72C673.12 193.814 672.993 193.866 672.861 193.866Z" fill="#367CFF"/>
<path d="M588.774 184.846H557.513C557.38 184.846 557.253 184.793 557.159 184.699C557.065 184.605 557.013 184.478 557.013 184.346C557.013 184.213 557.065 184.086 557.159 183.992C557.253 183.898 557.38 183.846 557.513 183.846H588.774C588.906 183.846 589.033 183.898 589.127 183.992C589.221 184.086 589.274 184.213 589.274 184.346C589.274 184.478 589.221 184.605 589.127 184.699C589.033 184.793 588.906 184.846 588.774 184.846Z" fill="#0CBC8B"/>
<path d="M642.861 184.846H599.601C599.468 184.846 599.341 184.793 599.247 184.699C599.153 184.605 599.101 184.478 599.101 184.346C599.101 184.213 599.153 184.086 599.247 183.992C599.341 183.898 599.468 183.846 599.601 183.846H642.861C642.993 183.846 643.12 183.898 643.214 183.992C643.308 184.086 643.361 184.213 643.361 184.346C643.361 184.478 643.308 184.605 643.214 184.699C643.12 184.793 642.993 184.846 642.861 184.846Z" fill="#367CFF"/>
<path d="M696.164 184.846H654.901C654.768 184.846 654.641 184.793 654.547 184.699C654.454 184.605 654.401 184.478 654.401 184.346C654.401 184.213 654.454 184.086 654.547 183.992C654.641 183.898 654.768 183.846 654.901 183.846H696.162C696.294 183.846 696.422 183.898 696.515 183.992C696.609 184.086 696.662 184.213 696.662 184.346C696.662 184.478 696.609 184.605 696.515 184.699C696.422 184.793 696.294 184.846 696.162 184.846H696.164Z" fill="#292A2E"/>
<path d="M648.774 211.907H557.513C557.38 211.907 557.253 211.855 557.159 211.761C557.065 211.667 557.013 211.54 557.013 211.407C557.013 211.275 557.065 211.147 557.159 211.054C557.253 210.96 557.38 210.907 557.513 210.907H648.774C648.906 210.907 649.033 210.96 649.127 211.054C649.221 211.147 649.274 211.275 649.274 211.407C649.274 211.54 649.221 211.667 649.127 211.761C649.033 211.855 648.906 211.907 648.774 211.907Z" fill="#367CFF"/>
<path d="M672.861 211.907H659.601C659.468 211.907 659.341 211.855 659.247 211.761C659.153 211.667 659.101 211.54 659.101 211.407C659.101 211.275 659.153 211.147 659.247 211.054C659.341 210.96 659.468 210.907 659.601 210.907H672.861C672.993 210.907 673.12 210.96 673.214 211.054C673.308 211.147 673.361 211.275 673.361 211.407C673.361 211.54 673.308 211.667 673.214 211.761C673.12 211.855 672.993 211.907 672.861 211.907Z" fill="#292A2E"/>
<path d="M568.774 202.887H557.513C557.38 202.887 557.253 202.834 557.159 202.74C557.065 202.647 557.013 202.519 557.013 202.387C557.013 202.254 557.065 202.127 557.159 202.033C557.253 201.939 557.38 201.887 557.513 201.887H568.774C568.906 201.887 569.033 201.939 569.127 202.033C569.221 202.127 569.274 202.254 569.274 202.387C569.274 202.519 569.221 202.647 569.127 202.74C569.033 202.834 568.906 202.887 568.774 202.887Z" fill="#367CFF"/>
<path d="M642.861 202.887H579.601C579.468 202.887 579.341 202.834 579.247 202.74C579.153 202.647 579.101 202.519 579.101 202.387C579.101 202.254 579.153 202.127 579.247 202.033C579.341 201.939 579.468 201.887 579.601 201.887H642.861C642.993 201.887 643.12 201.939 643.214 202.033C643.308 202.127 643.361 202.254 643.361 202.387C643.361 202.519 643.308 202.647 643.214 202.74C643.12 202.834 642.993 202.887 642.861 202.887Z" fill="#292A2E"/>
<path d="M696.164 202.887H654.901C654.768 202.887 654.641 202.834 654.547 202.74C654.454 202.647 654.401 202.519 654.401 202.387C654.401 202.254 654.454 202.127 654.547 202.033C654.641 201.939 654.768 201.887 654.901 201.887H696.162C696.294 201.887 696.422 201.939 696.515 202.033C696.609 202.127 696.662 202.254 696.662 202.387C696.662 202.519 696.609 202.647 696.515 202.74C696.422 202.834 696.294 202.887 696.162 202.887H696.164Z" fill="#0CBC8B"/>
<path d="M618.774 220.927H557.513C557.38 220.927 557.253 220.874 557.159 220.78C557.065 220.687 557.013 220.559 557.013 220.427C557.013 220.294 557.065 220.167 557.159 220.073C557.253 219.979 557.38 219.927 557.513 219.927H618.774C618.906 219.927 619.033 219.979 619.127 220.073C619.221 220.167 619.274 220.294 619.274 220.427C619.274 220.559 619.221 220.687 619.127 220.78C619.033 220.874 618.906 220.927 618.774 220.927Z" fill="#0CBC8B"/>
<path d="M652.861 220.927H629.601C629.468 220.927 629.341 220.874 629.247 220.78C629.153 220.687 629.101 220.559 629.101 220.427C629.101 220.294 629.153 220.167 629.247 220.073C629.341 219.979 629.468 219.927 629.601 219.927H652.861C652.993 219.927 653.12 219.979 653.214 220.073C653.308 220.167 653.361 220.294 653.361 220.427C653.361 220.559 653.308 220.687 653.214 220.78C653.12 220.874 652.993 220.927 652.861 220.927Z" fill="#292A2E"/>
<path d="M696.076 220.927H662.816C662.684 220.927 662.557 220.874 662.463 220.78C662.369 220.687 662.316 220.559 662.316 220.427C662.316 220.294 662.369 220.167 662.463 220.073C662.557 219.979 662.684 219.927 662.816 219.927H696.076C696.209 219.927 696.336 219.979 696.43 220.073C696.524 220.167 696.576 220.294 696.576 220.427C696.576 220.559 696.524 220.687 696.43 220.78C696.336 220.874 696.209 220.927 696.076 220.927Z" fill="#367CFF"/>
<path d="M525.382 230.579C525.249 230.579 525.122 230.526 525.028 230.432C524.935 230.339 524.882 230.212 524.882 230.079V87.9199C524.882 87.7873 524.935 87.6601 525.028 87.5664C525.122 87.4726 525.249 87.4199 525.382 87.4199C525.514 87.4199 525.642 87.4726 525.735 87.5664C525.829 87.6601 525.882 87.7873 525.882 87.9199V230.079C525.882 230.212 525.829 230.339 525.735 230.432C525.642 230.526 525.514 230.579 525.382 230.579Z" fill="#292A2E"/>
<path d="M692.838 78.417C697.269 78.417 700.86 74.8255 700.86 70.395C700.86 65.9646 697.269 62.373 692.838 62.373C688.408 62.373 684.816 65.9646 684.816 70.395C684.816 74.8255 688.408 78.417 692.838 78.417Z" fill="white"/>
<path d="M502.512 94.166H480.86C480.728 94.166 480.601 94.1133 480.507 94.0196C480.413 93.9258 480.36 93.7986 480.36 93.666C480.36 93.5334 480.413 93.4062 480.507 93.3125C480.601 93.2187 480.728 93.166 480.86 93.166H502.512C502.645 93.166 502.772 93.2187 502.866 93.3125C502.96 93.4062 503.012 93.5334 503.012 93.666C503.012 93.7986 502.96 93.9258 502.866 94.0196C502.772 94.1133 502.645 94.166 502.512 94.166Z" fill="#292A2E"/>
<path d="M495.989 104.028H480.86C480.728 104.028 480.601 103.976 480.507 103.882C480.413 103.788 480.36 103.661 480.36 103.528C480.36 103.396 480.413 103.269 480.507 103.175C480.601 103.081 480.728 103.028 480.86 103.028H495.989C496.122 103.028 496.249 103.081 496.343 103.175C496.437 103.269 496.489 103.396 496.489 103.528C496.489 103.661 496.437 103.788 496.343 103.882C496.249 103.976 496.122 104.028 495.989 104.028Z" fill="#292A2E"/>
<path d="M509.294 113.89H480.86C480.728 113.89 480.601 113.837 480.507 113.743C480.413 113.649 480.36 113.522 480.36 113.39C480.36 113.257 480.413 113.13 480.507 113.036C480.601 112.942 480.728 112.89 480.86 112.89H509.294C509.427 112.89 509.554 112.942 509.648 113.036C509.742 113.13 509.794 113.257 509.794 113.39C509.794 113.522 509.742 113.649 509.648 113.743C509.554 113.837 509.427 113.89 509.294 113.89Z" fill="#292A2E"/>
<path d="M514.6 123.752H490.86C490.728 123.752 490.601 123.699 490.507 123.606C490.413 123.512 490.36 123.385 490.36 123.252C490.36 123.119 490.413 122.992 490.507 122.898C490.601 122.805 490.728 122.752 490.86 122.752H514.6C514.733 122.752 514.86 122.805 514.954 122.898C515.048 122.992 515.1 123.119 515.1 123.252C515.1 123.385 515.048 123.512 514.954 123.606C514.86 123.699 514.733 123.752 514.6 123.752Z" fill="#292A2E"/>
<path d="M503.12 133.615H490.86C490.728 133.615 490.601 133.563 490.507 133.469C490.413 133.375 490.36 133.248 490.36 133.115C490.36 132.983 490.413 132.855 490.507 132.762C490.601 132.668 490.728 132.615 490.86 132.615H503.12C503.253 132.615 503.38 132.668 503.474 132.762C503.568 132.855 503.62 132.983 503.62 133.115C503.62 133.248 503.568 133.375 503.474 133.469C503.38 133.563 503.253 133.615 503.12 133.615Z" fill="#292A2E"/>
<path d="M512.512 143.477H490.86C490.728 143.477 490.601 143.424 490.507 143.33C490.413 143.236 490.36 143.109 490.36 142.977C490.36 142.844 490.413 142.717 490.507 142.623C490.601 142.529 490.728 142.477 490.86 142.477H512.512C512.645 142.477 512.772 142.529 512.866 142.623C512.96 142.717 513.012 142.844 513.012 142.977C513.012 143.109 512.96 143.236 512.866 143.33C512.772 143.424 512.645 143.477 512.512 143.477Z" fill="#292A2E"/>
<path d="M497.555 153.339H480.86C480.728 153.339 480.601 153.286 480.507 153.192C480.413 153.099 480.36 152.971 480.36 152.839C480.36 152.706 480.413 152.579 480.507 152.485C480.601 152.392 480.728 152.339 480.86 152.339H497.555C497.688 152.339 497.815 152.392 497.909 152.485C498.003 152.579 498.055 152.706 498.055 152.839C498.055 152.971 498.003 153.099 497.909 153.192C497.815 153.286 497.688 153.339 497.555 153.339Z" fill="#292A2E"/>
<path d="M491.816 163.2H480.86C480.728 163.2 480.601 163.148 480.507 163.054C480.413 162.96 480.36 162.833 480.36 162.7C480.36 162.568 480.413 162.44 480.507 162.347C480.601 162.253 480.728 162.2 480.86 162.2H491.816C491.949 162.2 492.076 162.253 492.17 162.347C492.264 162.44 492.316 162.568 492.316 162.7C492.316 162.833 492.264 162.96 492.17 163.054C492.076 163.148 491.949 163.2 491.816 163.2Z" fill="#292A2E"/>
<path d="M533.712 92.0504V92.2304L539.962 94.5504C540.051 94.5868 540.127 94.6491 540.181 94.7293C540.234 94.8096 540.262 94.904 540.262 95.0004V95.1704C540.263 95.2455 540.246 95.3198 540.211 95.3862C540.176 95.4527 540.125 95.5092 540.062 95.5504C539.998 95.5951 539.925 95.6231 539.848 95.6318C539.771 95.6406 539.693 95.6297 539.621 95.6004L532.562 92.8404C532.474 92.8052 532.398 92.7445 532.345 92.6662C532.291 92.5878 532.262 92.4952 532.262 92.4004V91.8904C532.261 91.7952 532.289 91.7021 532.343 91.6234C532.397 91.5448 532.473 91.4844 532.562 91.4504L539.621 88.6804C539.679 88.6607 539.74 88.6506 539.801 88.6504C539.893 88.6523 539.984 88.68 540.062 88.7304C540.125 88.7737 540.176 88.832 540.211 88.9001C540.246 88.9682 540.263 89.0439 540.262 89.1204V89.2904C540.264 89.3859 540.236 89.4796 540.182 89.5585C540.128 89.6374 540.051 89.6975 539.962 89.7304L533.712 92.0504Z" fill="#367CFF"/>
<path d="M546.101 86.6403L542.361 98.0903C542.33 98.1858 542.27 98.2692 542.189 98.3285C542.108 98.3878 542.011 98.4199 541.911 98.4203C541.838 98.4214 541.766 98.4047 541.702 98.3715C541.637 98.3384 541.582 98.2899 541.541 98.2303C541.496 98.1712 541.465 98.1025 541.452 98.0296C541.438 97.9567 541.441 97.8816 541.462 97.8103L545.201 86.3703C545.233 86.2729 545.294 86.1878 545.376 86.1269C545.459 86.066 545.558 86.0322 545.661 86.0303C545.733 86.03 545.804 86.0471 545.869 86.0802C545.933 86.1133 545.989 86.1613 546.031 86.2203C546.075 86.2794 546.105 86.3485 546.117 86.4216C546.13 86.4948 546.124 86.5698 546.101 86.6403Z" fill="#367CFF"/>
<path d="M555.284 91.8904V92.4004C555.286 92.4944 555.259 92.5866 555.207 92.6651C555.155 92.7436 555.081 92.8047 554.994 92.8404L547.924 95.6004C547.854 95.6295 547.778 95.6401 547.703 95.6314C547.628 95.6226 547.556 95.5948 547.494 95.5504C547.43 95.5097 547.378 95.4536 547.341 95.3872C547.304 95.3208 547.285 95.2463 547.284 95.1704V95.0004C547.283 94.9027 547.313 94.807 547.368 94.7265C547.424 94.646 547.503 94.5845 547.594 94.5504L553.844 92.2304V92.0504L547.594 89.7304C547.502 89.6999 547.423 89.6406 547.367 89.5615C547.311 89.4823 547.282 89.3873 547.284 89.2904V89.1204C547.285 89.0432 547.304 88.9672 547.341 88.8992C547.377 88.8312 547.43 88.7732 547.494 88.7304C547.572 88.6802 547.662 88.6525 547.754 88.6504C547.812 88.6498 547.87 88.6599 547.924 88.6804L554.994 91.4504C555.082 91.4851 555.157 91.5459 555.209 91.6247C555.261 91.7034 555.287 91.7962 555.284 91.8904Z" fill="#367CFF"/>
<path d="M413.901 0H61.6758V352.225H413.901V0Z" fill="#F4F4F4"/>
<path d="M61.6757 0H57.6387V352.225H61.6757V0Z" fill="#F4F4F4"/>
<path opacity="0.05" d="M61.6757 0H57.6387V352.225H61.6757V0Z" fill="#292A2E"/>
<path opacity="0.05" d="M147.003 242.712V150.558H222.491V204.098H339.421V298.895H389.118V352.225H339.421H329.847H78.6191V242.712H147.003Z" fill="#292A2E"/>
<path opacity="0.34" d="M212.801 160.564H157.83V170.57H212.801V160.564Z" fill="#FFFFFA"/>
<path opacity="0.34" d="M212.801 181.299H157.83V191.305H212.801V181.299Z" fill="#FFFFFA"/>
<path opacity="0.34" d="M212.801 202.032H157.83V212.038H212.801V202.032Z" fill="#FFFFFA"/>
<path opacity="0.34" d="M98.4982 252.424H88.3662V262.43H98.4982V252.424Z" fill="#FFFFFA"/>
<path opacity="0.34" d="M98.4982 273.158H88.3662V283.164H98.4982V273.158Z" fill="#FFFFFA"/>
<path opacity="0.34" d="M98.4982 293.893H88.3662V303.899H98.4982V293.893Z" fill="#FFFFFA"/>
<path opacity="0.34" d="M117.242 252.424H107.11V262.43H117.242V252.424Z" fill="#FFFFFA"/>
<path opacity="0.34" d="M117.242 273.158H107.11V283.164H117.242V273.158Z" fill="#FFFFFA"/>
<path opacity="0.34" d="M117.242 293.893H107.11V303.899H117.242V293.893Z" fill="#FFFFFA"/>
<path opacity="0.34" d="M135.481 252.424H125.349V262.43H135.481V252.424Z" fill="#FFFFFA"/>
<path opacity="0.34" d="M135.481 273.158H125.349V283.164H135.481V273.158Z" fill="#FFFFFA"/>
<path opacity="0.34" d="M135.481 293.893H125.349V303.899H135.481V293.893Z" fill="#FFFFFA"/>
<path d="M61.6758 174.137H132.55V0H138.411V174.137H329.848V0H335.709V174.137H413.901V179.998H335.709V352.225H329.848V179.998H138.411V352.225H132.55V179.998H61.6758V174.137Z" fill="white"/>
<path d="M427.933 351.8H47.6445V363.514H427.933V351.8Z" fill="#F4F4F4"/>
<path opacity="0.1" d="M427.933 351.8H47.6445V363.514H427.933V351.8Z" fill="#292A2E"/>
<path opacity="0.1" d="M47.6443 351.8H42.1533V363.514H47.6443V351.8Z" fill="#292A2E"/>
<path opacity="0.1" d="M47.6443 351.8H42.1533V363.514H47.6443V351.8Z" fill="#292A2E"/>
<path d="M57.6384 14.9961L413.9 14.9961V6.28709L57.6384 6.28709V14.9961Z" fill="white"/>
<path d="M57.6384 31.2637L413.9 31.2637V22.5547L57.6384 22.5547V31.2637Z" fill="white"/>
<path d="M57.6384 47.5312L413.9 47.5312V38.8223L57.6384 38.8223V47.5312Z" fill="white"/>
<path d="M57.6384 63.7979L413.9 63.7979V55.0889L57.6384 55.0889V63.7979Z" fill="white"/>
<path d="M57.6384 80.0645L413.9 80.0645V71.3555L57.6384 71.3555V80.0645Z" fill="white"/>
<path d="M95.4774 89.8867H100.816L100.816 -0.000282288H95.4774L95.4774 89.8867Z" fill="white"/>
<path d="M97.6944 102.796C101.745 102.796 105.029 99.512 105.029 95.461C105.029 91.41 101.745 88.126 97.6944 88.126C93.6434 88.126 90.3594 91.41 90.3594 95.461C90.3594 99.512 93.6434 102.796 97.6944 102.796Z" fill="white"/>
<path d="M60.7482 841.816L58.7842 841.438L89.4802 536.407L91.4442 536.785L60.7482 841.816Z" fill="#494949"/>
<path d="M175.046 841.816L173.082 841.438L203.777 536.407L205.741 536.785L175.046 841.816Z" fill="#494949"/>
<path d="M427.694 841.816L429.658 841.438L398.962 536.407L396.998 536.785L427.694 841.816Z" fill="#494949"/>
<path d="M313.396 841.816L315.36 841.438L284.665 536.407L282.701 536.785L313.396 841.816Z" fill="#494949"/>
<path d="M272.689 402.162L270.707 402.427L288.639 536.731L290.621 536.466L272.689 402.162Z" fill="#494949"/>
<path d="M66.8642 402.161L64.8818 402.426L82.8138 536.73L84.7962 536.465L66.8642 402.161Z" fill="#494949"/>
<path d="M290.448 526.762H89.128C83.6962 526.762 79.293 531.165 79.293 536.597V536.598C79.293 542.029 83.6962 546.433 89.128 546.433H290.448C295.88 546.433 300.283 542.029 300.283 536.598V536.597C300.283 531.165 295.88 526.762 290.448 526.762Z" fill="#292A2E"/>
<path opacity="0.8" d="M290.448 526.762H89.128C83.6962 526.762 79.293 531.165 79.293 536.597V536.598C79.293 542.029 83.6962 546.433 89.128 546.433H290.448C295.88 546.433 300.283 542.029 300.283 536.598V536.597C300.283 531.165 295.88 526.762 290.448 526.762Z" fill="white"/>
<path d="M290.448 547.432H89.1289C87.7061 547.432 86.2971 547.152 84.9826 546.607C83.668 546.062 82.4736 545.264 81.4674 544.258C80.4613 543.252 79.6632 542.058 79.1187 540.743C78.5742 539.429 78.2939 538.02 78.2939 536.597C78.2939 535.174 78.5742 533.765 79.1187 532.45C79.6632 531.136 80.4613 529.941 81.4674 528.935C82.4736 527.929 83.668 527.131 84.9826 526.586C86.2971 526.042 87.7061 525.762 89.1289 525.762H290.448C291.871 525.762 293.28 526.042 294.594 526.586C295.909 527.131 297.103 527.929 298.109 528.935C299.116 529.941 299.914 531.136 300.458 532.45C301.003 533.765 301.283 535.174 301.283 536.597C301.283 538.02 301.003 539.429 300.458 540.743C299.914 542.058 299.116 543.252 298.109 544.258C297.103 545.264 295.909 546.062 294.594 546.607C293.28 547.152 291.871 547.432 290.448 547.432ZM89.1289 527.762C87.9687 527.762 86.8199 527.99 85.7479 528.434C84.676 528.878 83.7021 529.529 82.8817 530.349C82.0613 531.17 81.4105 532.144 80.9665 533.216C80.5225 534.288 80.2939 535.437 80.2939 536.597C80.2939 537.757 80.5225 538.906 80.9665 539.978C81.4105 541.05 82.0613 542.024 82.8817 542.844C83.7021 543.664 84.676 544.315 85.7479 544.759C86.8199 545.203 87.9687 545.432 89.1289 545.432H290.448C291.608 545.432 292.757 545.203 293.829 544.759C294.901 544.315 295.875 543.664 296.695 542.844C297.516 542.024 298.166 541.05 298.61 539.978C299.054 538.906 299.283 537.757 299.283 536.597C299.283 535.437 299.054 534.288 298.61 533.216C298.166 532.144 297.516 531.17 296.695 530.349C295.875 529.529 294.901 528.878 293.829 528.434C292.757 527.99 291.608 527.762 290.448 527.762H89.1289Z" fill="#292A2E"/>
<path d="M400.944 526.762H199.624C194.192 526.762 189.789 531.165 189.789 536.597V536.598C189.789 542.029 194.192 546.433 199.624 546.433H400.944C406.376 546.433 410.779 542.029 410.779 536.598V536.597C410.779 531.165 406.376 526.762 400.944 526.762Z" fill="white"/>
<path d="M400.944 547.432H199.624C198.201 547.432 196.792 547.152 195.478 546.607C194.163 546.062 192.969 545.264 191.963 544.258C190.956 543.252 190.158 542.058 189.614 540.743C189.069 539.429 188.789 538.02 188.789 536.597C188.789 535.174 189.069 533.765 189.614 532.45C190.158 531.136 190.956 529.941 191.963 528.935C192.969 527.929 194.163 527.131 195.478 526.586C196.792 526.042 198.201 525.762 199.624 525.762H400.944C402.367 525.762 403.776 526.042 405.09 526.586C406.405 527.131 407.599 527.929 408.606 528.935C409.612 529.941 410.41 531.136 410.954 532.45C411.499 533.765 411.779 535.174 411.779 536.597C411.779 538.02 411.499 539.429 410.954 540.743C410.41 542.058 409.612 543.252 408.606 544.258C407.599 545.264 406.405 546.062 405.09 546.607C403.776 547.152 402.367 547.432 400.944 547.432ZM199.624 527.762C198.464 527.762 197.315 527.99 196.243 528.434C195.171 528.878 194.197 529.529 193.377 530.349C192.556 531.17 191.906 532.144 191.462 533.216C191.018 534.288 190.789 535.437 190.789 536.597C190.789 537.757 191.018 538.906 191.462 539.978C191.906 541.05 192.556 542.024 193.377 542.844C194.197 543.664 195.171 544.315 196.243 544.759C197.315 545.203 198.464 545.432 199.624 545.432H400.944C402.104 545.432 403.253 545.203 404.325 544.759C405.397 544.315 406.371 543.664 407.191 542.844C408.012 542.024 408.663 541.05 409.107 539.978C409.551 538.906 409.779 537.757 409.779 536.597C409.779 535.437 409.551 534.288 409.107 533.216C408.663 532.144 408.012 531.17 407.191 530.349C406.371 529.529 405.397 528.878 404.325 528.434C403.253 527.99 402.104 527.762 400.944 527.762H199.624Z" fill="#292A2E"/>
<path d="M261.661 402.292H66.4135C63.2212 402.292 60.1381 401.13 57.7395 399.024C55.341 396.917 53.7908 394.01 53.3785 390.844L40.4635 291.665C40.2221 289.811 40.3791 287.927 40.9238 286.138C41.4686 284.35 42.3886 282.698 43.6225 281.293C44.8564 279.889 46.3758 278.763 48.0792 277.992C49.7826 277.222 51.6308 276.823 53.5005 276.823H248.746C251.938 276.823 255.021 277.985 257.419 280.091C259.818 282.198 261.368 285.105 261.781 288.27L274.695 387.45C274.936 389.304 274.779 391.188 274.235 392.977C273.69 394.765 272.771 396.417 271.537 397.821C270.303 399.226 268.784 400.352 267.081 401.123C265.378 401.893 263.53 402.292 261.661 402.292Z" fill="#292A2E"/>
<path opacity="0.8" d="M261.661 402.292H66.4135C63.2212 402.292 60.1381 401.13 57.7395 399.024C55.341 396.917 53.7908 394.01 53.3785 390.844L40.4635 291.665C40.2221 289.811 40.3791 287.927 40.9238 286.138C41.4686 284.35 42.3886 282.698 43.6225 281.293C44.8564 279.889 46.3758 278.763 48.0792 277.992C49.7826 277.222 51.6308 276.823 53.5005 276.823H248.746C251.938 276.823 255.021 277.985 257.419 280.091C259.818 282.198 261.368 285.105 261.781 288.27L274.695 387.45C274.936 389.304 274.779 391.188 274.235 392.977C273.69 394.765 272.771 396.417 271.537 397.821C270.303 399.226 268.784 400.352 267.081 401.123C265.378 401.893 263.53 402.292 261.661 402.292Z" fill="white"/>
<path d="M261.66 403.292H66.4131C62.9801 403.284 59.6664 402.032 57.0868 399.766C54.5073 397.501 52.8371 394.377 52.3861 390.973L39.4721 291.794C39.2121 289.799 39.3807 287.771 39.9667 285.847C40.5528 283.922 41.5427 282.144 42.8704 280.633C44.1981 279.121 45.8331 277.91 47.6662 277.08C49.4992 276.251 51.4881 275.822 53.5001 275.822H248.745C252.178 275.83 255.492 277.083 258.071 279.348C260.651 281.614 262.321 284.738 262.771 288.141L275.686 387.321C275.946 389.316 275.777 391.344 275.191 393.268C274.605 395.193 273.616 396.97 272.288 398.482C270.961 399.993 269.326 401.204 267.493 402.034C265.66 402.863 263.672 403.292 261.66 403.292ZM53.5001 277.822C51.7729 277.822 50.0654 278.191 48.4919 278.903C46.9183 279.615 45.5148 280.655 44.375 281.953C43.2352 283.251 42.3854 284.777 41.8822 286.429C41.3791 288.082 41.2341 289.822 41.4571 291.535L54.3721 390.715C54.759 393.637 56.1929 396.32 58.4076 398.265C60.6223 400.21 63.4675 401.286 66.4151 401.292H261.66C263.387 401.292 265.094 400.923 266.667 400.21C268.241 399.498 269.644 398.458 270.783 397.16C271.923 395.863 272.772 394.337 273.275 392.684C273.778 391.032 273.923 389.292 273.7 387.579L260.788 288.4C260.401 285.478 258.967 282.796 256.752 280.851C254.538 278.906 251.693 277.83 248.745 277.823L53.5001 277.822Z" fill="#292A2E"/>
<path d="M272.7 402.292H77.4527C74.2605 402.292 71.1775 401.13 68.7791 399.024C66.3807 396.917 64.8308 394.01 64.4186 390.844L51.4996 291.665C51.2583 289.811 51.4152 287.927 51.9598 286.139C52.5044 284.35 53.4243 282.699 54.658 281.294C55.8916 279.889 57.4108 278.764 59.1139 277.993C60.8171 277.222 62.6651 276.823 64.5347 276.823H259.786C262.978 276.823 266.061 277.985 268.459 280.091C270.858 282.198 272.408 285.105 272.82 288.27L285.735 387.45C285.976 389.304 285.819 391.188 285.274 392.977C284.73 394.765 283.81 396.417 282.576 397.821C281.343 399.226 279.824 400.352 278.12 401.122C276.417 401.893 274.569 402.292 272.7 402.292Z" fill="white"/>
<path d="M272.7 403.292H77.4529C74.0199 403.284 70.7064 402.032 68.127 399.766C65.5476 397.501 63.8776 394.377 63.4269 390.973L50.5119 291.794C50.2522 289.799 50.421 287.772 51.0071 285.847C51.5932 283.923 52.5831 282.145 53.9106 280.634C55.2382 279.122 56.8729 277.911 58.7056 277.081C60.5384 276.252 62.5271 275.822 64.5389 275.822H259.785C263.218 275.83 266.532 277.083 269.111 279.348C271.691 281.614 273.361 284.738 273.812 288.141L286.727 387.321C286.986 389.316 286.818 391.344 286.231 393.268C285.645 395.192 284.655 396.97 283.328 398.481C282 399.993 280.366 401.204 278.533 402.033C276.7 402.863 274.712 403.292 272.7 403.292ZM64.5389 277.822C62.8119 277.823 61.1049 278.192 59.5318 278.905C57.9588 279.617 56.5558 280.657 55.4164 281.955C54.2771 283.253 53.4276 284.779 52.9247 286.431C52.4218 288.083 52.277 289.824 52.4999 291.536L65.4099 390.715C65.7972 393.637 67.2312 396.32 69.4458 398.265C71.6604 400.21 74.5054 401.285 77.4529 401.292H272.7C274.427 401.292 276.135 400.924 277.708 400.211C279.282 399.499 280.685 398.459 281.825 397.161C282.965 395.864 283.815 394.338 284.318 392.685C284.821 391.033 284.966 389.292 284.743 387.579L271.828 288.4C271.441 285.478 270.007 282.796 267.792 280.85C265.578 278.905 262.733 277.83 259.785 277.823L64.5389 277.822Z" fill="#292A2E"/>
<path d="M424.471 424.938L422.481 425.139L464.639 842.488L466.629 842.287L424.471 424.938Z" fill="#494949"/>
<path d="M251.66 124.563C251.66 124.563 264.633 114.77 267.848 92.2284C270.337 74.7754 254.238 86.0824 254.238 86.0824C254.238 86.0824 255.908 73.4974 246.738 74.7464C237.568 75.9954 232.438 89.2154 232.438 89.2154" fill="#0C0C0C"/>
<path d="M199.349 76.2188C199.349 76.2188 153.854 81.0998 170.301 142.744L174.327 143.014L182.499 143.562" fill="#0C0C0C"/>
<path d="M244.04 207.127C243.84 207.101 241.62 243.926 198.834 240.719C169.214 238.5 158.653 207.075 157.974 207.075C161.168 206.397 165.114 205.365 166.683 205.012C170.101 204.219 173.196 202.404 175.558 199.808C177.919 197.212 179.434 193.958 179.901 190.48C180.768 185.26 179.301 158.553 179.75 153.271L225.217 163.419C224.582 174.575 220.135 200.435 235.717 205.012C238.314 205.769 241.107 206.466 244.04 207.127Z" fill="#E98862"/>
<path opacity="0.52" d="M225.855 194.443C225.143 192.147 224.685 189.781 224.487 187.386C223.988 181.92 224.089 176.417 224.787 170.973C215.546 169.726 206.84 165.912 199.658 159.964C198.814 163.082 194.171 176.706 195.458 179.669C197.883 185.271 209.3 194.443 225.855 194.443Z" fill="#0C0C0C"/>
<path d="M216.471 187.154C198.533 185.545 177.064 174.212 176.755 149.863L176.475 127.893C176.166 103.545 188.703 83.6438 211.629 83.3518C234.554 83.0608 251.941 102.581 252.25 126.93L252.374 136.656C252.358 139.996 252.115 143.332 251.645 146.639C250.469 155.389 248.645 168.692 242.708 177.691C237.1 186.187 227.93 188.181 216.471 187.154Z" fill="#E98862"/>
<path d="M224.793 164.9C228.495 165.068 232.184 164.364 235.563 162.843C235.633 162.814 235.696 162.77 235.75 162.716C235.803 162.662 235.845 162.598 235.873 162.527C235.901 162.457 235.915 162.381 235.915 162.305C235.914 162.229 235.898 162.154 235.868 162.084C235.838 162.015 235.795 161.951 235.741 161.898C235.687 161.845 235.622 161.803 235.552 161.775C235.481 161.746 235.406 161.732 235.33 161.733C235.254 161.734 235.179 161.75 235.109 161.779C227.829 164.884 221.218 164.429 215.992 160.464C215.887 160.381 215.777 160.303 215.663 160.231C215.532 160.171 215.383 160.161 215.245 160.205C215.107 160.249 214.99 160.343 214.918 160.468C214.846 160.594 214.823 160.742 214.855 160.883C214.886 161.024 214.97 161.148 215.088 161.231C215.13 161.257 215.197 161.31 215.288 161.383C218.036 163.476 221.345 164.7 224.793 164.9Z" fill="#0C0C0C"/>
<path d="M224.621 170.383C225.289 170.424 225.96 170.408 226.627 170.335C226.779 170.319 226.919 170.243 227.015 170.124C227.112 170.004 227.157 169.852 227.141 169.699C227.124 169.547 227.048 169.407 226.929 169.311C226.81 169.214 226.657 169.169 226.505 169.185C222.498 169.611 220.586 167.775 220.505 167.696C220.396 167.588 220.249 167.527 220.096 167.526C219.942 167.526 219.795 167.587 219.687 167.695C219.578 167.804 219.517 167.951 219.517 168.104C219.516 168.257 219.577 168.405 219.686 168.513C221.065 169.688 222.809 170.349 224.621 170.383Z" fill="#0C0C0C"/>
<path d="M244.679 141.338C246.239 141.338 247.503 140.074 247.503 138.514C247.503 136.955 246.239 135.69 244.679 135.69C243.12 135.69 241.855 136.955 241.855 138.514C241.855 140.074 243.12 141.338 244.679 141.338Z" fill="#0C0C0C"/>
<path d="M217.092 139.607C218.651 139.607 219.916 138.343 219.916 136.783C219.916 135.223 218.651 133.959 217.092 133.959C215.532 133.959 214.268 135.223 214.268 136.783C214.268 138.343 215.532 139.607 217.092 139.607Z" fill="#0C0C0C"/>
<path d="M178.274 157.263C171.307 157.352 165.565 149.97 165.474 143.003C165.383 136.036 170.984 132.122 177.951 132.034L181.6 136.656L184.262 157.187L178.274 157.263Z" fill="#E98862"/>
<path d="M185.201 146.069C185.201 146.069 187.554 111.616 198.001 109.488C204.959 108.071 221.832 117.941 237.46 114.96C244.298 113.66 250.789 115.348 251.449 118.578C251.71 119.857 255.97 101.478 245.263 87.5336C236.738 76.4286 208.84 73.2936 196.148 76.9336C161.005 87.0156 176.513 133.551 176.513 133.551L178.08 145.429L185.201 146.069Z" fill="#0C0C0C"/>
<path d="M229 156.768H229.045C231.29 156.745 235.053 156.457 235.038 154.777C235.023 153.385 231.063 138.402 230.61 136.698C230.567 136.556 230.471 136.437 230.341 136.365C230.212 136.293 230.06 136.274 229.917 136.312C229.774 136.35 229.651 136.442 229.574 136.568C229.498 136.695 229.473 136.846 229.505 136.991C231.264 143.627 233.884 153.843 233.895 154.791C233.678 155.191 231.359 155.603 229.034 155.627C228.888 155.63 228.748 155.689 228.644 155.792C228.54 155.896 228.479 156.035 228.475 156.181C228.47 156.328 228.523 156.471 228.62 156.58C228.718 156.689 228.854 156.757 229 156.769V156.768Z" fill="#0C0C0C"/>
<path d="M236.665 123.201C239.025 122.552 241.516 122.552 243.875 123.201C245.034 123.512 246.14 123.997 247.155 124.637C248.159 125.264 249.079 126.015 249.894 126.873C250.05 127.024 250.141 127.231 250.147 127.448C250.153 127.666 250.073 127.877 249.925 128.036C249.777 128.196 249.573 128.291 249.356 128.302C249.139 128.312 248.926 128.237 248.763 128.093L248.712 128.049C247.957 127.35 247.117 126.749 246.212 126.26C245.324 125.774 244.368 125.424 243.375 125.224C241.421 124.814 239.394 124.928 237.498 125.553L237.418 125.581C237.105 125.692 236.761 125.673 236.462 125.53C236.162 125.387 235.932 125.131 235.822 124.818C235.711 124.506 235.729 124.162 235.872 123.862C236.015 123.563 236.271 123.333 236.584 123.222L236.665 123.201Z" fill="#0C0C0C"/>
<path d="M219.957 124.62C218.162 123.747 216.168 123.365 214.177 123.511C213.167 123.577 212.172 123.795 211.227 124.159C210.267 124.524 209.356 125.008 208.515 125.599L208.461 125.635C208.281 125.751 208.063 125.792 207.853 125.751C207.642 125.71 207.456 125.59 207.332 125.415C207.208 125.24 207.156 125.025 207.188 124.813C207.219 124.601 207.33 124.409 207.499 124.277C208.422 123.535 209.434 122.913 210.512 122.425C211.604 121.926 212.764 121.594 213.954 121.439C216.379 121.108 218.849 121.439 221.101 122.397C221.406 122.53 221.646 122.778 221.768 123.087C221.89 123.397 221.884 123.742 221.751 124.047C221.619 124.352 221.37 124.592 221.061 124.714C220.751 124.836 220.406 124.83 220.101 124.697L220.032 124.664L219.957 124.62Z" fill="#0C0C0C"/>
<path d="M233.307 99.4839C238.464 98.4065 241.359 91.38 239.773 83.7898C238.187 76.1996 232.721 70.92 227.564 71.9974C222.407 73.0748 219.512 80.1013 221.098 87.6915C222.684 95.2817 228.15 100.561 233.307 99.4839Z" fill="#0C0C0C"/>
<path d="M520.922 789.738C520.922 789.738 526.284 817.531 552.306 819.08C578.328 820.629 572.686 841.36 572.686 841.36H473.242V791.676L520.922 789.738Z" fill="#367CFF"/>
<path d="M331.734 772.191C331.734 772.191 324.277 799.497 346.944 812.373C369.611 825.249 355.396 841.361 355.396 841.361L266.164 797.461L288.095 752.879L331.734 772.191Z" fill="#367CFF"/>
<path d="M276.467 764.478L351.716 527.088H215.316C187.916 527.088 176.494 503.853 176.494 476.455C176.494 449.057 203.43 425.039 230.828 425.039H414.918C431.629 425.039 450.367 435.259 459.539 449.229C468.711 463.199 466.231 484.846 459.586 500.18L339.086 792.846" fill="#262626"/>
<path opacity="0.8" d="M276.467 764.478L351.716 527.088H215.316C187.916 527.088 176.494 503.853 176.494 476.455C176.494 449.057 203.43 425.039 230.828 425.039H414.918C431.629 425.039 450.367 435.259 459.539 449.229C468.711 463.199 466.231 484.846 459.586 500.18L339.086 792.846" fill="#0A0A0A"/>
<path d="M467.523 815.55L341.701 527.088L176.492 527.077C137.781 524.042 120.052 502.827 120.616 475.435C121.172 448.39 134.866 421.677 161.789 421.677H384.461C404.381 422.086 420.053 444.1 427.443 462.602L532.043 797.89" fill="#262626"/>
<path d="M109.348 422.008C109.348 422.008 102.011 469.854 113.641 496.455C128.16 529.665 182.588 527.077 182.588 527.077L179.521 421.677L109.348 422.008Z" fill="#262626"/>
<path d="M432.176 421.068L315.476 396.886C310.613 395.878 306.083 393.66 302.305 390.437C298.527 387.214 295.622 383.091 293.86 378.448L247.96 257.495C246.563 253.865 245.896 249.994 245.999 246.106C246.101 242.217 246.971 238.387 248.558 234.836C250.145 231.285 252.418 228.082 255.247 225.412C258.075 222.742 261.403 220.657 265.04 219.277C268.677 217.897 272.55 217.249 276.438 217.37C280.326 217.491 284.152 218.379 287.695 219.984C291.239 221.588 294.431 223.876 297.087 226.718C299.744 229.559 301.813 232.897 303.175 236.541L343.327 342.341L444.162 363.235C444.162 363.235 434.2 421.487 432.176 421.068Z" fill="#367CFF"/>
<path d="M297.2 288.209C295.853 304.042 286.3 402.819 285 422.321H109.424C108.415 404.732 105.14 330.055 101.314 295.66C97.6635 262.838 96.3385 244.108 100.544 233.909C107.962 215.919 126.525 209.446 142.515 207.281C152.278 205.96 166.963 205.012 166.963 205.012C166.963 205.012 168.207 230.165 197.855 231.565C238.214 233.465 235.519 205.012 235.719 205.012C242.257 205.012 277.847 209.767 286.746 215.567C299.316 223.76 303.03 234.924 303.177 245.181C303.346 256.992 298.728 270.253 297.2 288.209Z" fill="#367CFF"/>
<path d="M290.301 368.921H290.259C290.193 368.915 290.129 368.897 290.071 368.867C290.012 368.837 289.961 368.796 289.918 368.746C289.876 368.695 289.844 368.637 289.824 368.575C289.804 368.512 289.796 368.446 289.802 368.381L294.36 313.627C294.363 313.561 294.38 313.496 294.41 313.437C294.439 313.378 294.48 313.325 294.531 313.283C294.581 313.24 294.64 313.208 294.703 313.188C294.766 313.169 294.833 313.163 294.899 313.17C294.964 313.175 295.028 313.194 295.086 313.224C295.145 313.254 295.197 313.295 295.239 313.345C295.281 313.395 295.314 313.453 295.334 313.516C295.354 313.578 295.361 313.644 295.356 313.71L290.798 368.464C290.787 368.588 290.73 368.704 290.638 368.789C290.546 368.873 290.426 368.921 290.301 368.921Z" fill="#0C0C0C"/>
<path d="M373.919 401.783L412.443 283.359C413.12 281.278 414.438 279.465 416.209 278.179C417.979 276.893 420.112 276.2 422.3 276.2H589.252C590.888 276.2 592.501 276.587 593.959 277.33C595.417 278.073 596.678 279.15 597.639 280.474C598.601 281.798 599.235 283.331 599.491 284.947C599.746 286.563 599.615 288.216 599.109 289.772L550.585 408.2C549.908 410.281 548.59 412.094 546.819 413.38C545.049 414.666 542.916 415.359 540.728 415.359H383.776C382.14 415.359 380.526 414.972 379.068 414.229C377.61 413.486 376.348 412.408 375.387 411.084C374.425 409.76 373.791 408.226 373.536 406.61C373.281 404.993 373.412 403.339 373.919 401.783Z" fill="#292A2E"/>
<path d="M373.919 401.783L412.443 283.359C413.12 281.278 414.438 279.465 416.209 278.179C417.979 276.893 420.112 276.2 422.3 276.2H589.252C590.888 276.2 592.501 276.587 593.959 277.33C595.417 278.073 596.678 279.15 597.639 280.474C598.601 281.798 599.235 283.331 599.491 284.947C599.746 286.563 599.615 288.216 599.109 289.772L550.585 408.2C549.908 410.281 548.59 412.094 546.819 413.38C545.049 414.666 542.916 415.359 540.728 415.359H383.776C382.14 415.359 380.526 414.972 379.068 414.229C377.61 413.486 376.348 412.408 375.387 411.084C374.425 409.76 373.791 408.226 373.536 406.61C373.281 404.993 373.412 403.339 373.919 401.783Z" fill="#292A2E"/>
<path d="M405.345 405.752H300.281C297.663 405.752 295.541 407.874 295.541 410.492V410.614C295.541 413.232 297.663 415.354 300.281 415.354H405.345C407.963 415.354 410.085 413.232 410.085 410.614V410.492C410.085 407.874 407.963 405.752 405.345 405.752Z" fill="#292A2E"/>
<path d="M405.345 405.752H300.281C297.663 405.752 295.541 407.874 295.541 410.492V410.614C295.541 413.232 297.663 415.354 300.281 415.354H405.345C407.963 415.354 410.085 413.232 410.085 410.614V410.492C410.085 407.874 407.963 405.752 405.345 405.752Z" fill="#292A2E"/>
<path d="M481.514 368.016C490.605 368.016 497.975 360.646 497.975 351.555C497.975 342.464 490.605 335.094 481.514 335.094C472.423 335.094 465.053 342.464 465.053 351.555C465.053 360.646 472.423 368.016 481.514 368.016Z" fill="white"/>
<path d="M365.137 374.043L338.916 364.852L342.68 364.592C343.894 364.484 345.021 363.919 345.834 363.011C346.647 362.104 347.085 360.922 347.06 359.704C347.025 359.076 346.863 358.461 346.583 357.898C346.302 357.335 345.911 356.834 345.431 356.428C344.951 356.021 344.393 355.716 343.792 355.532C343.19 355.348 342.557 355.288 341.932 355.357L295.541 360.287L296.741 375.195C297.115 379.825 298.864 384.238 301.763 387.868C304.662 391.498 308.578 394.179 313.011 395.569L333.101 401.827C334.139 402.172 335.264 402.149 336.286 401.76C337.308 401.371 338.164 400.641 338.71 399.694C339.184 398.828 339.37 397.832 339.239 396.854C339.108 395.875 338.667 394.964 337.982 394.253C338.026 394.221 338.064 394.181 338.092 394.134C338.121 394.088 338.139 394.036 338.147 393.982C338.154 393.928 338.151 393.873 338.136 393.821C338.122 393.768 338.097 393.719 338.063 393.677L341.763 394.838C342.918 395.226 344.177 395.16 345.286 394.656C346.394 394.151 347.27 393.243 347.735 392.118C348.116 391.097 348.124 389.974 347.758 388.948C347.392 387.921 346.676 387.057 345.735 386.507C345.779 386.483 345.817 386.452 345.849 386.415L347.371 386.892C348.409 387.237 349.534 387.214 350.556 386.825C351.578 386.436 352.435 385.706 352.98 384.758C353.555 383.707 353.701 382.475 353.388 381.319C353.075 380.164 352.327 379.174 351.3 378.558C351.309 378.527 351.313 378.495 351.314 378.464L362.234 382.291C362.777 382.487 363.353 382.574 363.93 382.546C364.507 382.519 365.072 382.377 365.594 382.129C366.115 381.882 366.583 381.533 366.969 381.104C367.355 380.674 367.652 380.173 367.843 379.628C368.033 379.083 368.114 378.506 368.081 377.929C368.047 377.353 367.9 376.789 367.647 376.27C367.394 375.751 367.041 375.287 366.608 374.906C366.174 374.524 365.67 374.232 365.123 374.047L365.137 374.043Z" fill="#E98862"/>
<path opacity="0.2" d="M350.9 378.886C350.849 378.886 350.799 378.877 350.751 378.86L340.189 375.019C340.08 374.98 339.992 374.898 339.944 374.794C339.895 374.689 339.89 374.569 339.93 374.46C339.97 374.352 340.051 374.264 340.156 374.215C340.261 374.167 340.381 374.162 340.489 374.201L351.052 378.042C351.148 378.077 351.229 378.145 351.28 378.234C351.332 378.322 351.35 378.426 351.332 378.527C351.314 378.628 351.262 378.719 351.183 378.785C351.105 378.851 351.005 378.887 350.903 378.886H350.9Z" fill="#0A0A0A"/>
<path opacity="0.2" d="M345.559 386.566C345.51 386.566 345.46 386.557 345.413 386.541L337.089 383.587C337.033 383.569 336.983 383.54 336.939 383.502C336.895 383.464 336.859 383.417 336.834 383.365C336.808 383.313 336.793 383.257 336.79 383.199C336.786 383.141 336.795 383.083 336.814 383.028C336.833 382.974 336.863 382.923 336.902 382.88C336.941 382.838 336.989 382.803 337.041 382.779C337.094 382.754 337.151 382.741 337.209 382.739C337.267 382.736 337.324 382.746 337.378 382.767L345.705 385.721C345.801 385.755 345.883 385.822 345.934 385.911C345.986 385.999 346.005 386.103 345.988 386.204C345.971 386.305 345.918 386.397 345.84 386.463C345.761 386.529 345.662 386.566 345.559 386.566Z" fill="#0A0A0A"/>
<path opacity="0.2" d="M337.719 394.359C337.667 394.358 337.614 394.348 337.564 394.33L333.664 392.843C333.557 392.801 333.47 392.719 333.423 392.614C333.376 392.508 333.372 392.389 333.413 392.281C333.455 392.173 333.537 392.086 333.643 392.039C333.748 391.992 333.868 391.988 333.975 392.03L337.875 393.517C337.971 393.553 338.051 393.621 338.101 393.71C338.151 393.799 338.168 393.902 338.15 394.002C338.131 394.103 338.078 394.193 338 394.258C337.921 394.324 337.822 394.359 337.72 394.359H337.719Z" fill="#0A0A0A"/>
<path d="M316.075 351.463L206.075 351.389L164.461 249.877L102.383 275.977L154.301 396.456L154.808 397.656C157.348 403.512 161.627 408.446 167.064 411.789C172.502 415.132 178.836 416.723 185.208 416.347L317.736 408.518L316.075 351.463Z" fill="#367CFF"/>
<path d="M183.387 416.9C177.22 416.889 171.19 415.082 166.033 411.7C160.877 408.317 156.818 403.506 154.352 397.854L153.844 396.654L109.601 294L110.519 293.6L155.269 397.461C157.78 403.214 161.992 408.059 167.339 411.346C172.686 414.634 178.912 416.204 185.179 415.848L317.222 408.048L315.586 351.965L205.738 351.891L173.738 273.838L174.664 273.46L206.407 350.891L316.557 350.966L318.25 408.989L317.765 409.018L185.241 416.845C184.622 416.882 184.001 416.9 183.387 416.9Z" fill="#0C0C0C"/>
<path d="M61.0351 424.944L18.8486 842.29L20.8385 842.491L63.0249 425.145L61.0351 424.944Z" fill="#494949"/>
<path d="M235.333 424.944L193.146 842.29L195.136 842.491L237.323 425.145L235.333 424.944Z" fill="#494949"/>
<path d="M598.768 424.938L596.778 425.139L638.936 842.488L640.925 842.287L598.768 424.938Z" fill="#494949"/>
<path d="M636.784 416.846H25.7809C21.2555 416.846 17.5869 420.514 17.5869 425.039C17.5869 429.564 21.2555 433.233 25.7809 433.233H636.784C641.309 433.233 644.978 429.564 644.978 425.039C644.978 420.514 641.309 416.846 636.784 416.846Z" fill="#292A2E"/>
<path opacity="0.8" d="M636.784 416.846H25.7809C21.2555 416.846 17.5869 420.514 17.5869 425.039C17.5869 429.564 21.2555 433.233 25.7809 433.233H636.784C641.309 433.233 644.978 429.564 644.978 425.039C644.978 420.514 641.309 416.846 636.784 416.846Z" fill="white"/>
<path d="M636.785 434.232H25.785C24.5696 434.245 23.3638 434.016 22.2373 433.56C21.1107 433.104 20.0859 432.429 19.222 431.574C18.3581 430.719 17.6722 429.701 17.2042 428.579C16.7361 427.458 16.4951 426.254 16.4951 425.039C16.4951 423.823 16.7361 422.62 17.2042 421.498C17.6722 420.377 18.3581 419.359 19.222 418.504C20.0859 417.649 21.1107 416.974 22.2373 416.517C23.3638 416.061 24.5696 415.833 25.785 415.845H636.785C638 415.833 639.206 416.061 640.333 416.517C641.459 416.974 642.484 417.649 643.348 418.504C644.212 419.359 644.898 420.377 645.366 421.498C645.834 422.62 646.075 423.823 646.075 425.039C646.075 426.254 645.834 427.458 645.366 428.579C644.898 429.701 644.212 430.719 643.348 431.574C642.484 432.429 641.459 433.104 640.333 433.56C639.206 434.016 638 434.245 636.785 434.232ZM25.785 417.845C24.8332 417.834 23.8886 418.012 23.006 418.368C22.1234 418.725 21.3204 419.253 20.6433 419.922C19.9663 420.591 19.4288 421.388 19.0619 422.266C18.6951 423.144 18.5062 424.087 18.5062 425.039C18.5062 425.991 18.6951 426.933 19.0619 427.811C19.4288 428.69 19.9663 429.486 20.6433 430.156C21.3204 430.825 22.1234 431.353 23.006 431.709C23.8886 432.066 24.8332 432.243 25.785 432.232H636.785C637.737 432.243 638.681 432.066 639.564 431.709C640.447 431.353 641.25 430.825 641.927 430.156C642.604 429.486 643.141 428.69 643.508 427.811C643.875 426.933 644.064 425.991 644.064 425.039C644.064 424.087 643.875 423.144 643.508 422.266C643.141 421.388 642.604 420.591 641.927 419.922C641.25 419.253 640.447 418.725 639.564 418.368C638.681 418.012 637.737 417.834 636.785 417.845H25.785Z" fill="#292A2E"/>
<path d="M636.784 416.846H206.742C202.216 416.846 198.548 420.514 198.548 425.039C198.548 429.564 202.216 433.233 206.742 433.233H636.784C641.309 433.233 644.978 429.564 644.978 425.039C644.978 420.514 641.309 416.846 636.784 416.846Z" fill="white"/>
<path d="M636.785 434.232H206.742C204.32 434.207 202.006 433.227 200.303 431.506C198.599 429.784 197.644 427.461 197.644 425.039C197.644 422.617 198.599 420.293 200.303 418.572C202.006 416.85 204.32 415.87 206.742 415.845H636.785C638 415.833 639.206 416.061 640.332 416.517C641.459 416.974 642.484 417.649 643.348 418.504C644.212 419.359 644.897 420.377 645.366 421.498C645.834 422.62 646.075 423.823 646.075 425.039C646.075 426.254 645.834 427.458 645.366 428.579C644.897 429.701 644.212 430.719 643.348 431.574C642.484 432.429 641.459 433.104 640.332 433.56C639.206 434.016 638 434.245 636.785 434.232ZM206.742 417.845C204.849 417.868 203.04 418.635 201.71 419.982C200.379 421.329 199.632 423.145 199.632 425.039C199.632 426.932 200.379 428.749 201.71 430.096C203.04 431.442 204.849 432.21 206.742 432.232H636.785C637.736 432.243 638.681 432.066 639.564 431.709C640.446 431.353 641.249 430.825 641.926 430.156C642.603 429.486 643.141 428.69 643.508 427.811C643.875 426.933 644.064 425.991 644.064 425.039C644.064 424.087 643.875 423.144 643.508 422.266C643.141 421.388 642.603 420.591 641.926 419.922C641.249 419.253 640.446 418.725 639.564 418.368C638.681 418.012 637.736 417.834 636.785 417.845H206.742Z" fill="#292A2E"/>
<path d="M653.265 709.44C653.134 709.441 653.004 709.415 652.882 709.365C652.761 709.314 652.651 709.241 652.558 709.147C651.149 707.739 648.852 681.889 642.666 604.924C640.135 573.432 637.744 543.686 635.999 525.609C635.875 524.318 635.374 524.168 635.21 524.119C632.821 523.398 625.558 529.125 621.503 534.141C621.336 534.348 621.094 534.479 620.83 534.507C620.567 534.535 620.302 534.457 620.096 534.29C619.89 534.124 619.758 533.882 619.73 533.618C619.702 533.354 619.78 533.09 619.947 532.883C622.629 529.567 631.369 520.874 635.785 522.203C636.675 522.471 637.785 523.245 637.99 525.417C639.737 543.51 642.128 573.264 644.66 604.764C648.419 651.534 652.677 704.52 654.077 707.857C654.184 708.007 654.248 708.183 654.262 708.366C654.275 708.55 654.238 708.733 654.154 708.897C654.07 709.06 653.943 709.198 653.786 709.294C653.629 709.39 653.449 709.44 653.265 709.44Z" fill="#494949"/>
<path d="M633.43 558.781C650.024 545.479 655.524 524.776 645.714 512.539C635.905 500.301 614.501 501.163 597.907 514.465C581.313 527.766 575.813 548.469 585.623 560.707C595.432 572.944 616.836 572.082 633.43 558.781Z" fill="#0CBC8B"/>
<path opacity="0.2" d="M633.43 558.781C650.024 545.479 655.524 524.776 645.714 512.539C635.905 500.301 614.501 501.163 597.907 514.465C581.313 527.766 575.813 548.469 585.623 560.707C595.432 572.944 616.836 572.082 633.43 558.781Z" fill="white"/>
<path d="M590.275 563.819C590.18 563.819 590.088 563.792 590.007 563.741C589.927 563.69 589.863 563.617 589.823 563.532C589.783 563.446 589.767 563.35 589.779 563.256C589.791 563.162 589.83 563.073 589.89 563L637.181 505.971C637.266 505.869 637.388 505.804 637.52 505.792C637.652 505.78 637.784 505.821 637.886 505.905C637.988 505.99 638.052 506.112 638.065 506.244C638.077 506.376 638.036 506.508 637.951 506.61L590.66 563.639C590.613 563.695 590.554 563.741 590.488 563.772C590.421 563.803 590.349 563.819 590.275 563.819Z" fill="white"/>
<path d="M663.579 697.216C663.42 697.216 663.262 697.177 663.121 697.104C662.979 697.031 662.857 696.925 662.764 696.795C662.672 696.665 662.612 696.514 662.59 696.356C662.567 696.198 662.583 696.037 662.635 695.887L680.4 644.801C680.923 643.3 681.815 641.954 682.992 640.887C684.17 639.819 685.597 639.065 687.142 638.692C688.687 638.319 690.301 638.34 691.836 638.752C693.371 639.165 694.778 639.955 695.928 641.053L705.32 650.024C705.512 650.207 705.623 650.459 705.629 650.724C705.636 650.989 705.536 651.246 705.353 651.438C705.169 651.63 704.917 651.741 704.652 651.747C704.387 651.753 704.13 651.654 703.938 651.471L694.547 642.499C693.639 641.632 692.528 641.008 691.317 640.682C690.105 640.357 688.831 640.34 687.611 640.635C686.391 640.929 685.265 641.525 684.335 642.368C683.405 643.21 682.701 644.273 682.288 645.458L664.525 696.545C664.457 696.741 664.329 696.911 664.159 697.031C663.99 697.151 663.787 697.216 663.579 697.216Z" fill="#494949"/>
<path d="M731.556 678.307C743.854 668.573 743.123 647.164 729.924 630.489C716.725 613.814 696.056 608.187 683.758 617.921C671.461 627.655 672.192 649.064 685.391 665.739C698.59 682.414 719.259 688.041 731.556 678.307Z" fill="#0CBC8B"/>
<path d="M645.2 706.182C644.976 706.182 644.758 706.107 644.581 705.967C644.405 705.828 644.281 705.634 644.228 705.415L614.412 580.77C614.208 579.921 613.774 579.144 613.158 578.526C612.541 577.907 611.766 577.47 610.917 577.264C610.068 577.057 609.179 577.088 608.347 577.354C607.515 577.62 606.772 578.11 606.2 578.77L597.01 589.39C596.925 589.491 596.82 589.574 596.703 589.634C596.585 589.694 596.456 589.73 596.325 589.74C596.193 589.75 596.06 589.734 595.935 589.693C595.809 589.652 595.693 589.586 595.594 589.499C595.494 589.413 595.412 589.307 595.353 589.189C595.294 589.071 595.259 588.942 595.25 588.81C595.241 588.678 595.259 588.546 595.301 588.421C595.344 588.296 595.411 588.18 595.498 588.081L604.687 577.462C605.5 576.523 606.556 575.826 607.739 575.449C608.922 575.071 610.186 575.027 611.393 575.321C612.599 575.616 613.701 576.237 614.577 577.117C615.453 577.998 616.07 579.102 616.358 580.31L646.168 704.954C646.229 705.212 646.184 705.482 646.046 705.707C645.907 705.932 645.685 706.093 645.428 706.154C645.354 706.173 645.277 706.182 645.2 706.182Z" fill="#494949"/>
<path d="M634.2 617.08C637.824 596.124 628.233 576.97 612.779 574.297C597.324 571.625 581.858 586.446 578.234 607.402C574.611 628.358 584.201 647.512 599.656 650.185C615.11 652.857 630.576 638.036 634.2 617.08Z" fill="#0CBC8B"/>
<path d="M653.266 709.44C653.225 709.44 653.184 709.438 653.143 709.433C653.013 709.417 652.887 709.376 652.772 709.311C652.658 709.246 652.558 709.16 652.477 709.056C652.396 708.953 652.336 708.834 652.301 708.708C652.266 708.581 652.256 708.449 652.272 708.318L671.308 553.761C671.516 552.078 672.205 550.49 673.293 549.188C674.381 547.887 675.822 546.928 677.443 546.426C679.063 545.924 680.794 545.9 682.428 546.358C684.061 546.817 685.527 547.737 686.65 549.008L708.408 573.651C708.584 573.85 708.673 574.111 708.657 574.376C708.64 574.64 708.519 574.888 708.32 575.063C708.121 575.239 707.861 575.328 707.596 575.312C707.331 575.295 707.084 575.174 706.908 574.975L685.15 550.332C684.282 549.349 683.149 548.638 681.887 548.284C680.624 547.93 679.287 547.948 678.034 548.336C676.782 548.724 675.668 549.465 674.827 550.471C673.986 551.477 673.453 552.704 673.293 554.005L654.258 708.562C654.228 708.804 654.111 709.027 653.928 709.189C653.746 709.351 653.51 709.44 653.266 709.44Z" fill="#494949"/>
<path d="M730.725 587.346C738.316 573.622 729.384 554.152 710.775 543.858C692.165 533.564 670.925 536.345 663.333 550.069C655.742 563.793 664.674 583.264 683.283 593.558C701.893 603.851 723.133 601.071 730.725 587.346Z" fill="#0CBC8B"/>
<path opacity="0.2" d="M731.556 678.307C743.854 668.573 743.123 647.164 729.924 630.489C716.725 613.814 696.056 608.187 683.758 617.921C671.461 627.655 672.192 649.064 685.391 665.739C698.59 682.414 719.259 688.041 731.556 678.307Z" fill="white"/>
<path opacity="0.5" d="M634.2 617.08C637.824 596.124 628.233 576.97 612.779 574.297C597.324 571.625 581.858 586.446 578.234 607.402C574.611 628.358 584.201 647.512 599.656 650.185C615.11 652.857 630.576 638.036 634.2 617.08Z" fill="white"/>
<path opacity="0.5" d="M730.725 587.346C738.316 573.622 729.384 554.152 710.775 543.858C692.165 533.564 670.925 536.345 663.333 550.069C655.742 563.793 664.674 583.264 683.283 593.558C701.893 603.851 723.133 601.071 730.725 587.346Z" fill="white"/>
<path d="M677.614 840.582H628.918L620.848 684.778H685.683L677.614 840.582Z" fill="#292A2E"/>
<path opacity="0.3" d="M677.614 840.582H628.918L620.848 684.778H685.683L677.614 840.582Z" fill="white"/>
<path d="M731.558 678.801C731.482 678.801 731.408 678.783 731.34 678.751C731.272 678.718 731.213 678.67 731.166 678.611L683.366 618.225C683.284 618.121 683.246 617.988 683.261 617.857C683.276 617.725 683.343 617.604 683.447 617.522C683.551 617.44 683.684 617.402 683.816 617.417C683.947 617.433 684.068 617.5 684.15 617.604L731.95 677.99C732.008 678.063 732.045 678.152 732.055 678.246C732.066 678.339 732.05 678.434 732.009 678.518C731.968 678.603 731.904 678.674 731.824 678.724C731.744 678.774 731.652 678.801 731.558 678.801Z" fill="white"/>
<path d="M727.545 592.184C727.439 592.183 727.335 592.148 727.25 592.084L666.084 547.422C665.977 547.344 665.905 547.226 665.885 547.095C665.864 546.964 665.897 546.83 665.975 546.723C666.053 546.616 666.171 546.544 666.302 546.524C666.433 546.503 666.567 546.536 666.674 546.614L727.84 591.277C727.924 591.34 727.986 591.428 728.017 591.528C728.049 591.628 728.048 591.735 728.015 591.835C727.981 591.935 727.918 592.021 727.833 592.082C727.747 592.144 727.645 592.177 727.54 592.177L727.545 592.184Z" fill="white"/>
<path d="M597.171 649.534C597.127 649.534 597.084 649.528 597.042 649.516C596.914 649.481 596.805 649.398 596.738 649.283C596.672 649.169 596.654 649.033 596.688 648.905L616.159 575.952C616.196 575.827 616.28 575.721 616.393 575.658C616.507 575.594 616.641 575.577 616.766 575.611C616.892 575.644 617 575.725 617.067 575.837C617.134 575.949 617.154 576.082 617.125 576.209L597.654 649.162C597.625 649.268 597.563 649.363 597.475 649.43C597.388 649.497 597.281 649.534 597.171 649.534Z" fill="white"/>
<path d="M701.122 841.986H0.7C0.514348 841.986 0.336301 841.912 0.205025 841.781C0.0737498 841.65 0 841.472 0 841.286C0 841.1 0.0737498 840.922 0.205025 840.791C0.336301 840.66 0.514348 840.586 0.7 840.586H701.12C701.306 840.586 701.484 840.66 701.615 840.791C701.746 840.922 701.82 841.1 701.82 841.286C701.82 841.472 701.746 841.65 701.615 841.781C701.484 841.912 701.306 841.986 701.12 841.986H701.122Z" fill="#292A2E"/>
<g opacity="0.65">
<path d="M701.122 841.986H0.7C0.514348 841.986 0.336301 841.912 0.205025 841.781C0.0737498 841.65 0 841.472 0 841.286C0 841.1 0.0737498 840.922 0.205025 840.791C0.336301 840.66 0.514348 840.586 0.7 840.586H701.12C701.306 840.586 701.484 840.66 701.615 840.791C701.746 840.922 701.82 841.1 701.82 841.286C701.82 841.472 701.746 841.65 701.615 841.781C701.484 841.912 701.306 841.986 701.12 841.986H701.122Z" fill="#292A2E"/>
</g>
</g>
<defs>
<clipPath id="clip0_383_1776">
<rect width="740.323" height="842.489" fill="white"/>
</clipPath>
</defs>
</svg>
