<svg width="20" height="20" viewBox="0 0 20 20" fill="none" xmlns="http://www.w3.org/2000/svg">
<path id="Vector" d="M9.50959 0.0996191L0.760617 3.84999C0.213806 4.08438 -0.0908452 4.67038 0.0302343 5.24856C0.151314 5.82674 0.659067 6.24866 1.25275 6.24866V6.56119C1.25275 7.08077 1.67067 7.49878 2.19014 7.49878H17.8133C18.3328 7.49878 18.7507 7.08077 18.7507 6.56119V6.24866C19.3444 6.24866 19.856 5.83065 19.9732 5.24856C20.0904 4.66647 19.7857 4.08048 19.2428 3.84999L10.4938 0.0996191C10.1814 -0.0332064 9.82205 -0.0332064 9.50959 0.0996191ZM5.00231 8.7489H2.5026V16.4176C2.47917 16.4293 2.45573 16.445 2.4323 16.4606L0.557516 17.7107C0.100539 18.0154 -0.106468 18.5858 0.053669 19.1132C0.213806 19.6406 0.70203 20 1.25275 20H18.7507C19.3014 20 19.7857 19.6406 19.9459 19.1132C20.106 18.5858 19.9029 18.0154 19.442 17.7107L17.5672 16.4606C17.5438 16.445 17.5204 16.4332 17.4969 16.4176V8.7489H15.0011V16.2496H13.4388V8.7489H10.9391V16.2496H9.06433V8.7489H6.56462V16.2496H5.00231V8.7489ZM10.0017 2.49829C10.3332 2.49829 10.6511 2.63 10.8855 2.86444C11.1199 3.09889 11.2516 3.41686 11.2516 3.74841C11.2516 4.07997 11.1199 4.39794 10.8855 4.63238C10.6511 4.86683 10.3332 4.99853 10.0017 4.99853C9.67024 4.99853 9.35233 4.86683 9.11794 4.63238C8.88355 4.39794 8.75187 4.07997 8.75187 3.74841C8.75187 3.41686 8.88355 3.09889 9.11794 2.86444C9.35233 2.63 9.67024 2.49829 10.0017 2.49829Z" fill="#5C5C5C"/>
</svg>
