<svg width="789" height="776" viewBox="0 0 789 776" fill="none" xmlns="http://www.w3.org/2000/svg">
<g clip-path="url(#clip0_383_2190)">
<path d="M316.628 614.4H306.375C305.56 614.401 304.765 614.149 304.1 613.678C303.434 613.207 302.932 612.541 302.662 611.772C301.877 609.519 300.949 607.318 299.882 605.183C299.514 604.444 299.389 603.609 299.523 602.794C299.657 601.98 300.044 601.229 300.629 600.647L307.917 593.36C308.657 592.619 309.073 591.614 309.073 590.567C309.073 589.519 308.657 588.514 307.917 587.773L292.173 572.04C291.432 571.299 290.427 570.884 289.38 570.884C288.332 570.884 287.327 571.299 286.586 572.04L279.168 579.459C278.591 580.038 277.847 580.423 277.04 580.559C276.233 580.696 275.404 580.577 274.668 580.219C272.574 579.196 270.417 578.307 268.21 577.557C267.433 577.292 266.758 576.79 266.28 576.122C265.803 575.454 265.547 574.652 265.548 573.831V563.321C265.548 562.803 265.446 562.289 265.248 561.81C265.05 561.331 264.759 560.896 264.392 560.529C264.026 560.162 263.59 559.872 263.111 559.673C262.632 559.475 262.119 559.373 261.6 559.373H239.342C238.824 559.373 238.31 559.475 237.831 559.673C237.352 559.872 236.917 560.162 236.55 560.529C236.184 560.896 235.893 561.331 235.694 561.81C235.496 562.289 235.394 562.803 235.394 563.321V573.831C235.396 574.652 235.14 575.454 234.663 576.122C234.185 576.79 233.511 577.292 232.733 577.557C230.526 578.307 228.369 579.196 226.275 580.219C225.539 580.577 224.71 580.696 223.904 580.56C223.097 580.423 222.353 580.039 221.775 579.459L214.356 572.04C213.615 571.299 212.61 570.884 211.563 570.884C210.515 570.884 209.51 571.299 208.769 572.04L193.026 587.776C192.286 588.517 191.87 589.522 191.87 590.57C191.87 591.617 192.286 592.622 193.026 593.363L200.313 600.65C200.899 601.232 201.286 601.983 201.42 602.797C201.554 603.612 201.428 604.447 201.06 605.186C199.994 607.32 199.067 609.521 198.287 611.775C198.015 612.544 197.512 613.21 196.845 613.68C196.179 614.151 195.384 614.403 194.568 614.403H184.313C183.795 614.403 183.281 614.505 182.802 614.703C182.323 614.902 181.888 615.192 181.521 615.559C181.155 615.926 180.864 616.361 180.665 616.84C180.467 617.319 180.365 617.833 180.365 618.351V640.614C180.365 641.133 180.467 641.646 180.665 642.125C180.864 642.604 181.155 643.039 181.521 643.406C181.888 643.773 182.323 644.063 182.802 644.262C183.281 644.46 183.795 644.562 184.313 644.562H194.3C195.131 644.561 195.94 644.823 196.613 645.309C197.286 645.796 197.788 646.483 198.047 647.272C198.818 649.586 199.74 651.847 200.806 654.041C201.168 654.78 201.291 655.613 201.157 656.425C201.023 657.237 200.639 657.987 200.059 658.57L193.028 665.602C192.662 665.968 192.371 666.403 192.172 666.882C191.974 667.36 191.872 667.873 191.872 668.392C191.872 668.91 191.974 669.423 192.172 669.901C192.371 670.38 192.662 670.815 193.028 671.181L208.771 686.925C209.512 687.666 210.517 688.082 211.565 688.082C212.612 688.082 213.617 687.666 214.358 686.925L221.251 680.031C221.839 679.446 222.596 679.06 223.415 678.928C224.234 678.797 225.073 678.927 225.814 679.299C228.044 680.413 230.348 681.374 232.708 682.175C233.491 682.44 234.171 682.943 234.653 683.613C235.135 684.284 235.396 685.089 235.397 685.915V695.637C235.397 696.156 235.498 696.67 235.696 697.15C235.894 697.629 236.185 698.065 236.552 698.432C236.918 698.8 237.354 699.091 237.833 699.29C238.312 699.488 238.826 699.591 239.345 699.591H261.6C262.119 699.591 262.633 699.489 263.112 699.29C263.592 699.091 264.027 698.8 264.394 698.433C264.761 698.065 265.051 697.629 265.249 697.15C265.447 696.67 265.549 696.156 265.548 695.637V685.915C265.55 685.089 265.81 684.284 266.292 683.613C266.775 682.943 267.455 682.44 268.237 682.175C270.598 681.374 272.901 680.413 275.131 679.299C275.872 678.927 276.712 678.797 277.531 678.928C278.35 679.06 279.107 679.446 279.694 680.031L286.587 686.925C287.328 687.666 288.333 688.082 289.381 688.082C290.428 688.082 291.433 687.666 292.174 686.925L307.918 671.181C308.285 670.815 308.575 670.38 308.774 669.901C308.972 669.423 309.074 668.91 309.074 668.392C309.074 667.873 308.972 667.36 308.774 666.882C308.575 666.403 308.285 665.968 307.918 665.602L300.886 658.57C300.306 657.987 299.922 657.237 299.788 656.425C299.655 655.613 299.777 654.78 300.139 654.041C301.206 651.848 302.128 649.586 302.898 647.272C303.158 646.483 303.659 645.796 304.332 645.31C305.005 644.823 305.815 644.561 306.645 644.562H316.629C317.148 644.562 317.661 644.46 318.14 644.262C318.619 644.063 319.055 643.773 319.421 643.406C319.788 643.039 320.079 642.604 320.277 642.125C320.475 641.646 320.577 641.133 320.577 640.614V618.351C320.578 617.832 320.476 617.318 320.278 616.839C320.079 616.359 319.789 615.924 319.422 615.557C319.055 615.19 318.62 614.899 318.14 614.7C317.661 614.502 317.147 614.4 316.628 614.4ZM250.474 662.38C243.967 662.38 237.606 660.45 232.196 656.835C226.786 653.22 222.569 648.082 220.079 642.07C217.588 636.059 216.937 629.444 218.206 623.062C219.476 616.68 222.609 610.817 227.21 606.216C231.812 601.615 237.674 598.482 244.056 597.212C250.438 595.943 257.053 596.594 263.064 599.084C269.076 601.575 274.214 605.791 277.83 611.202C281.445 616.612 283.374 622.973 283.374 629.48C283.374 638.206 279.908 646.574 273.738 652.744C267.568 658.914 259.2 662.38 250.474 662.38Z" fill="#F4F4F4"/>
<path d="M188.568 481.774H174.609C173.499 481.776 172.417 481.433 171.511 480.792C170.605 480.151 169.921 479.244 169.554 478.197C168.485 475.13 167.221 472.133 165.77 469.226C165.268 468.221 165.097 467.083 165.279 465.975C165.461 464.866 165.989 463.843 166.786 463.051L176.708 453.13C177.716 452.121 178.282 450.754 178.282 449.327C178.282 447.901 177.716 446.533 176.708 445.524L155.274 424.1C154.265 423.093 152.897 422.526 151.471 422.526C150.044 422.526 148.677 423.093 147.668 424.1L137.568 434.2C136.781 434.99 135.768 435.514 134.669 435.7C133.571 435.885 132.442 435.723 131.44 435.235C128.589 433.843 125.653 432.633 122.649 431.611C121.59 431.251 120.671 430.567 120.021 429.658C119.371 428.748 119.023 427.657 119.025 426.538V412.23C119.025 411.525 118.886 410.826 118.616 410.173C118.346 409.521 117.95 408.929 117.451 408.429C116.952 407.93 116.359 407.534 115.707 407.264C115.055 406.994 114.356 406.855 113.65 406.855H83.3497C82.6438 406.855 81.9448 406.994 81.2926 407.264C80.6404 407.534 80.0478 407.93 79.5487 408.429C79.0495 408.929 78.6536 409.521 78.3835 410.173C78.1135 410.826 77.9745 411.525 77.9747 412.23V426.538C77.9767 427.657 77.6282 428.748 76.9782 429.658C76.3281 430.567 75.4092 431.251 74.3507 431.611C71.3465 432.633 68.4099 433.843 65.5587 435.235C64.5566 435.723 63.4272 435.886 62.3283 435.7C61.2294 435.514 60.216 434.99 59.4297 434.2L49.3297 424.1C48.3207 423.093 46.9528 422.526 45.5267 422.526C44.1005 422.526 42.7326 423.093 41.7237 424.1L20.2907 445.524C19.2827 446.533 18.7165 447.901 18.7165 449.327C18.7165 450.754 19.2827 452.121 20.2907 453.13L30.2117 463.051C31.0089 463.843 31.5363 464.866 31.7188 465.974C31.9014 467.083 31.7299 468.221 31.2287 469.226C29.7766 472.132 28.5155 475.128 27.4537 478.197C27.0831 479.244 26.3971 480.15 25.4902 480.791C24.5832 481.431 23.5 481.775 22.3897 481.774H8.43066C7.72478 481.774 7.02574 481.913 6.37351 482.183C5.72127 482.453 5.12862 482.848 4.62944 483.348C4.13026 483.847 3.73433 484.439 3.4643 485.091C3.19426 485.744 3.0554 486.443 3.05566 487.148V517.458C3.05527 518.164 3.19403 518.864 3.46401 519.516C3.73399 520.168 4.12989 520.761 4.62909 521.26C5.12828 521.759 5.72097 522.155 6.37328 522.425C7.02558 522.695 7.7247 522.834 8.43066 522.833H22.0227C23.1531 522.833 24.2548 523.189 25.1706 523.852C26.0864 524.515 26.7696 525.45 27.1227 526.523C28.1712 529.675 29.4259 532.753 30.8787 535.739C31.3714 536.745 31.5383 537.88 31.356 538.985C31.1737 540.09 30.6513 541.11 29.8617 541.904L20.2887 551.477C19.7892 551.976 19.3929 552.569 19.1225 553.221C18.8522 553.873 18.713 554.572 18.713 555.277C18.713 555.983 18.8522 556.682 19.1225 557.334C19.3929 557.986 19.7892 558.579 20.2887 559.077L41.7217 580.51C42.7306 581.518 44.0985 582.085 45.5247 582.085C46.9508 582.085 48.3187 581.518 49.3277 580.51L58.7127 571.125C59.5122 570.328 60.5426 569.802 61.6577 569.622C62.7728 569.443 63.9162 569.619 64.9257 570.125C67.9614 571.642 71.097 572.95 74.3107 574.04C75.3761 574.401 76.3019 575.086 76.9585 575.999C77.615 576.913 77.9693 578.009 77.9717 579.133V592.368C77.9706 593.075 78.1089 593.775 78.3785 594.428C78.6481 595.081 79.0439 595.675 79.5431 596.175C80.0423 596.675 80.6352 597.071 81.2878 597.342C81.9405 597.613 82.6401 597.752 83.3467 597.752H113.647C114.353 597.752 115.053 597.613 115.706 597.342C116.358 597.071 116.951 596.675 117.45 596.175C117.949 595.675 118.345 595.081 118.615 594.428C118.884 593.775 119.023 593.075 119.022 592.368V579.133C119.024 578.009 119.378 576.913 120.034 575.999C120.691 575.086 121.617 574.401 122.683 574.04C125.896 572.95 129.032 571.642 132.068 570.125C133.077 569.619 134.22 569.443 135.336 569.622C136.451 569.802 137.481 570.328 138.281 571.125L147.665 580.51C148.674 581.518 150.041 582.085 151.468 582.085C152.894 582.085 154.262 581.518 155.271 580.51L176.705 559.077C177.204 558.579 177.6 557.986 177.871 557.334C178.141 556.682 178.28 555.983 178.28 555.277C178.28 554.572 178.141 553.873 177.871 553.221C177.6 552.569 177.204 551.976 176.705 551.477L167.132 541.904C166.342 541.11 165.82 540.09 165.637 538.985C165.455 537.88 165.622 536.745 166.115 535.739C167.567 532.753 168.822 529.674 169.871 526.523C170.224 525.45 170.907 524.515 171.823 523.852C172.739 523.189 173.84 522.833 174.971 522.833H188.563C189.269 522.834 189.968 522.695 190.62 522.425C191.272 522.155 191.865 521.759 192.364 521.26C192.863 520.761 193.259 520.168 193.529 519.516C193.799 518.864 193.938 518.164 193.938 517.458V487.148C193.938 486.443 193.799 485.744 193.53 485.093C193.26 484.441 192.864 483.848 192.366 483.349C191.867 482.85 191.275 482.454 190.623 482.184C189.972 481.914 189.273 481.775 188.568 481.774ZM98.4997 547.091C89.6406 547.092 80.9803 544.465 73.6142 539.543C66.248 534.621 60.5068 527.626 57.1164 519.441C53.7261 511.256 52.839 502.25 54.5673 493.561C56.2956 484.872 60.5616 476.891 66.8259 470.627C73.0903 464.362 81.0715 460.096 89.7604 458.368C98.4493 456.64 107.456 457.527 115.64 460.917C123.825 464.308 130.821 470.049 135.742 477.415C140.664 484.781 143.291 493.441 143.291 502.3C143.29 514.18 138.571 525.572 130.171 533.972C121.771 542.372 110.379 547.091 98.4997 547.091Z" fill="#F4F4F4"/>
<path d="M109.104 572.946L107.377 573.135L128.695 767.949L130.422 767.76L109.104 572.946Z" fill="#292A2E"/>
<path d="M164.318 657.996L153.83 761.75L155.558 761.925L166.046 658.17L164.318 657.996Z" fill="#292A2E"/>
<path d="M182.353 749.207H104.533V774.462H182.353V749.207Z" fill="#292A2E"/>
<path opacity="0.2" d="M182.353 749.207H104.533V774.462H182.353V749.207Z" fill="white"/>
<path d="M229.268 702.706C244.01 683.113 236.983 652.95 213.572 635.335C190.161 617.721 159.232 619.325 144.49 638.918C129.748 658.511 136.775 688.674 160.186 706.289C183.597 723.903 214.526 722.299 229.268 702.706Z" fill="#0CBC8B"/>
<path opacity="0.2" d="M229.268 702.706C244.01 683.113 236.983 652.95 213.572 635.335C190.161 617.721 159.232 619.325 144.49 638.918C129.748 658.511 136.775 688.674 160.186 706.289C183.597 723.903 214.526 722.299 229.268 702.706Z" fill="white"/>
<path opacity="0.5" d="M229.264 702.709C228.274 704.031 227.194 705.282 226.031 706.455C209.803 716.822 185.85 715.19 166.848 700.89C143.439 683.279 136.413 653.117 151.157 633.524C152.148 632.205 153.225 630.954 154.382 629.778C170.618 619.402 194.563 621.042 213.573 635.335C236.981 652.953 244.007 683.116 229.264 702.709Z" fill="white"/>
<path d="M120.662 628.37C143.854 610.468 150.157 579.765 134.741 559.793C119.324 539.822 88.0263 538.144 64.8344 556.046C41.6425 573.948 35.3392 604.651 50.7555 624.623C66.1718 644.594 97.4699 646.272 120.662 628.37Z" fill="#0CBC8B"/>
<path opacity="0.2" d="M113.316 623.234C95.355 637.107 72.529 639.221 55.983 630.19C54.0683 628.503 52.3193 626.637 50.76 624.617C35.341 604.651 41.644 573.945 64.835 556.046C82.796 542.181 105.622 540.059 122.16 549.083C124.079 550.77 125.831 552.639 127.39 554.663C142.81 574.629 136.507 605.335 113.316 623.234Z" fill="white"/>
<path d="M734.914 444.019H473.926C467.716 444.019 462.683 449.052 462.683 455.262V584.763C462.683 590.972 467.716 596.006 473.926 596.006H734.914C741.123 596.006 746.157 590.972 746.157 584.763V455.262C746.157 449.052 741.123 444.019 734.914 444.019Z" fill="#F4F4F4"/>
<path d="M635.267 530.322H617.174C616.072 530.322 615.179 531.215 615.179 532.317V572.421C615.179 573.523 616.072 574.416 617.174 574.416H635.267C636.369 574.416 637.262 573.523 637.262 572.421V532.317C637.262 531.215 636.369 530.322 635.267 530.322Z" fill="white"/>
<path d="M678.871 488.232H660.778C659.676 488.232 658.783 489.126 658.783 490.227V572.421C658.783 573.523 659.676 574.416 660.778 574.416H678.871C679.973 574.416 680.866 573.523 680.866 572.421V490.227C680.866 489.126 679.973 488.232 678.871 488.232Z" fill="white"/>
<path d="M722.475 520.438H704.382C703.28 520.438 702.387 521.332 702.387 522.433V572.421C702.387 573.523 703.28 574.416 704.382 574.416H722.475C723.577 574.416 724.47 573.523 724.47 572.421V522.433C724.47 521.332 723.577 520.438 722.475 520.438Z" fill="white"/>
<path d="M504.456 530.322H486.363C485.261 530.322 484.368 531.215 484.368 532.317V572.421C484.368 573.523 485.261 574.416 486.363 574.416H504.456C505.558 574.416 506.451 573.523 506.451 572.421V532.317C506.451 531.215 505.558 530.322 504.456 530.322Z" fill="white"/>
<path d="M548.061 488.232H529.968C528.866 488.232 527.973 489.126 527.973 490.227V572.421C527.973 573.523 528.866 574.416 529.968 574.416H548.061C549.162 574.416 550.056 573.523 550.056 572.421V490.227C550.056 489.126 549.162 488.232 548.061 488.232Z" fill="white"/>
<path d="M591.664 520.438H573.571C572.469 520.438 571.576 521.332 571.576 522.433V572.421C571.576 573.523 572.469 574.416 573.571 574.416H591.664C592.766 574.416 593.659 573.523 593.659 572.421V522.433C593.659 521.332 592.766 520.438 591.664 520.438Z" fill="white"/>
<path d="M625.276 53.5498C625.276 53.5498 614.927 44.5918 613.5 25.4708C612.391 10.6708 625.281 21.0708 625.281 21.0708C625.281 21.0708 624.587 10.4028 632.217 11.9708C639.847 13.5388 643.417 24.9328 643.417 24.9328" fill="#0C0C0C"/>
<path d="M671.949 15.877C671.949 15.877 709.898 22.536 692.609 73.406H682.315" fill="#0C0C0C"/>
<path d="M697.023 729.808C697.023 729.808 692.508 753.208 670.595 754.517C648.682 755.826 653.433 773.278 653.433 773.278H737.172V731.441L697.023 729.808Z" fill="#367CFF"/>
<path d="M742.852 302.878C742.852 302.878 742.589 295.843 742.644 311.802C742.852 371.331 740.868 744.745 740.868 744.745L685.843 744.283L652.51 300.459L742.852 302.878Z" fill="#262626"/>
<path d="M603.061 729.808C603.061 729.808 598.546 753.208 576.633 754.517C554.72 755.826 559.472 773.278 559.472 773.278H643.211V731.441L603.061 729.808Z" fill="#367CFF"/>
<path d="M592.418 307.5C592.418 307.5 585.544 510.956 586.259 520.9L592.722 743.2L646.839 744.2L655.565 512.856C655.565 512.856 661.285 449.041 676.704 389.783C684.593 359.369 689.34 328.227 690.872 296.845L592.418 307.5Z" fill="#262626"/>
<path d="M663.811 451.751L659.3 382.742C659.3 382.742 654.665 411.431 654.665 436.159C654.665 448.246 657.154 496.101 657.154 496.101L663.811 451.751Z" fill="#0A0A0A"/>
<path d="M629.209 126.291C629.378 126.269 631.247 157.282 667.275 154.578C692.217 152.71 701.111 126.247 701.682 126.247C698.993 125.676 695.67 124.808 694.349 124.511C691.47 123.843 688.864 122.315 686.875 120.129C684.886 117.943 683.611 115.203 683.217 112.274C682.488 107.874 683.725 85.3884 683.344 80.9404L645.058 89.4864C645.593 98.8794 649.337 120.656 636.214 124.51C634.03 125.148 631.678 125.734 629.209 126.291Z" fill="#E98862"/>
<path opacity="0.52" d="M644.521 115.612C645.122 113.679 645.508 111.686 645.673 109.669C646.095 105.067 646.011 100.433 645.423 95.8491C653.205 94.7986 660.536 91.5866 666.583 86.5781C667.294 89.2041 671.204 100.678 670.121 103.171C668.075 107.888 658.459 115.612 644.521 115.612Z" fill="#0C0C0C"/>
<path d="M651.318 108.119C666.479 107.777 685.154 99.4627 686.785 79.0237L688.258 60.5807C689.889 40.1407 680.475 22.7147 661.23 21.1807C641.985 19.6447 626.278 35.0667 624.647 55.5067L623.995 63.6717C623.82 66.4789 623.837 69.2947 624.045 72.0997C624.545 79.5177 625.322 90.7997 629.805 98.6927C634.038 106.145 641.632 108.337 651.318 108.119Z" fill="#E98862"/>
<path opacity="0.52" d="M645.578 88.9504C642.458 88.8828 639.398 88.083 636.645 86.6155C636.53 86.5568 636.443 86.4549 636.403 86.3321C636.363 86.2092 636.373 86.0756 636.432 85.9605C636.491 85.8453 636.592 85.7582 636.715 85.7183C636.838 85.6783 636.972 85.6888 637.087 85.7475C643.029 88.7655 648.609 88.7555 653.223 85.7195C653.316 85.6547 653.412 85.5953 653.512 85.5415C653.628 85.4848 653.762 85.4767 653.884 85.5188C654.006 85.5609 654.107 85.6498 654.163 85.766C654.22 85.8821 654.228 86.016 654.186 86.1382C654.144 86.2604 654.055 86.3608 653.939 86.4175C653.902 86.4375 653.839 86.4784 653.759 86.5334C651.333 88.1351 648.485 88.9767 645.578 88.9504Z" fill="#0C0C0C"/>
<path opacity="0.52" d="M645.414 93.5686C644.85 93.5657 644.287 93.5145 643.731 93.4156C643.668 93.4045 643.608 93.3812 643.554 93.3469C643.5 93.3126 643.453 93.268 643.417 93.2156C643.38 93.1632 643.354 93.1041 643.34 93.0417C643.326 92.9792 643.324 92.9146 643.335 92.8516C643.346 92.7885 643.37 92.7283 643.404 92.6743C643.438 92.6203 643.483 92.5735 643.535 92.5368C643.588 92.5 643.647 92.4739 643.709 92.46C643.772 92.446 643.836 92.4445 643.899 92.4556C647.241 93.0396 648.951 91.6046 649.023 91.5426C649.121 91.4574 649.248 91.4144 649.377 91.4229C649.505 91.4315 649.626 91.4909 649.711 91.5881C649.796 91.6853 649.839 91.8123 649.831 91.9412C649.822 92.0702 649.763 92.1904 649.665 92.2756C648.44 93.1849 646.938 93.6418 645.414 93.5686Z" fill="#0C0C0C"/>
<path d="M630.356 68.0421C631.669 68.0421 632.734 66.9775 632.734 65.6641C632.734 64.3508 631.669 63.2861 630.356 63.2861C629.042 63.2861 627.978 64.3508 627.978 65.6641C627.978 66.9775 629.042 68.0421 630.356 68.0421Z" fill="#0C0C0C"/>
<path d="M654.393 68.1915C655.706 68.1915 656.771 67.1269 656.771 65.8135C656.771 64.5002 655.706 63.4355 654.393 63.4355C653.079 63.4355 652.015 64.5002 652.015 65.8135C652.015 67.1269 653.079 68.1915 654.393 68.1915Z" fill="#0C0C0C"/>
<path d="M685.093 85.1546C690.941 85.6216 696.182 79.7436 696.648 73.8946C697.114 68.0456 692.631 64.4426 686.783 63.9756L683.456 67.6546L680.064 84.7546L685.093 85.1546Z" fill="#E98862"/>
<path d="M584.446 194.569C585.581 207.901 591.101 291.079 592.192 307.501H742.564C743.414 292.69 747.228 227.925 750.449 198.962C753.524 171.324 759.557 157.487 755.135 149.316C747.909 135.962 728.163 128.245 714.699 126.422C706.478 125.31 694.112 124.512 694.112 124.512C694.112 124.512 693.065 145.692 668.099 146.871C634.114 148.471 636.383 124.512 636.215 124.512C630.709 124.512 599.257 127.997 591.562 132.558C570.594 144.975 582.037 166.316 584.446 194.569Z" fill="#367CFF"/>
<path d="M679.9 75.3591C679.9 75.3591 679.863 46.2801 671.205 43.9041C665.439 42.3221 650.705 49.6641 637.744 46.2801C632.072 44.7991 626.523 45.8561 625.787 48.5321C625.495 49.5921 622.951 33.9121 632.732 22.7971C640.52 13.9481 664.132 12.8841 674.594 16.6581C703.554 27.1071 687.904 65.3321 687.904 65.3321L685.919 75.2241L679.9 75.3591Z" fill="#0C0C0C"/>
<g opacity="0.52">
<path d="M642.501 81.8828H642.463C640.579 81.7378 637.433 81.2828 637.54 79.8728C637.631 78.7048 641.802 66.3388 642.278 64.9328C642.319 64.8118 642.406 64.7121 642.52 64.6554C642.635 64.5988 642.767 64.5899 642.888 64.6308C643.009 64.6716 643.108 64.7588 643.165 64.8732C643.222 64.9876 643.231 65.1198 643.19 65.2408C641.338 70.7178 638.562 79.1528 638.5 79.9468C638.66 80.2948 640.585 80.7718 642.537 80.9228C642.66 80.9339 642.774 80.9917 642.855 81.0844C642.937 81.177 642.98 81.2975 642.975 81.4209C642.971 81.5442 642.919 81.6611 642.83 81.7474C642.742 81.8338 642.624 81.8829 642.501 81.8848V81.8828Z" fill="#0C0C0C"/>
</g>
<path d="M637.038 55.3636C635.517 54.7349 633.857 54.5189 632.226 54.7376C631.396 54.8419 630.587 55.0715 629.826 55.4186C629.048 55.7686 628.316 56.2147 627.649 56.7466L627.596 56.7866C627.424 56.9199 627.207 56.9806 626.991 56.9556C626.775 56.9307 626.577 56.8222 626.44 56.6532C626.303 56.4843 626.237 56.2685 626.257 56.0519C626.278 55.8353 626.382 55.6353 626.548 55.4946C627.287 54.8074 628.11 54.2164 628.997 53.7356C629.897 53.2438 630.865 52.8895 631.87 52.6846C632.876 52.469 633.908 52.3923 634.935 52.4566C635.992 52.5119 637.036 52.718 638.035 53.0686C638.345 53.1807 638.599 53.4111 638.741 53.7095C638.882 54.0079 638.9 54.3502 638.791 54.6617C638.681 54.9733 638.453 55.229 638.156 55.373C637.858 55.517 637.516 55.5377 637.204 55.4306C637.174 55.4196 637.144 55.4086 637.116 55.3956L637.038 55.3636Z" fill="#0C0C0C"/>
<path d="M651 53.2684C652.983 52.5859 655.114 52.4536 657.165 52.8854C658.17 53.0902 659.139 53.4444 660.038 53.9364C660.926 54.4173 661.749 55.0086 662.487 55.6964C662.651 55.8377 662.753 56.0369 662.772 56.252C662.791 56.4671 662.726 56.6813 662.59 56.8492C662.454 57.0171 662.259 57.1256 662.044 57.1518C661.83 57.1779 661.614 57.1197 661.441 56.9894L661.386 56.9474C660.719 56.4152 659.988 55.9691 659.209 55.6194C658.449 55.2719 657.639 55.042 656.809 54.9374C655.178 54.7187 653.518 54.9347 651.997 55.5634L651.927 55.5944C651.623 55.7306 651.277 55.7404 650.966 55.6216C650.655 55.5028 650.403 55.2651 650.267 54.9609C650.131 54.6567 650.121 54.3109 650.24 53.9995C650.359 53.6881 650.596 53.4366 650.9 53.3004C650.933 53.2914 650.966 53.2784 651 53.2684Z" fill="#0C0C0C"/>
<path d="M653.029 24.2915C654.789 18.0035 652.752 11.9368 648.481 10.7413C644.209 9.54577 639.319 13.6741 637.559 19.9621C635.8 26.2502 637.836 32.3168 642.108 33.5123C646.38 34.7079 651.269 30.5796 653.029 24.2915Z" fill="#0C0C0C"/>
<path d="M244.335 49.3887H12.273C5.49481 49.3887 0 54.8835 0 61.6617V174.699C0 181.477 5.49481 186.972 12.273 186.972H244.335C251.113 186.972 256.608 181.477 256.608 174.699V61.6617C256.608 54.8835 251.113 49.3887 244.335 49.3887Z" fill="#F4F4F4"/>
<path d="M156.229 127.513H139.849C138.852 127.513 138.044 128.321 138.044 129.318V165.623C138.044 166.62 138.852 167.428 139.849 167.428H156.229C157.226 167.428 158.034 166.62 158.034 165.623V129.318C158.034 128.321 157.226 127.513 156.229 127.513Z" fill="white"/>
<path d="M195.701 89.4121H179.321C178.324 89.4121 177.516 90.2202 177.516 91.2171V165.623C177.516 166.62 178.324 167.428 179.321 167.428H195.701C196.697 167.428 197.506 166.62 197.506 165.623V91.2171C197.506 90.2202 196.697 89.4121 195.701 89.4121Z" fill="white"/>
<path d="M235.172 118.566H218.792C217.795 118.566 216.987 119.375 216.987 120.371V165.623C216.987 166.62 217.795 167.428 218.792 167.428H235.172C236.169 167.428 236.977 166.62 236.977 165.623V120.371C236.977 119.375 236.169 118.566 235.172 118.566Z" fill="white"/>
<path d="M37.8159 127.513H21.4359C20.439 127.513 19.6309 128.321 19.6309 129.318V165.623C19.6309 166.62 20.439 167.428 21.4359 167.428H37.8159C38.8127 167.428 39.6209 166.62 39.6209 165.623V129.318C39.6209 128.321 38.8127 127.513 37.8159 127.513Z" fill="white"/>
<path d="M77.2866 89.4121H60.9066C59.9097 89.4121 59.1016 90.2202 59.1016 91.2171V165.623C59.1016 166.62 59.9097 167.428 60.9066 167.428H77.2866C78.2834 167.428 79.0916 166.62 79.0916 165.623V91.2171C79.0916 90.2202 78.2834 89.4121 77.2866 89.4121Z" fill="white"/>
<path d="M116.758 118.566H100.378C99.3814 118.566 98.5732 119.375 98.5732 120.371V165.623C98.5732 166.62 99.3814 167.428 100.378 167.428H116.758C117.755 167.428 118.563 166.62 118.563 165.623V120.371C118.563 119.375 117.755 118.566 116.758 118.566Z" fill="white"/>
<path d="M552.057 1H131.406C122.426 1 115.146 8.27985 115.146 17.26V512.531C115.146 521.511 122.426 528.791 131.406 528.791H552.057C561.037 528.791 568.316 521.511 568.316 512.531V17.26C568.316 8.27985 561.037 1 552.057 1Z" fill="white"/>
<path d="M552.057 529.791H131.406C126.83 529.786 122.443 527.966 119.208 524.73C115.972 521.494 114.152 517.107 114.146 512.531V17.26C114.152 12.684 115.972 8.29692 119.208 5.06118C122.443 1.82545 126.83 0.00529325 131.406 0L552.057 0C556.633 0.00529325 561.02 1.82545 564.255 5.06118C567.491 8.29692 569.311 12.684 569.316 17.26V512.531C569.311 517.107 567.491 521.494 564.255 524.73C561.02 527.966 556.633 529.786 552.057 529.791ZM131.406 2C127.361 2.00476 123.482 3.61404 120.621 6.47481C117.761 9.33558 116.151 13.2143 116.146 17.26V512.531C116.151 516.577 117.761 520.455 120.621 523.316C123.482 526.177 127.361 527.786 131.406 527.791H552.057C556.102 527.786 559.981 526.177 562.842 523.316C565.702 520.455 567.312 516.577 567.316 512.531V17.26C567.312 13.2143 565.702 9.33558 562.842 6.47481C559.981 3.61404 556.102 2.00476 552.057 2H131.406Z" fill="#292A2E"/>
<path d="M389.358 80.8524C394.741 80.8524 399.105 76.4885 399.105 71.1054C399.105 65.7223 394.741 61.3584 389.358 61.3584C383.975 61.3584 379.611 65.7223 379.611 71.1054C379.611 76.4885 383.975 80.8524 389.358 80.8524Z" fill="#367CFF"/>
<path d="M389.358 80.8524C394.741 80.8524 399.105 76.4885 399.105 71.1054C399.105 65.7223 394.741 61.3584 389.358 61.3584C383.975 61.3584 379.611 65.7223 379.611 71.1054C379.611 76.4885 383.975 80.8524 389.358 80.8524Z" fill="#367CFF"/>
<path d="M389.358 130.536C394.741 130.536 399.105 126.172 399.105 120.789C399.105 115.406 394.741 111.042 389.358 111.042C383.975 111.042 379.611 115.406 379.611 120.789C379.611 126.172 383.975 130.536 389.358 130.536Z" fill="#292A2E"/>
<path opacity="0.5" d="M389.358 180.22C394.741 180.22 399.105 175.856 399.105 170.473C399.105 165.089 394.741 160.726 389.358 160.726C383.975 160.726 379.611 165.089 379.611 170.473C379.611 175.856 383.975 180.22 389.358 180.22Z" fill="#367CFF"/>
<path opacity="0.2" d="M389.358 229.904C394.741 229.904 399.105 225.54 399.105 220.157C399.105 214.774 394.741 210.41 389.358 210.41C383.975 210.41 379.611 214.774 379.611 220.157C379.611 225.54 383.975 229.904 389.358 229.904Z" fill="#367CFF"/>
<path d="M195.883 145.631C195.886 157.511 199.572 169.098 206.435 178.797C213.297 188.495 222.997 195.827 234.2 199.784L218.444 238.2C196.775 230.033 178.658 214.523 167.25 194.372C155.842 174.221 151.865 150.706 156.013 127.924C160.161 105.142 172.17 84.5373 189.949 69.7001C207.728 54.8629 230.148 46.7336 253.305 46.7285V88.2095C238.076 88.2095 223.47 94.2592 212.702 105.028C201.933 115.796 195.883 130.401 195.883 145.631Z" fill="#292A2E"/>
<path d="M352.208 145.631H310.727C310.726 130.401 304.677 115.796 293.908 105.028C283.139 94.2592 268.534 88.2095 253.305 88.2095V46.7285C279.535 46.7301 304.69 57.1506 323.238 75.6979C341.785 94.2453 352.206 119.4 352.208 145.631Z" fill="#367CFF"/>
<path opacity="0.5" d="M352.207 145.631C352.205 168.041 344.595 189.786 330.624 207.307C316.652 224.828 297.146 237.088 275.299 242.079L268.271 201.079C280.457 197.786 291.219 190.571 298.893 180.55C306.568 170.528 310.728 158.258 310.73 145.635L352.207 145.631Z" fill="#367CFF"/>
<path opacity="0.2" d="M275.299 242.078C256.377 246.364 236.613 245.017 218.447 238.203L234.202 199.783C245.17 203.632 257.044 204.082 268.271 201.074L275.299 242.078Z" fill="#367CFF"/>
<path d="M524.948 71.8124H412.048C411.86 71.8124 411.68 71.738 411.548 71.6054C411.415 71.4728 411.341 71.2929 411.341 71.1054C411.341 70.9179 411.415 70.7381 411.548 70.6055C411.68 70.4729 411.86 70.3984 412.048 70.3984H524.948C525.135 70.3984 525.315 70.4729 525.448 70.6055C525.58 70.7381 525.655 70.9179 525.655 71.1054C525.655 71.2929 525.58 71.4728 525.448 71.6054C525.315 71.738 525.135 71.8124 524.948 71.8124Z" fill="#367CFF"/>
<path d="M524.948 121.5H412.048C411.86 121.5 411.68 121.425 411.548 121.293C411.415 121.16 411.341 120.98 411.341 120.793C411.341 120.605 411.415 120.426 411.548 120.293C411.68 120.16 411.86 120.086 412.048 120.086H524.948C525.135 120.086 525.315 120.16 525.448 120.293C525.58 120.426 525.655 120.605 525.655 120.793C525.655 120.98 525.58 121.16 525.448 121.293C525.315 121.425 525.135 121.5 524.948 121.5Z" fill="#292A2E"/>
<g opacity="0.5">
<path d="M524.948 171.18H412.048C411.865 171.173 411.692 171.096 411.565 170.964C411.438 170.832 411.367 170.657 411.367 170.474C411.367 170.291 411.438 170.115 411.565 169.983C411.692 169.851 411.865 169.774 412.048 169.767H524.948C525.043 169.764 525.137 169.779 525.226 169.813C525.315 169.847 525.396 169.898 525.465 169.964C525.533 170.03 525.588 170.109 525.625 170.197C525.662 170.284 525.681 170.379 525.681 170.474C525.681 170.569 525.662 170.663 525.625 170.75C525.588 170.838 525.533 170.917 525.465 170.983C525.396 171.049 525.315 171.1 525.226 171.134C525.137 171.168 525.043 171.184 524.948 171.18Z" fill="#367CFF"/>
</g>
<g opacity="0.2">
<path d="M524.948 220.864H412.048C411.865 220.857 411.692 220.779 411.565 220.648C411.438 220.516 411.367 220.34 411.367 220.157C411.367 219.974 411.438 219.799 411.565 219.667C411.692 219.535 411.865 219.458 412.048 219.451H524.948C525.043 219.447 525.137 219.463 525.226 219.497C525.315 219.531 525.396 219.582 525.465 219.648C525.533 219.714 525.588 219.793 525.625 219.881C525.662 219.968 525.681 220.062 525.681 220.157C525.681 220.252 525.662 220.346 525.625 220.434C525.588 220.521 525.533 220.6 525.465 220.666C525.396 220.732 525.315 220.784 525.226 220.818C525.137 220.852 525.043 220.867 524.948 220.864Z" fill="#367CFF"/>
</g>
<g opacity="0.1">
<path d="M525.435 490.891H158.028C154.834 490.888 151.772 489.617 149.513 487.358C147.254 485.099 145.984 482.037 145.98 478.842V292.7C145.984 289.506 147.255 286.444 149.513 284.185C151.772 281.927 154.834 280.656 158.028 280.652H525.435C528.629 280.656 531.691 281.926 533.95 284.185C536.209 286.444 537.479 289.506 537.482 292.7V478.842C537.479 482.037 536.209 485.099 533.95 487.358C531.691 489.617 528.629 490.888 525.435 490.891Z" fill="#367CFF"/>
</g>
<path opacity="0.5" d="M196.063 322.877H188.91C187.834 322.877 186.961 323.75 186.961 324.826V461.467C186.961 462.543 187.834 463.416 188.91 463.416H196.063C197.139 463.416 198.012 462.543 198.012 461.467V324.826C198.012 323.75 197.139 322.877 196.063 322.877Z" fill="#367CFF"/>
<path d="M185.011 367.018H177.858C176.782 367.018 175.909 367.89 175.909 368.967V461.468C175.909 462.544 176.782 463.417 177.858 463.417H185.011C186.088 463.417 186.96 462.544 186.96 461.468V368.967C186.96 367.89 186.088 367.018 185.011 367.018Z" fill="#367CFF"/>
<path opacity="0.5" d="M284.503 445.634H277.35C276.274 445.634 275.401 446.506 275.401 447.583V461.468C275.401 462.544 276.274 463.417 277.35 463.417H284.503C285.58 463.417 286.452 462.544 286.452 461.468V447.583C286.452 446.506 285.58 445.634 284.503 445.634Z" fill="#367CFF"/>
<path d="M273.453 359.081H266.3C265.223 359.081 264.351 359.954 264.351 361.03V461.467C264.351 462.543 265.223 463.416 266.3 463.416H273.453C274.529 463.416 275.402 462.543 275.402 461.467V361.03C275.402 359.954 274.529 359.081 273.453 359.081Z" fill="#367CFF"/>
<path opacity="0.5" d="M240.284 379.294H233.131C232.054 379.294 231.182 380.167 231.182 381.243V461.467C231.182 462.543 232.054 463.416 233.131 463.416H240.284C241.36 463.416 242.233 462.543 242.233 461.467V381.243C242.233 380.167 241.36 379.294 240.284 379.294Z" fill="#367CFF"/>
<path d="M229.232 408.36H222.079C221.002 408.36 220.13 409.233 220.13 410.309V461.467C220.13 462.544 221.002 463.416 222.079 463.416H229.232C230.308 463.416 231.181 462.544 231.181 461.467V410.309C231.181 409.233 230.308 408.36 229.232 408.36Z" fill="#367CFF"/>
<path opacity="0.5" d="M417.164 350.059H410.011C408.934 350.059 408.062 350.931 408.062 352.008V461.469C408.062 462.545 408.934 463.418 410.011 463.418H417.164C418.24 463.418 419.113 462.545 419.113 461.469V352.008C419.113 350.931 418.24 350.059 417.164 350.059Z" fill="#367CFF"/>
<path d="M406.113 391.794H398.96C397.883 391.794 397.011 392.667 397.011 393.743V461.469C397.011 462.545 397.883 463.418 398.96 463.418H406.113C407.189 463.418 408.062 462.545 408.062 461.469V393.743C408.062 392.667 407.189 391.794 406.113 391.794Z" fill="#367CFF"/>
<path opacity="0.5" d="M328.723 367.74H321.57C320.494 367.74 319.621 368.613 319.621 369.689V461.467C319.621 462.544 320.494 463.416 321.57 463.416H328.723C329.799 463.416 330.672 462.544 330.672 461.467V369.689C330.672 368.613 329.799 367.74 328.723 367.74Z" fill="#367CFF"/>
<path d="M317.672 378.572H310.519C309.443 378.572 308.57 379.445 308.57 380.521V461.467C308.57 462.544 309.443 463.416 310.519 463.416H317.672C318.749 463.416 319.621 462.544 319.621 461.467V380.521C319.621 379.445 318.749 378.572 317.672 378.572Z" fill="#367CFF"/>
<path opacity="0.5" d="M372.943 322.877H365.79C364.713 322.877 363.841 323.75 363.841 324.826V461.467C363.841 462.543 364.713 463.416 365.79 463.416H372.943C374.019 463.416 374.892 462.543 374.892 461.467V324.826C374.892 323.75 374.019 322.877 372.943 322.877Z" fill="#367CFF"/>
<path d="M361.892 329.646H354.739C353.663 329.646 352.79 330.519 352.79 331.595V461.466C352.79 462.543 353.663 463.415 354.739 463.415H361.892C362.968 463.415 363.841 462.543 363.841 461.466V331.595C363.841 330.519 362.968 329.646 361.892 329.646Z" fill="#367CFF"/>
<path opacity="0.5" d="M461.383 322.877H454.23C453.154 322.877 452.281 323.75 452.281 324.826V461.467C452.281 462.543 453.154 463.416 454.23 463.416H461.383C462.46 463.416 463.332 462.543 463.332 461.467V324.826C463.332 323.75 462.46 322.877 461.383 322.877Z" fill="#367CFF"/>
<path d="M450.332 367.018H443.179C442.103 367.018 441.23 367.89 441.23 368.967V461.468C441.23 462.544 442.103 463.417 443.179 463.417H450.332C451.409 463.417 452.281 462.544 452.281 461.468V368.967C452.281 367.89 451.409 367.018 450.332 367.018Z" fill="#367CFF"/>
<path opacity="0.5" d="M505.603 379.294H498.45C497.374 379.294 496.501 380.167 496.501 381.243V461.467C496.501 462.543 497.374 463.416 498.45 463.416H505.603C506.679 463.416 507.552 462.543 507.552 461.467V381.243C507.552 380.167 506.679 379.294 505.603 379.294Z" fill="#367CFF"/>
<path d="M494.552 408.36H487.399C486.323 408.36 485.45 409.233 485.45 410.309V461.467C485.45 462.544 486.323 463.416 487.399 463.416H494.552C495.629 463.416 496.501 462.544 496.501 461.467V410.309C496.501 409.233 495.629 408.36 494.552 408.36Z" fill="#367CFF"/>
<path d="M551.438 296.152C546.989 296.145 542.619 294.975 538.762 292.758C534.906 290.54 531.696 287.353 529.452 283.511C527.208 279.67 526.007 275.309 525.97 270.86C525.932 266.411 527.059 262.03 529.238 258.152L590.019 150.042C591.651 147.107 593.848 144.524 596.481 142.44C599.115 140.356 602.135 138.813 605.367 137.9C608.598 136.986 611.979 136.72 615.314 137.117C618.649 137.513 621.872 138.565 624.8 140.211C627.727 141.857 630.301 144.065 632.372 146.708C634.444 149.351 635.973 152.377 636.872 155.613C637.771 158.849 638.022 162.231 637.61 165.564C637.199 168.897 636.133 172.116 634.474 175.036L573.693 283.146C571.474 287.096 568.242 290.383 564.33 292.669C560.419 294.955 555.968 296.157 551.438 296.152Z" fill="#367CFF"/>
<path d="M588.771 256.319L587.862 237.884" stroke="#0C0C0C" stroke-width="0.75" stroke-linecap="round" stroke-linejoin="round"/>
<path d="M662.468 207.463L646.741 189.054C646.403 188.659 645.988 188.336 645.521 188.106C645.054 187.876 644.545 187.744 644.025 187.717C643.506 187.69 642.986 187.77 642.498 187.95C642.009 188.131 641.563 188.409 641.186 188.768C640.481 189.488 640.075 190.449 640.051 191.457C640.027 192.464 640.386 193.443 641.056 194.196L644.417 198.13L661.23 210.9L662.468 207.463Z" fill="#E98862"/>
<path d="M637.8 212.316L588.141 215.41C586.147 215.534 584.179 214.916 582.615 213.673C581.051 212.431 580.003 210.653 579.674 208.683L567.405 135.4C567.218 134.285 567.268 133.142 567.551 132.047C567.834 130.952 568.343 129.929 569.047 129.043C569.75 128.158 570.632 127.43 571.635 126.907C572.637 126.383 573.739 126.077 574.868 126.006L624.527 122.912C626.52 122.788 628.489 123.407 630.053 124.65C631.616 125.892 632.664 127.67 632.994 129.64L645.26 202.922C645.446 204.037 645.397 205.179 645.114 206.274C644.831 207.369 644.322 208.392 643.619 209.278C642.915 210.163 642.034 210.891 641.032 211.415C640.029 211.938 638.928 212.245 637.8 212.316Z" fill="#292A2E"/>
<path d="M644.416 198.13L628.116 190.584C626.316 189.714 623.554 189.796 622.711 191.877C622.335 192.657 622.234 193.541 622.424 194.385C622.615 195.229 623.086 195.984 623.761 196.525C623.748 196.541 623.736 196.558 623.726 196.576C623.722 196.591 623.718 196.606 623.716 196.62L620.943 195.277C620.432 195.03 619.873 194.9 619.305 194.895C618.738 194.89 618.177 195.012 617.662 195.25C617.147 195.489 616.691 195.839 616.328 196.275C615.965 196.711 615.703 197.222 615.561 197.771C615.353 198.652 615.455 199.577 615.851 200.39C616.247 201.204 616.911 201.856 617.732 202.235L618.913 202.807C618.912 202.85 618.919 202.893 618.933 202.933C618.055 202.734 617.135 202.85 616.334 203.261C615.534 203.672 614.903 204.353 614.554 205.182C614.197 206.125 614.211 207.168 614.593 208.1C614.975 209.033 615.697 209.786 616.613 210.206L619.513 211.606C619.458 211.616 619.405 211.638 619.36 211.672C619.315 211.705 619.278 211.749 619.253 211.799C619.225 211.864 619.218 211.936 619.231 212.005C618.415 212.042 617.633 212.339 616.998 212.853C616.363 213.367 615.91 214.071 615.704 214.861C615.496 215.742 615.598 216.667 615.994 217.481C616.389 218.295 617.054 218.947 617.875 219.326L642.6 231.3C646.059 232.975 649.94 233.579 653.744 233.034C657.549 232.489 661.103 230.82 663.953 228.241L673.128 219.941L644.416 198.13Z" fill="#E98862"/>
<g opacity="0.2">
<path d="M639.857 204.078C639.816 204.16 639.745 204.224 639.658 204.254C639.571 204.285 639.475 204.28 639.391 204.242L623.891 197.042C623.849 197.022 623.811 196.994 623.78 196.96C623.749 196.925 623.725 196.885 623.709 196.842C623.693 196.798 623.686 196.752 623.688 196.705C623.69 196.659 623.701 196.613 623.721 196.571C623.741 196.529 623.768 196.491 623.803 196.46C623.837 196.428 623.877 196.404 623.921 196.388C623.964 196.373 624.011 196.365 624.057 196.368C624.104 196.37 624.149 196.381 624.191 196.401L639.691 203.596C639.776 203.635 639.842 203.707 639.875 203.795C639.907 203.883 639.903 203.98 639.863 204.066L639.857 204.078Z" fill="#0C0C0C"/>
</g>
<g opacity="0.2">
<path d="M636.873 211.001C636.832 211.084 636.76 211.147 636.673 211.178C636.586 211.209 636.491 211.204 636.407 211.166L619.115 203.136C619.03 203.096 618.964 203.024 618.932 202.936C618.9 202.848 618.903 202.751 618.943 202.666C618.985 202.583 619.057 202.519 619.144 202.487C619.231 202.455 619.327 202.458 619.413 202.494L636.705 210.524C636.79 210.563 636.855 210.635 636.888 210.723C636.92 210.811 636.916 210.909 636.877 210.994L636.873 211.001Z" fill="#0C0C0C"/>
</g>
<g opacity="0.2">
<path d="M633.684 218.513C633.643 218.596 633.571 218.66 633.484 218.69C633.397 218.721 633.301 218.717 633.218 218.678L619.424 212.272C619.381 212.252 619.344 212.225 619.312 212.19C619.281 212.156 619.257 212.116 619.241 212.072C619.225 212.028 619.218 211.982 619.22 211.936C619.222 211.889 619.233 211.844 619.253 211.802C619.273 211.759 619.301 211.722 619.335 211.69C619.369 211.659 619.409 211.635 619.453 211.619C619.497 211.603 619.543 211.596 619.59 211.598C619.636 211.6 619.682 211.611 619.724 211.631L633.518 218.036C633.602 218.076 633.668 218.148 633.7 218.236C633.732 218.324 633.728 218.421 633.689 218.506L633.684 218.513Z" fill="#0C0C0C"/>
</g>
<path d="M643.415 238.4L750.672 291.012C755.213 293.103 760.253 293.867 765.21 293.217C770.167 292.566 774.839 290.527 778.687 287.335C782.534 284.143 785.401 279.928 786.955 275.176C788.51 270.424 788.689 265.33 787.472 260.481L758.832 157.512C757.121 150.692 752.772 144.832 746.74 141.219C740.708 137.607 733.489 136.538 726.669 138.249C712.469 141.812 704.844 156.211 708.407 170.412L730.877 226.087L662.149 197.271L643.415 238.4Z" fill="#367CFF"/>
<path d="M743.615 288.124C743.582 288.118 743.551 288.107 743.521 288.093L643.261 238.718C643.178 238.677 643.114 238.606 643.083 238.52C643.051 238.433 643.055 238.338 643.093 238.254L661.825 197.125C661.862 197.04 661.932 196.974 662.017 196.94C662.103 196.907 662.199 196.908 662.284 196.945L729.334 224.475L716.064 184.508C716.051 184.463 716.047 184.416 716.053 184.37C716.058 184.324 716.073 184.279 716.095 184.239C716.118 184.198 716.148 184.163 716.185 184.134C716.221 184.105 716.263 184.084 716.307 184.071C716.352 184.058 716.399 184.055 716.445 184.06C716.491 184.065 716.535 184.08 716.576 184.102C716.617 184.125 716.652 184.155 716.681 184.192C716.71 184.228 716.731 184.27 716.744 184.315L730.214 224.99C730.232 225.054 730.232 225.122 730.213 225.186C730.194 225.25 730.158 225.307 730.108 225.351C730.058 225.396 729.997 225.425 729.931 225.436C729.865 225.446 729.797 225.438 729.736 225.413L662.326 197.73L643.88 238.23L743.829 287.454C743.905 287.491 743.965 287.555 743.999 287.633C744.032 287.711 744.036 287.799 744.01 287.879C743.984 287.96 743.93 288.029 743.857 288.074C743.785 288.118 743.699 288.134 743.615 288.121V288.124Z" fill="#0C0C0C"/>
<path d="M741.9 230.836C741.871 230.831 741.843 230.823 741.816 230.811L729.732 225.411C729.689 225.392 729.651 225.365 729.619 225.331C729.587 225.298 729.562 225.258 729.546 225.215C729.529 225.171 729.521 225.125 729.523 225.079C729.524 225.033 729.534 224.987 729.553 224.945C729.572 224.902 729.599 224.864 729.633 224.832C729.666 224.8 729.706 224.775 729.749 224.759C729.793 224.742 729.839 224.734 729.885 224.735C729.932 224.737 729.977 224.747 730.02 224.766L742.105 230.166C742.182 230.201 742.244 230.264 742.279 230.341C742.314 230.419 742.32 230.506 742.296 230.588C742.272 230.67 742.219 230.74 742.147 230.785C742.075 230.831 741.989 230.849 741.905 230.836H741.9Z" fill="#0C0C0C"/>
<path d="M605.284 158.692C604.769 158.047 604.059 157.585 603.26 157.377C602.462 157.169 601.617 157.224 600.852 157.536C600.847 157.489 600.83 157.443 600.803 157.404C600.776 157.364 600.74 157.332 600.698 157.309C600.655 157.287 600.608 157.276 600.56 157.276C600.513 157.276 600.465 157.288 600.423 157.31L602.508 154.79C603.149 154.045 603.491 153.089 603.468 152.107C603.444 151.125 603.056 150.186 602.38 149.473C601.723 148.823 600.854 148.433 599.932 148.374C599.01 148.315 598.097 148.591 597.363 149.152C597.363 149.114 597.327 149.086 597.312 149.052L598.165 148.021C598.751 147.339 599.084 146.477 599.11 145.578C599.136 144.68 598.853 143.8 598.308 143.085C597.953 142.639 597.502 142.277 596.99 142.027C596.477 141.777 595.915 141.644 595.345 141.639C594.774 141.633 594.21 141.755 593.692 141.995C593.175 142.235 592.717 142.588 592.353 143.027L590.383 145.407C590.372 145.395 590.374 145.376 590.361 145.365C590.348 145.354 590.321 145.356 590.303 145.345C590.696 144.571 590.813 143.686 590.637 142.837C590.46 141.987 590 141.222 589.332 140.668C587.699 139.126 585.152 140.2 583.879 141.74L571.841 156.025L572.187 155.379L573.614 150.387C573.902 149.448 573.832 148.435 573.416 147.545C573 146.654 572.269 145.95 571.363 145.568C570.867 145.377 570.336 145.291 569.804 145.317C569.273 145.342 568.753 145.477 568.277 145.715C567.8 145.952 567.379 146.286 567.039 146.695C566.699 147.104 566.448 147.58 566.301 148.091L559.648 171.371L558.033 177.024C557.258 179.736 557.571 182.642 558.905 185.127C560.24 187.611 562.49 189.477 565.178 190.329L566.936 190.886C570.6 192.047 574.527 192.087 578.213 191.001C581.9 189.916 585.178 187.754 587.628 184.793L605.141 163.627C605.727 162.945 606.061 162.083 606.087 161.185C606.113 160.287 605.829 159.407 605.284 158.692Z" fill="#E98862"/>
<g opacity="0.2">
<path d="M578.806 158.892C578.878 158.951 578.969 158.979 579.061 158.97C579.153 158.962 579.238 158.918 579.298 158.848L590.398 145.863C590.431 145.828 590.457 145.787 590.473 145.742C590.49 145.697 590.497 145.649 590.495 145.601C590.492 145.553 590.48 145.506 590.459 145.463C590.438 145.42 590.408 145.382 590.372 145.351C590.335 145.32 590.293 145.296 590.247 145.282C590.201 145.267 590.153 145.263 590.105 145.267C590.057 145.272 590.011 145.287 589.969 145.31C589.927 145.334 589.891 145.365 589.861 145.403L578.761 158.388C578.731 158.424 578.708 158.465 578.693 158.509C578.679 158.553 578.673 158.6 578.677 158.646C578.68 158.693 578.693 158.738 578.714 158.78C578.736 158.821 578.765 158.858 578.8 158.888L578.806 158.892Z" fill="#0C0C0C"/>
</g>
<g opacity="0.2">
<path d="M584.4 163.946C584.472 164.005 584.563 164.033 584.655 164.024C584.747 164.016 584.832 163.972 584.892 163.902L597.282 149.411C597.312 149.376 597.335 149.335 597.35 149.291C597.364 149.246 597.37 149.2 597.366 149.153C597.363 149.107 597.35 149.062 597.329 149.02C597.308 148.979 597.278 148.942 597.243 148.911C597.17 148.853 597.078 148.825 596.985 148.832C596.892 148.839 596.806 148.882 596.743 148.95L584.354 163.441C584.324 163.477 584.301 163.518 584.286 163.562C584.272 163.606 584.266 163.653 584.27 163.699C584.273 163.746 584.286 163.791 584.307 163.833C584.328 163.874 584.357 163.911 584.393 163.941L584.4 163.946Z" fill="#0C0C0C"/>
</g>
<g opacity="0.2">
<path d="M590.423 169.456C590.495 169.514 590.586 169.542 590.678 169.534C590.77 169.525 590.855 169.482 590.915 169.412L600.798 157.853C600.831 157.818 600.857 157.777 600.874 157.732C600.89 157.686 600.898 157.639 600.895 157.591C600.893 157.543 600.88 157.496 600.859 157.453C600.838 157.41 600.808 157.371 600.772 157.34C600.735 157.309 600.693 157.285 600.647 157.271C600.601 157.257 600.553 157.252 600.505 157.257C600.458 157.262 600.411 157.276 600.369 157.3C600.327 157.323 600.291 157.355 600.261 157.393L590.377 168.953C590.347 168.988 590.324 169.029 590.309 169.073C590.295 169.118 590.289 169.164 590.293 169.211C590.297 169.257 590.31 169.303 590.331 169.344C590.352 169.386 590.382 169.422 590.417 169.453L590.423 169.456Z" fill="#0C0C0C"/>
</g>
<path d="M597.365 184.058L577.631 272.8C576.509 279.741 572.676 285.952 566.975 290.067C561.274 294.181 554.172 295.863 547.232 294.741C540.291 293.62 534.08 289.787 529.965 284.086C525.851 278.385 524.169 271.283 525.291 264.342L552.386 169.533" fill="#367CFF"/>
<path d="M579.166 256.319L590.293 215.443" stroke="#0C0C0C" stroke-width="0.75" stroke-linecap="round" stroke-linejoin="round"/>
<path d="M767.177 775.221H71.0479C70.7826 775.221 70.5283 775.115 70.3408 774.928C70.1532 774.74 70.0479 774.486 70.0479 774.221C70.0479 773.955 70.1532 773.701 70.3408 773.514C70.5283 773.326 70.7826 773.221 71.0479 773.221H767.177C767.442 773.221 767.696 773.326 767.884 773.514C768.072 773.701 768.177 773.955 768.177 774.221C768.177 774.486 768.072 774.74 767.884 774.928C767.696 775.115 767.442 775.221 767.177 775.221Z" fill="#292A2E"/>
</g>
<defs>
<clipPath id="clip0_383_2190">
<rect width="788.266" height="775.221" fill="white"/>
</clipPath>
</defs>
</svg>
