<svg width="835" height="309" viewBox="0 0 835 309" fill="none" xmlns="http://www.w3.org/2000/svg">
<path d="M333.04 146.92L320.76 175H312.48L311.24 156.56L303.36 175H295.08L292.92 146.92H300.24L300.68 167.36L309.28 146.92H316.84L318.04 167.24L325.68 146.92H333.04ZM339.31 150.36C338.244 150.36 337.39 150.08 336.75 149.52C336.137 148.933 335.83 148.2 335.83 147.32C335.83 146.12 336.297 145.093 337.23 144.24C338.164 143.387 339.297 142.96 340.63 142.96C341.697 142.96 342.537 143.253 343.15 143.84C343.764 144.4 344.07 145.133 344.07 146.04C344.07 147.213 343.604 148.227 342.67 149.08C341.737 149.933 340.617 150.36 339.31 150.36ZM342.27 152.68L338.35 175H331.51L335.43 152.68H342.27ZM352.587 167.32C352.561 167.453 352.547 167.627 352.547 167.84C352.547 168.32 352.681 168.667 352.947 168.88C353.241 169.093 353.707 169.2 354.347 169.2H356.787L355.747 175H352.267C347.787 175 345.547 173.12 345.547 169.36C345.547 168.8 345.614 168.093 345.747 167.24L347.347 158.36H344.627L345.627 152.68H348.347L349.307 147.24H356.147L355.187 152.68H359.667L358.667 158.36H354.187L352.587 167.32ZM377.237 152.44C379.424 152.44 381.144 153.067 382.397 154.32C383.677 155.573 384.317 157.32 384.317 159.56C384.317 160.307 384.237 161.107 384.077 161.96L381.757 175H374.957L377.117 162.88C377.197 162.427 377.237 162.027 377.237 161.68C377.237 160.56 376.917 159.693 376.277 159.08C375.664 158.467 374.797 158.16 373.677 158.16C372.344 158.16 371.224 158.573 370.317 159.4C369.411 160.227 368.824 161.387 368.557 162.88V162.8L366.397 175H359.557L364.797 145.4H371.637L369.837 155.64C370.717 154.653 371.797 153.88 373.077 153.32C374.357 152.733 375.744 152.44 377.237 152.44Z" fill="#555C76"/>
<path d="M64.6 110H53.2L18.9 58.1V110H7.5V40.4H18.9L53.2 92.2V40.4H64.6V110ZM103.47 110.9C98.2703 110.9 93.5703 109.733 89.3703 107.4C85.1703 105 81.8703 101.667 79.4703 97.4C77.0703 93.0667 75.8703 88.0667 75.8703 82.4C75.8703 76.8 77.1036 71.8333 79.5703 67.5C82.037 63.1667 85.4036 59.8333 89.6703 57.5C93.937 55.1667 98.7036 54 103.97 54C109.237 54 114.004 55.1667 118.27 57.5C122.537 59.8333 125.904 63.1667 128.37 67.5C130.837 71.8333 132.07 76.8 132.07 82.4C132.07 88 130.804 92.9667 128.27 97.3C125.737 101.633 122.27 105 117.87 107.4C113.537 109.733 108.737 110.9 103.47 110.9ZM103.47 101C106.404 101 109.137 100.3 111.67 98.9C114.27 97.5 116.37 95.4 117.97 92.6C119.57 89.8 120.37 86.4 120.37 82.4C120.37 78.4 119.604 75.0333 118.07 72.3C116.537 69.5 114.504 67.4 111.97 66C109.437 64.6 106.704 63.9 103.77 63.9C100.837 63.9 98.1036 64.6 95.5703 66C93.1036 67.4 91.137 69.5 89.6703 72.3C88.2036 75.0333 87.4703 78.4 87.4703 82.4C87.4703 88.3333 88.9703 92.9333 91.9703 96.2C95.037 99.4 98.8703 101 103.47 101Z" fill="#555C76"/>
<path d="M192.016 40.5C199.416 40.5 205.883 41.9333 211.416 44.8C217.016 47.6 221.316 51.6667 224.316 57C227.383 62.2667 228.916 68.4333 228.916 75.5C228.916 82.5667 227.383 88.7 224.316 93.9C221.316 99.1 217.016 103.1 211.416 105.9C205.883 108.633 199.416 110 192.016 110H169.316V40.5H192.016ZM192.016 100.7C200.15 100.7 206.383 98.5 210.716 94.1C215.05 89.7 217.216 83.5 217.216 75.5C217.216 67.4333 215.05 61.1333 210.716 56.6C206.383 52.0667 200.15 49.8 192.016 49.8H180.716V100.7H192.016ZM290.115 54.9V110H278.715V103.5C276.915 105.767 274.548 107.567 271.615 108.9C268.748 110.167 265.682 110.8 262.415 110.8C258.082 110.8 254.182 109.9 250.715 108.1C247.315 106.3 244.615 103.633 242.615 100.1C240.682 96.5667 239.715 92.3 239.715 87.3V54.9H251.015V85.6C251.015 90.5333 252.248 94.3333 254.715 97C257.182 99.6 260.548 100.9 264.815 100.9C269.082 100.9 272.448 99.6 274.915 97C277.448 94.3333 278.715 90.5333 278.715 85.6V54.9H290.115ZM355.656 81.1C355.656 83.1667 355.523 85.0333 355.256 86.7H313.156C313.49 91.1 315.123 94.6333 318.056 97.3C320.99 99.9667 324.59 101.3 328.856 101.3C334.99 101.3 339.323 98.7333 341.856 93.6H354.156C352.49 98.6667 349.456 102.833 345.056 106.1C340.723 109.3 335.323 110.9 328.856 110.9C323.59 110.9 318.856 109.733 314.656 107.4C310.523 105 307.256 101.667 304.856 97.4C302.523 93.0667 301.356 88.0667 301.356 82.4C301.356 76.7333 302.49 71.7667 304.756 67.5C307.09 63.1667 310.323 59.8333 314.456 57.5C318.656 55.1667 323.456 54 328.856 54C334.056 54 338.69 55.1333 342.756 57.4C346.823 59.6667 349.99 62.8667 352.256 67C354.523 71.0667 355.656 75.7667 355.656 81.1ZM343.756 77.5C343.69 73.3 342.19 69.9333 339.256 67.4C336.323 64.8667 332.69 63.6 328.356 63.6C324.423 63.6 321.056 64.8667 318.256 67.4C315.456 69.8667 313.79 73.2333 313.256 77.5H343.756ZM386.875 110.9C382.542 110.9 378.642 110.133 375.175 108.6C371.775 107 369.075 104.867 367.075 102.2C365.075 99.4667 364.008 96.4333 363.875 93.1H375.675C375.875 95.4333 376.975 97.4 378.975 99C381.042 100.533 383.608 101.3 386.675 101.3C389.875 101.3 392.342 100.7 394.075 99.5C395.875 98.2333 396.775 96.6333 396.775 94.7C396.775 92.6333 395.775 91.1 393.775 90.1C391.842 89.1 388.742 88 384.475 86.8C380.342 85.6667 376.975 84.5667 374.375 83.5C371.775 82.4333 369.508 80.8 367.575 78.6C365.708 76.4 364.775 73.5 364.775 69.9C364.775 66.9667 365.642 64.3 367.375 61.9C369.108 59.4333 371.575 57.5 374.775 56.1C378.042 54.7 381.775 54 385.975 54C392.242 54 397.275 55.6 401.075 58.8C404.942 61.9333 407.008 66.2333 407.275 71.7H395.875C395.675 69.2333 394.675 67.2667 392.875 65.8C391.075 64.3333 388.642 63.6 385.575 63.6C382.575 63.6 380.275 64.1667 378.675 65.3C377.075 66.4333 376.275 67.9333 376.275 69.8C376.275 71.2667 376.808 72.5 377.875 73.5C378.942 74.5 380.242 75.3 381.775 75.9C383.308 76.4333 385.575 77.1333 388.575 78C392.575 79.0667 395.842 80.1667 398.375 81.3C400.975 82.3667 403.208 83.9667 405.075 86.1C406.942 88.2333 407.908 91.0667 407.975 94.6C407.975 97.7333 407.108 100.533 405.375 103C403.642 105.467 401.175 107.4 397.975 108.8C394.842 110.2 391.142 110.9 386.875 110.9Z" fill="#555C76"/>
<path d="M192.016 40.5C199.416 40.5 205.883 41.9333 211.416 44.8C217.016 47.6 221.316 51.6667 224.316 57C227.383 62.2667 228.916 68.4333 228.916 75.5C228.916 82.5667 227.383 88.7 224.316 93.9C221.316 99.1 217.016 103.1 211.416 105.9C205.883 108.633 199.416 110 192.016 110H169.316V40.5H192.016ZM192.016 100.7C200.15 100.7 206.383 98.5 210.716 94.1C215.05 89.7 217.216 83.5 217.216 75.5C217.216 67.4333 215.05 61.1333 210.716 56.6C206.383 52.0667 200.15 49.8 192.016 49.8H180.716V100.7H192.016ZM290.115 54.9V110H278.715V103.5C276.915 105.767 274.548 107.567 271.615 108.9C268.748 110.167 265.682 110.8 262.415 110.8C258.082 110.8 254.182 109.9 250.715 108.1C247.315 106.3 244.615 103.633 242.615 100.1C240.682 96.5667 239.715 92.3 239.715 87.3V54.9H251.015V85.6C251.015 90.5333 252.248 94.3333 254.715 97C257.182 99.6 260.548 100.9 264.815 100.9C269.082 100.9 272.448 99.6 274.915 97C277.448 94.3333 278.715 90.5333 278.715 85.6V54.9H290.115ZM355.656 81.1C355.656 83.1667 355.523 85.0333 355.256 86.7H313.156C313.49 91.1 315.123 94.6333 318.056 97.3C320.99 99.9667 324.59 101.3 328.856 101.3C334.99 101.3 339.323 98.7333 341.856 93.6H354.156C352.49 98.6667 349.456 102.833 345.056 106.1C340.723 109.3 335.323 110.9 328.856 110.9C323.59 110.9 318.856 109.733 314.656 107.4C310.523 105 307.256 101.667 304.856 97.4C302.523 93.0667 301.356 88.0667 301.356 82.4C301.356 76.7333 302.49 71.7667 304.756 67.5C307.09 63.1667 310.323 59.8333 314.456 57.5C318.656 55.1667 323.456 54 328.856 54C334.056 54 338.69 55.1333 342.756 57.4C346.823 59.6667 349.99 62.8667 352.256 67C354.523 71.0667 355.656 75.7667 355.656 81.1ZM343.756 77.5C343.69 73.3 342.19 69.9333 339.256 67.4C336.323 64.8667 332.69 63.6 328.356 63.6C324.423 63.6 321.056 64.8667 318.256 67.4C315.456 69.8667 313.79 73.2333 313.256 77.5H343.756ZM386.875 110.9C382.542 110.9 378.642 110.133 375.175 108.6C371.775 107 369.075 104.867 367.075 102.2C365.075 99.4667 364.008 96.4333 363.875 93.1H375.675C375.875 95.4333 376.975 97.4 378.975 99C381.042 100.533 383.608 101.3 386.675 101.3C389.875 101.3 392.342 100.7 394.075 99.5C395.875 98.2333 396.775 96.6333 396.775 94.7C396.775 92.6333 395.775 91.1 393.775 90.1C391.842 89.1 388.742 88 384.475 86.8C380.342 85.6667 376.975 84.5667 374.375 83.5C371.775 82.4333 369.508 80.8 367.575 78.6C365.708 76.4 364.775 73.5 364.775 69.9C364.775 66.9667 365.642 64.3 367.375 61.9C369.108 59.4333 371.575 57.5 374.775 56.1C378.042 54.7 381.775 54 385.975 54C392.242 54 397.275 55.6 401.075 58.8C404.942 61.9333 407.008 66.2333 407.275 71.7H395.875C395.675 69.2333 394.675 67.2667 392.875 65.8C391.075 64.3333 388.642 63.6 385.575 63.6C382.575 63.6 380.275 64.1667 378.675 65.3C377.075 66.4333 376.275 67.9333 376.275 69.8C376.275 71.2667 376.808 72.5 377.875 73.5C378.942 74.5 380.242 75.3 381.775 75.9C383.308 76.4333 385.575 77.1333 388.575 78C392.575 79.0667 395.842 80.1667 398.375 81.3C400.975 82.3667 403.208 83.9667 405.075 86.1C406.942 88.2333 407.908 91.0667 407.975 94.6C407.975 97.7333 407.108 100.533 405.375 103C403.642 105.467 401.175 107.4 397.975 108.8C394.842 110.2 391.142 110.9 386.875 110.9Z" fill="#555C76"/>
<path d="M192.016 40.5C199.416 40.5 205.883 41.9333 211.416 44.8C217.016 47.6 221.316 51.6667 224.316 57C227.383 62.2667 228.916 68.4333 228.916 75.5C228.916 82.5667 227.383 88.7 224.316 93.9C221.316 99.1 217.016 103.1 211.416 105.9C205.883 108.633 199.416 110 192.016 110H169.316V40.5H192.016ZM192.016 100.7C200.15 100.7 206.383 98.5 210.716 94.1C215.05 89.7 217.216 83.5 217.216 75.5C217.216 67.4333 215.05 61.1333 210.716 56.6C206.383 52.0667 200.15 49.8 192.016 49.8H180.716V100.7H192.016ZM290.115 54.9V110H278.715V103.5C276.915 105.767 274.548 107.567 271.615 108.9C268.748 110.167 265.682 110.8 262.415 110.8C258.082 110.8 254.182 109.9 250.715 108.1C247.315 106.3 244.615 103.633 242.615 100.1C240.682 96.5667 239.715 92.3 239.715 87.3V54.9H251.015V85.6C251.015 90.5333 252.248 94.3333 254.715 97C257.182 99.6 260.548 100.9 264.815 100.9C269.082 100.9 272.448 99.6 274.915 97C277.448 94.3333 278.715 90.5333 278.715 85.6V54.9H290.115ZM355.656 81.1C355.656 83.1667 355.523 85.0333 355.256 86.7H313.156C313.49 91.1 315.123 94.6333 318.056 97.3C320.99 99.9667 324.59 101.3 328.856 101.3C334.99 101.3 339.323 98.7333 341.856 93.6H354.156C352.49 98.6667 349.456 102.833 345.056 106.1C340.723 109.3 335.323 110.9 328.856 110.9C323.59 110.9 318.856 109.733 314.656 107.4C310.523 105 307.256 101.667 304.856 97.4C302.523 93.0667 301.356 88.0667 301.356 82.4C301.356 76.7333 302.49 71.7667 304.756 67.5C307.09 63.1667 310.323 59.8333 314.456 57.5C318.656 55.1667 323.456 54 328.856 54C334.056 54 338.69 55.1333 342.756 57.4C346.823 59.6667 349.99 62.8667 352.256 67C354.523 71.0667 355.656 75.7667 355.656 81.1ZM343.756 77.5C343.69 73.3 342.19 69.9333 339.256 67.4C336.323 64.8667 332.69 63.6 328.356 63.6C324.423 63.6 321.056 64.8667 318.256 67.4C315.456 69.8667 313.79 73.2333 313.256 77.5H343.756ZM386.875 110.9C382.542 110.9 378.642 110.133 375.175 108.6C371.775 107 369.075 104.867 367.075 102.2C365.075 99.4667 364.008 96.4333 363.875 93.1H375.675C375.875 95.4333 376.975 97.4 378.975 99C381.042 100.533 383.608 101.3 386.675 101.3C389.875 101.3 392.342 100.7 394.075 99.5C395.875 98.2333 396.775 96.6333 396.775 94.7C396.775 92.6333 395.775 91.1 393.775 90.1C391.842 89.1 388.742 88 384.475 86.8C380.342 85.6667 376.975 84.5667 374.375 83.5C371.775 82.4333 369.508 80.8 367.575 78.6C365.708 76.4 364.775 73.5 364.775 69.9C364.775 66.9667 365.642 64.3 367.375 61.9C369.108 59.4333 371.575 57.5 374.775 56.1C378.042 54.7 381.775 54 385.975 54C392.242 54 397.275 55.6 401.075 58.8C404.942 61.9333 407.008 66.2333 407.275 71.7H395.875C395.675 69.2333 394.675 67.2667 392.875 65.8C391.075 64.3333 388.642 63.6 385.575 63.6C382.575 63.6 380.275 64.1667 378.675 65.3C377.075 66.4333 376.275 67.9333 376.275 69.8C376.275 71.2667 376.808 72.5 377.875 73.5C378.942 74.5 380.242 75.3 381.775 75.9C383.308 76.4333 385.575 77.1333 388.575 78C392.575 79.0667 395.842 80.1667 398.375 81.3C400.975 82.3667 403.208 83.9667 405.075 86.1C406.942 88.2333 407.908 91.0667 407.975 94.6C407.975 97.7333 407.108 100.533 405.375 103C403.642 105.467 401.175 107.4 397.975 108.8C394.842 110.2 391.142 110.9 386.875 110.9Z" fill="#555C76"/>
<path d="M355.6 269H344.2L309.9 217.1V269H298.5V199.4H309.9L344.2 251.2V199.4H355.6V269ZM394.47 269.9C389.27 269.9 384.57 268.733 380.37 266.4C376.17 264 372.87 260.667 370.47 256.4C368.07 252.067 366.87 247.067 366.87 241.4C366.87 235.8 368.104 230.833 370.57 226.5C373.037 222.167 376.404 218.833 380.67 216.5C384.937 214.167 389.704 213 394.97 213C400.237 213 405.004 214.167 409.27 216.5C413.537 218.833 416.904 222.167 419.37 226.5C421.837 230.833 423.07 235.8 423.07 241.4C423.07 247 421.804 251.967 419.27 256.3C416.737 260.633 413.27 264 408.87 266.4C404.537 268.733 399.737 269.9 394.47 269.9ZM394.47 260C397.404 260 400.137 259.3 402.67 257.9C405.27 256.5 407.37 254.4 408.97 251.6C410.57 248.8 411.37 245.4 411.37 241.4C411.37 237.4 410.604 234.033 409.07 231.3C407.537 228.5 405.504 226.4 402.97 225C400.437 223.6 397.704 222.9 394.77 222.9C391.837 222.9 389.104 223.6 386.57 225C384.104 226.4 382.137 228.5 380.67 231.3C379.204 234.033 378.47 237.4 378.47 241.4C378.47 247.333 379.97 251.933 382.97 255.2C386.037 258.4 389.87 260 394.47 260Z" fill="#555C76"/>
<path d="M355.6 269H344.2L309.9 217.1V269H298.5V199.4H309.9L344.2 251.2V199.4H355.6V269ZM394.47 269.9C389.27 269.9 384.57 268.733 380.37 266.4C376.17 264 372.87 260.667 370.47 256.4C368.07 252.067 366.87 247.067 366.87 241.4C366.87 235.8 368.104 230.833 370.57 226.5C373.037 222.167 376.404 218.833 380.67 216.5C384.937 214.167 389.704 213 394.97 213C400.237 213 405.004 214.167 409.27 216.5C413.537 218.833 416.904 222.167 419.37 226.5C421.837 230.833 423.07 235.8 423.07 241.4C423.07 247 421.804 251.967 419.27 256.3C416.737 260.633 413.27 264 408.87 266.4C404.537 268.733 399.737 269.9 394.47 269.9ZM394.47 260C397.404 260 400.137 259.3 402.67 257.9C405.27 256.5 407.37 254.4 408.97 251.6C410.57 248.8 411.37 245.4 411.37 241.4C411.37 237.4 410.604 234.033 409.07 231.3C407.537 228.5 405.504 226.4 402.97 225C400.437 223.6 397.704 222.9 394.77 222.9C391.837 222.9 389.104 223.6 386.57 225C384.104 226.4 382.137 228.5 380.67 231.3C379.204 234.033 378.47 237.4 378.47 241.4C378.47 247.333 379.97 251.933 382.97 255.2C386.037 258.4 389.87 260 394.47 260Z" fill="#555C76"/>
<path d="M355.6 269H344.2L309.9 217.1V269H298.5V199.4H309.9L344.2 251.2V199.4H355.6V269ZM394.47 269.9C389.27 269.9 384.57 268.733 380.37 266.4C376.17 264 372.87 260.667 370.47 256.4C368.07 252.067 366.87 247.067 366.87 241.4C366.87 235.8 368.104 230.833 370.57 226.5C373.037 222.167 376.404 218.833 380.67 216.5C384.937 214.167 389.704 213 394.97 213C400.237 213 405.004 214.167 409.27 216.5C413.537 218.833 416.904 222.167 419.37 226.5C421.837 230.833 423.07 235.8 423.07 241.4C423.07 247 421.804 251.967 419.27 256.3C416.737 260.633 413.27 264 408.87 266.4C404.537 268.733 399.737 269.9 394.47 269.9ZM394.47 260C397.404 260 400.137 259.3 402.67 257.9C405.27 256.5 407.37 254.4 408.97 251.6C410.57 248.8 411.37 245.4 411.37 241.4C411.37 237.4 410.604 234.033 409.07 231.3C407.537 228.5 405.504 226.4 402.97 225C400.437 223.6 397.704 222.9 394.77 222.9C391.837 222.9 389.104 223.6 386.57 225C384.104 226.4 382.137 228.5 380.67 231.3C379.204 234.033 378.47 237.4 378.47 241.4C378.47 247.333 379.97 251.933 382.97 255.2C386.037 258.4 389.87 260 394.47 260Z" fill="#555C76"/>
<path d="M550.816 199.5L530.216 269H517.316L502.716 216.4L487.216 269L474.416 269.1L454.716 199.5H466.816L481.216 256.1L496.816 199.5H509.616L524.116 255.8L538.616 199.5H550.816ZM584.119 269.9C578.919 269.9 574.219 268.733 570.019 266.4C565.819 264 562.519 260.667 560.119 256.4C557.719 252.067 556.519 247.067 556.519 241.4C556.519 235.8 557.752 230.833 560.219 226.5C562.685 222.167 566.052 218.833 570.319 216.5C574.585 214.167 579.352 213 584.619 213C589.885 213 594.652 214.167 598.919 216.5C603.185 218.833 606.552 222.167 609.019 226.5C611.485 230.833 612.719 235.8 612.719 241.4C612.719 247 611.452 251.967 608.919 256.3C606.385 260.633 602.919 264 598.519 266.4C594.185 268.733 589.385 269.9 584.119 269.9ZM584.119 260C587.052 260 589.785 259.3 592.319 257.9C594.919 256.5 597.019 254.4 598.619 251.6C600.219 248.8 601.019 245.4 601.019 241.4C601.019 237.4 600.252 234.033 598.719 231.3C597.185 228.5 595.152 226.4 592.619 225C590.085 223.6 587.352 222.9 584.419 222.9C581.485 222.9 578.752 223.6 576.219 225C573.752 226.4 571.785 228.5 570.319 231.3C568.852 234.033 568.119 237.4 568.119 241.4C568.119 247.333 569.619 251.933 572.619 255.2C575.685 258.4 579.519 260 584.119 260ZM635.388 221.9C637.055 219.1 639.255 216.933 641.988 215.4C644.788 213.8 648.088 213 651.888 213V224.8H648.988C644.522 224.8 641.122 225.933 638.788 228.2C636.522 230.467 635.388 234.4 635.388 240V269H623.988V213.9H635.388V221.9ZM673.767 221.9C675.434 219.1 677.634 216.933 680.367 215.4C683.167 213.8 686.467 213 690.267 213V224.8H687.367C682.901 224.8 679.501 225.933 677.167 228.2C674.901 230.467 673.767 234.4 673.767 240V269H662.367V213.9H673.767V221.9ZM706.546 206.6C704.479 206.6 702.746 205.9 701.346 204.5C699.946 203.1 699.246 201.367 699.246 199.3C699.246 197.233 699.946 195.5 701.346 194.1C702.746 192.7 704.479 192 706.546 192C708.546 192 710.246 192.7 711.646 194.1C713.046 195.5 713.746 197.233 713.746 199.3C713.746 201.367 713.046 203.1 711.646 204.5C710.246 205.9 708.546 206.6 706.546 206.6ZM712.146 213.9V269H700.746V213.9H712.146ZM777.613 240.1C777.613 242.167 777.48 244.033 777.213 245.7H735.113C735.447 250.1 737.08 253.633 740.013 256.3C742.947 258.967 746.547 260.3 750.813 260.3C756.947 260.3 761.28 257.733 763.813 252.6H776.113C774.447 257.667 771.413 261.833 767.013 265.1C762.68 268.3 757.28 269.9 750.813 269.9C745.547 269.9 740.813 268.733 736.613 266.4C732.48 264 729.213 260.667 726.813 256.4C724.48 252.067 723.313 247.067 723.313 241.4C723.313 235.733 724.447 230.767 726.713 226.5C729.047 222.167 732.28 218.833 736.413 216.5C740.613 214.167 745.413 213 750.813 213C756.013 213 760.647 214.133 764.713 216.4C768.78 218.667 771.947 221.867 774.213 226C776.48 230.067 777.613 234.767 777.613 240.1ZM765.713 236.5C765.647 232.3 764.147 228.933 761.213 226.4C758.28 223.867 754.647 222.6 750.313 222.6C746.38 222.6 743.013 223.867 740.213 226.4C737.413 228.867 735.747 232.233 735.213 236.5H765.713ZM808.832 269.9C804.499 269.9 800.599 269.133 797.132 267.6C793.732 266 791.032 263.867 789.032 261.2C787.032 258.467 785.965 255.433 785.832 252.1H797.632C797.832 254.433 798.932 256.4 800.932 258C802.999 259.533 805.565 260.3 808.632 260.3C811.832 260.3 814.299 259.7 816.032 258.5C817.832 257.233 818.732 255.633 818.732 253.7C818.732 251.633 817.732 250.1 815.732 249.1C813.799 248.1 810.699 247 806.432 245.8C802.299 244.667 798.932 243.567 796.332 242.5C793.732 241.433 791.465 239.8 789.532 237.6C787.665 235.4 786.732 232.5 786.732 228.9C786.732 225.967 787.599 223.3 789.332 220.9C791.065 218.433 793.532 216.5 796.732 215.1C799.999 213.7 803.732 213 807.932 213C814.199 213 819.232 214.6 823.032 217.8C826.899 220.933 828.965 225.233 829.232 230.7H817.832C817.632 228.233 816.632 226.267 814.832 224.8C813.032 223.333 810.599 222.6 807.532 222.6C804.532 222.6 802.232 223.167 800.632 224.3C799.032 225.433 798.232 226.933 798.232 228.8C798.232 230.267 798.765 231.5 799.832 232.5C800.899 233.5 802.199 234.3 803.732 234.9C805.265 235.433 807.532 236.133 810.532 237C814.532 238.067 817.799 239.167 820.332 240.3C822.932 241.367 825.165 242.967 827.032 245.1C828.899 247.233 829.865 250.067 829.932 253.6C829.932 256.733 829.065 259.533 827.332 262C825.599 264.467 823.132 266.4 819.932 267.8C816.799 269.2 813.099 269.9 808.832 269.9Z" fill="#538FF8"/>
</svg>
