<svg width="112" height="24" viewBox="0 0 112 24" fill="none" xmlns="http://www.w3.org/2000/svg">
<path d="M4.048 3.704V10.232H11.728V13.208H4.048V20.024H12.688V23H0.4V0.727999H12.688V3.704H4.048ZM20.7013 19.832H31.0373V23H16.3813V20.152L26.6853 3.928H16.3813V0.759998H31.0373V3.608L20.7013 19.832ZM42.289 0.759998C44.657 0.759998 46.7263 1.21867 48.497 2.136C50.289 3.032 51.665 4.33333 52.625 6.04C53.6063 7.72533 54.097 9.69867 54.097 11.96C54.097 14.2213 53.6063 16.184 52.625 17.848C51.665 19.512 50.289 20.792 48.497 21.688C46.7263 22.5627 44.657 23 42.289 23H35.025V0.759998H42.289ZM42.289 20.024C44.8917 20.024 46.8863 19.32 48.273 17.912C49.6597 16.504 50.353 14.52 50.353 11.96C50.353 9.37867 49.6597 7.36267 48.273 5.912C46.8863 4.46133 44.8917 3.736 42.289 3.736H38.673V20.024H42.289ZM73.6805 5.368V23H70.0325V20.92C69.4565 21.6453 68.6992 22.2213 67.7605 22.648C66.8432 23.0533 65.8618 23.256 64.8165 23.256C63.4298 23.256 62.1818 22.968 61.0725 22.392C59.9845 21.816 59.1205 20.9627 58.4805 19.832C57.8618 18.7013 57.5525 17.336 57.5525 15.736V5.368H61.1685V15.192C61.1685 16.7707 61.5632 17.9867 62.3525 18.84C63.1418 19.672 64.2192 20.088 65.5845 20.088C66.9498 20.088 68.0272 19.672 68.8165 18.84C69.6272 17.9867 70.0325 16.7707 70.0325 15.192V5.368H73.6805ZM94.6538 13.752C94.6538 14.4133 94.6111 15.0107 94.5258 15.544H81.0538C81.1604 16.952 81.6831 18.0827 82.6218 18.936C83.5604 19.7893 84.7124 20.216 86.0778 20.216C88.0404 20.216 89.4271 19.3947 90.2378 17.752H94.1737C93.6404 19.3733 92.6698 20.7067 91.2618 21.752C89.8751 22.776 88.1471 23.288 86.0778 23.288C84.3924 23.288 82.8778 22.9147 81.5338 22.168C80.2111 21.4 79.1658 20.3333 78.3978 18.968C77.6511 17.5813 77.2778 15.9813 77.2778 14.168C77.2778 12.3547 77.6404 10.7653 78.3658 9.4C79.1124 8.01333 80.1471 6.94667 81.4698 6.2C82.8138 5.45333 84.3498 5.08 86.0778 5.08C87.7418 5.08 89.2244 5.44267 90.5258 6.168C91.8271 6.89333 92.8404 7.91733 93.5658 9.24C94.2911 10.5413 94.6538 12.0453 94.6538 13.752ZM90.8458 12.6C90.8244 11.256 90.3444 10.1787 89.4058 9.368C88.4671 8.55733 87.3044 8.152 85.9178 8.152C84.6591 8.152 83.5818 8.55733 82.6858 9.368C81.7898 10.1573 81.2564 11.2347 81.0858 12.6H90.8458ZM104.644 23.288C103.257 23.288 102.009 23.0427 100.9 22.552C99.8118 22.04 98.9478 21.3573 98.3078 20.504C97.6678 19.6293 97.3264 18.6587 97.2838 17.592H101.06C101.124 18.3387 101.476 18.968 102.116 19.48C102.777 19.9707 103.598 20.216 104.58 20.216C105.604 20.216 106.393 20.024 106.948 19.64C107.524 19.2347 107.812 18.7227 107.812 18.104C107.812 17.4427 107.492 16.952 106.852 16.632C106.233 16.312 105.241 15.96 103.876 15.576C102.553 15.2133 101.476 14.8613 100.644 14.52C99.8118 14.1787 99.0864 13.656 98.4678 12.952C97.8704 12.248 97.5718 11.32 97.5718 10.168C97.5718 9.22933 97.8491 8.376 98.4038 7.608C98.9584 6.81867 99.7478 6.2 100.772 5.752C101.817 5.304 103.012 5.08 104.356 5.08C106.361 5.08 107.972 5.592 109.188 6.616C110.425 7.61867 111.086 8.99467 111.172 10.744H107.524C107.46 9.95467 107.14 9.32533 106.564 8.856C105.988 8.38667 105.209 8.152 104.228 8.152C103.268 8.152 102.532 8.33333 102.02 8.696C101.508 9.05867 101.252 9.53867 101.252 10.136C101.252 10.6053 101.422 11 101.764 11.32C102.105 11.64 102.521 11.896 103.012 12.088C103.502 12.2587 104.228 12.4827 105.188 12.76C106.468 13.1013 107.513 13.4533 108.324 13.816C109.156 14.1573 109.87 14.6693 110.468 15.352C111.065 16.0347 111.374 16.9413 111.396 18.072C111.396 19.0747 111.118 19.9707 110.564 20.76C110.009 21.5493 109.22 22.168 108.196 22.616C107.193 23.064 106.009 23.288 104.644 23.288Z" fill="black"/>
</svg>
