<svg width="536" height="519" viewBox="0 0 536 519" fill="none" xmlns="http://www.w3.org/2000/svg">
<g clip-path="url(#clip0_252_130)">
<path d="M384.259 519C468.063 519 536 512.732 536 505C536 497.269 468.063 491.001 384.259 491.001C300.454 491.001 232.517 497.269 232.517 505C232.517 512.732 300.454 519 384.259 519Z" fill="white"/>
<path opacity="0.1" d="M384.259 519C468.063 519 536 512.732 536 505C536 497.269 468.063 491.001 384.259 491.001C300.454 491.001 232.517 497.269 232.517 505C232.517 512.732 300.454 519 384.259 519Z" fill="#292A2E"/>
<path d="M132.36 296.818H83.9912V310.889H132.36V296.818Z" fill="#F4F4F4"/>
<path opacity="0.05" d="M96.824 296.818H90.4863V310.889H96.824V296.818Z" fill="#292A2E"/>
<path d="M126.179 299.877H99.8262V308.215H126.179V299.877Z" fill="white"/>
<path d="M170.94 298.654L125.998 279.028L120.365 291.923L165.308 311.549L170.94 298.654Z" fill="#F4F4F4"/>
<path opacity="0.05" d="M170.94 298.654L125.998 279.028L120.365 291.923L165.308 311.549L170.94 298.654Z" fill="#292A2E"/>
<path d="M164.906 296.018L159.017 293.447L153.384 306.342L159.273 308.913L164.906 296.018Z" fill="white"/>
<path d="M155.002 295.031L130.517 284.339L127.179 291.98L151.664 302.673L155.002 295.031Z" fill="white"/>
<path opacity="0.05" d="M171.024 475.07H158.869V483.187H171.024V475.07Z" fill="#292A2E"/>
<path opacity="0.05" d="M46.7517 475.07H34.5967V483.187H46.7517V475.07Z" fill="#292A2E"/>
<path d="M182.166 311.549H23.4551V474.796H182.166V311.549Z" fill="#F4F4F4"/>
<path opacity="0.03" d="M182.166 311.549H23.4551V474.796H182.166V311.549Z" fill="#292A2E"/>
<path d="M211.577 311.549H52.8662V474.796H211.577V311.549Z" fill="#F4F4F4"/>
<path opacity="0.05" d="M200.435 475.07H188.28V483.187H200.435V475.07Z" fill="#292A2E"/>
<path opacity="0.05" d="M76.1638 475.07H64.0088V483.187H76.1638V475.07Z" fill="#292A2E"/>
<path opacity="0.7" d="M205.621 319.195H58.8252V350.558H205.621V319.195Z" fill="white"/>
<path opacity="0.7" d="M205.621 358.234H58.8252V389.597H205.621V358.234Z" fill="white"/>
<path opacity="0.7" d="M205.621 397.273H58.8252V428.637H205.621V397.273Z" fill="white"/>
<path opacity="0.05" d="M132.223 339.265C134.647 339.265 136.612 337.3 136.612 334.877C136.612 332.453 134.647 330.488 132.223 330.488C129.799 330.488 127.834 332.453 127.834 334.877C127.834 337.3 129.799 339.265 132.223 339.265Z" fill="#292A2E"/>
<path opacity="0.05" d="M132.223 378.304C134.647 378.304 136.612 376.34 136.612 373.916C136.612 371.493 134.647 369.528 132.223 369.528C129.799 369.528 127.834 371.493 127.834 373.916C127.834 376.34 129.799 378.304 132.223 378.304Z" fill="#292A2E"/>
<path opacity="0.05" d="M132.223 417.344C134.647 417.344 136.612 415.379 136.612 412.956C136.612 410.532 134.647 408.567 132.223 408.567C129.799 408.567 127.834 410.532 127.834 412.956C127.834 415.379 129.799 417.344 132.223 417.344Z" fill="#292A2E"/>
<path opacity="0.7" d="M205.621 437.193H58.8252V468.556H205.621V437.193Z" fill="white"/>
<path opacity="0.05" d="M132.223 457.263C134.647 457.263 136.612 455.298 136.612 452.875C136.612 450.451 134.647 448.486 132.223 448.486C129.799 448.486 127.834 450.451 127.834 452.875C127.834 455.298 129.799 457.263 132.223 457.263Z" fill="#292A2E"/>
<path d="M79.7956 149.52H173.643L173.643 27.388L79.7956 27.388L79.7956 149.52Z" fill="#F4F4F4"/>
<path d="M79.7955 27.3882H76.751V149.52H79.7955V27.3882Z" fill="#F4F4F4"/>
<path opacity="0.05" d="M79.7955 27.3882H76.751V149.52H79.7955V27.3882Z" fill="#292A2E"/>
<path opacity="0.05" d="M96.8912 127.272L156.547 127.272V49.6355L96.8912 49.6355V127.272Z" fill="#292A2E"/>
<path opacity="0.03" d="M96.8911 127.272H100L100 49.6355H96.8911L96.8911 127.272Z" fill="#292A2E"/>
<path d="M3.04362 256.997H79.7949L79.7949 179.554H3.04362L3.04362 256.997Z" fill="#F4F4F4"/>
<path opacity="0.05" d="M17.0248 242.89H65.8135V193.662H17.0248L17.0248 242.89Z" fill="#292A2E"/>
<path d="M3.04447 179.555H0V256.998H3.04447V179.555Z" fill="#F4F4F4"/>
<path opacity="0.05" d="M3.04447 179.555H0V256.998H3.04447V179.555Z" fill="#292A2E"/>
<path opacity="0.03" d="M17.0249 242.89H20.1338L20.1338 193.662H17.0249L17.0249 242.89Z" fill="#292A2E"/>
<path d="M471.063 27.0977H275.22V222.908H471.063V27.0977Z" fill="#F4F4F4"/>
<path d="M275.219 27.0977H272.975V222.908H275.219V27.0977Z" fill="#F4F4F4"/>
<path opacity="0.05" d="M275.219 27.0977H272.975V222.908H275.219V27.0977Z" fill="#292A2E"/>
<path opacity="0.05" d="M322.663 162.027V110.796H364.635V140.56H429.65V193.261H457.283V222.908H429.65H424.327H284.64V162.027H322.663Z" fill="#292A2E"/>
<path opacity="0.34" d="M359.247 116.358H328.683V121.921H359.247V116.358Z" fill="#FFFFFA"/>
<path opacity="0.34" d="M359.247 127.885H328.683V133.448H359.247V127.885Z" fill="#FFFFFA"/>
<path opacity="0.34" d="M359.247 139.412H328.683V144.974H359.247V139.412Z" fill="#FFFFFA"/>
<path opacity="0.34" d="M295.693 167.426H290.06V172.989H295.693V167.426Z" fill="#FFFFFA"/>
<path opacity="0.34" d="M295.693 178.953H290.06V184.515H295.693V178.953Z" fill="#FFFFFA"/>
<path opacity="0.34" d="M295.693 190.479H290.06V196.042H295.693V190.479Z" fill="#FFFFFA"/>
<path opacity="0.34" d="M306.115 167.426H300.481V172.989H306.115V167.426Z" fill="#FFFFFA"/>
<path opacity="0.34" d="M306.115 178.953H300.481V184.515H306.115V178.953Z" fill="#FFFFFA"/>
<path opacity="0.34" d="M306.115 190.479H300.481V196.042H306.115V190.479Z" fill="#FFFFFA"/>
<path opacity="0.34" d="M316.256 167.426H310.622V172.989H316.256V167.426Z" fill="#FFFFFA"/>
<path opacity="0.34" d="M316.256 178.953H310.622V184.515H316.256V178.953Z" fill="#FFFFFA"/>
<path opacity="0.34" d="M316.256 190.479H310.622V196.042H316.256V190.479Z" fill="#FFFFFA"/>
<path d="M275.22 123.904H314.626V27.0972H317.886V123.904H424.328V27.0972H427.587V123.904H471.063V127.162H427.587V222.908H424.328V127.162H317.886V222.908H314.626V127.162H275.22V123.904Z" fill="white"/>
<path d="M478.864 222.671H267.417V229.183H478.864V222.671Z" fill="#F4F4F4"/>
<path opacity="0.1" d="M478.864 222.671H267.417V229.183H478.864V222.671Z" fill="#292A2E"/>
<path opacity="0.1" d="M267.417 222.671H264.364V229.183H267.417V222.671Z" fill="#292A2E"/>
<path opacity="0.1" d="M267.417 222.671H264.364V229.183H267.417V222.671Z" fill="#292A2E"/>
<path d="M437.48 256.216C407.498 256.216 383.192 264.394 383.192 274.483V296.229H491.769V274.483C491.769 264.394 467.463 256.216 437.48 256.216Z" fill="#367CFF"/>
<path opacity="0.49" d="M437.48 256.216C407.498 256.216 383.192 264.394 383.192 274.483V296.229H491.769V274.483C491.769 264.394 467.463 256.216 437.48 256.216Z" fill="white"/>
<path opacity="0.49" d="M476.981 274.485V296.228H383.191V274.485C383.191 265.238 403.604 257.597 430.086 256.39C456.57 257.597 476.981 265.238 476.981 274.485Z" fill="white"/>
<path d="M491.769 507.532H493.591L491.769 294.3L489.963 296.122L491.251 445.07L426.933 446.163L425.636 296.106L423.829 296.122L425.128 446.194L386.302 446.854L384.998 296.106L383.191 294.316L385.014 507.532L386.804 507.517L386.317 448.661L425.143 448.001L425.636 507.532L427.442 507.517L426.949 447.97L491.267 446.877L491.769 507.532Z" fill="#292A2E"/>
<path d="M328.015 475.607C328.015 475.607 324.787 492.34 309.117 493.273C293.447 494.205 296.845 506.686 296.845 506.686H356.726V476.774L328.015 475.607Z" fill="#367CFF"/>
<path d="M362.179 425.279C362.179 425.279 366.67 441.718 353.021 449.471C339.373 457.223 347.932 466.923 347.932 466.923L401.662 440.493L388.457 413.653L362.179 425.279Z" fill="#367CFF"/>
<path d="M356.495 436.144L316.008 283.412C312.937 266.539 317.561 259.225 324.685 252.12C337.201 239.638 389.065 213.071 389.065 213.071L451.285 212.901C467.784 212.901 484.002 229.166 484.002 245.661C484.002 262.156 467.23 276.145 450.732 276.145L374.113 283.791L394.882 423.639L356.495 436.144Z" fill="#262626"/>
<path d="M394.882 423.637L386.705 368.581L345.282 393.845L356.495 436.144L394.882 423.637Z" fill="#0C0C0C"/>
<path d="M404.271 243.978C404.271 243.978 378.116 249.806 352.211 275.706C336.505 291.409 337.793 319.826 340.149 374.482L365.878 336.487L394.097 285.601L404.271 243.978Z" fill="#0C0C0C"/>
<path d="M494.833 212.884L452.578 212.685L452.562 213.241H439.767C439.767 213.241 407.716 242.727 381.914 261.308C363.145 274.823 351.695 287.708 350.704 301.751C348.289 335.984 321.049 481.984 321.049 481.984L362.044 488.19L398.021 313.709C398.021 313.709 454.274 287.779 467.286 278.757C479.538 270.26 488.193 266.975 492.248 257.703C499.25 241.688 494.833 212.884 494.833 212.884Z" fill="#262626"/>
<path d="M447.429 223.525L378.88 224.433L417.333 247.395L449.328 230.876C450.099 230.462 450.709 229.801 451.06 229C451.411 228.198 451.482 227.302 451.263 226.455C451.045 225.608 450.548 224.859 449.852 224.328C449.157 223.796 448.304 223.514 447.429 223.525Z" fill="#292A2E"/>
<path opacity="0.2" d="M447.429 223.525L378.88 224.433L417.333 247.395L449.328 230.876C450.099 230.462 450.709 229.801 451.06 229C451.411 228.198 451.482 227.302 451.263 226.455C451.045 225.608 450.548 224.859 449.852 224.328C449.157 223.796 448.304 223.514 447.429 223.525Z" fill="white"/>
<path d="M379.272 100.569L359.883 163.381L321.047 214.219L343.733 240.257L389.935 188.698C392.064 187.016 393.729 184.82 394.774 182.316L395.493 180.574L422.18 116.014L379.272 100.569Z" fill="#367CFF"/>
<path d="M409.141 33.8954C409.141 33.8954 401.328 27.9953 399.393 14.4251C397.894 3.9176 407.588 10.725 407.588 10.725C407.588 10.725 406.583 3.14818 412.104 3.90014C417.626 4.6521 420.715 12.6112 420.715 12.6112" fill="#0C0C0C"/>
<path d="M440.641 4.78711C440.641 4.78711 468.035 7.72329 458.132 44.8383L455.708 45.0009L450.787 45.3308" fill="#0C0C0C"/>
<path d="M413.729 83.5992C413.85 83.5835 415.187 105.755 440.947 103.824C458.783 102.488 465.142 83.5679 465.551 83.5679C463.628 83.1591 461.251 82.539 460.307 82.3264C458.249 81.8488 456.384 80.7559 454.962 79.1931C453.54 77.6302 452.628 75.6715 452.347 73.5775C451.825 70.4348 452.708 54.3553 452.438 51.1753L425.063 57.2849C425.446 64.0013 428.123 79.5709 418.74 82.3264C417.177 82.7816 415.495 83.203 413.729 83.5992Z" fill="#E98862"/>
<path opacity="0.52" d="M424.679 75.9631C425.107 74.5812 425.384 73.1565 425.502 71.7145C425.803 68.4239 425.742 65.1104 425.322 61.8331C430.887 61.0833 436.129 58.7878 440.454 55.2075C440.963 57.0847 443.759 65.287 442.984 67.0679C441.521 70.4393 434.646 75.9631 424.679 75.9631Z" fill="#0C0C0C"/>
<path d="M430.33 71.5748C441.131 70.6061 454.058 63.7831 454.245 49.1238L454.413 35.8968C454.6 21.2382 447.05 9.25683 433.246 9.08104C419.441 8.90584 408.972 20.6578 408.785 35.3171L408.711 41.1726C408.72 43.1836 408.867 45.1917 409.149 47.1828C409.857 52.4507 410.956 60.4598 414.531 65.8776C417.908 70.9926 423.429 72.1931 430.33 71.5748Z" fill="#E98862"/>
<path opacity="0.52" d="M425.319 58.1757C423.09 58.2766 420.868 57.8524 418.833 56.9373C418.75 56.8997 418.685 56.8311 418.652 56.7462C418.619 56.6613 418.62 56.5668 418.656 56.4829C418.692 56.3991 418.759 56.3326 418.843 56.2976C418.927 56.2627 419.022 56.2621 419.106 56.2961C423.491 58.1654 427.471 57.8921 430.618 55.505C430.682 55.4548 430.748 55.408 430.816 55.3647C430.895 55.3275 430.985 55.3214 431.069 55.3476C431.152 55.3738 431.223 55.4304 431.266 55.5061C431.31 55.5819 431.324 55.6713 431.304 55.7567C431.285 55.842 431.235 55.917 431.163 55.9668C431.137 55.9824 431.096 56.0143 431.042 56.0577C429.388 57.3177 427.395 58.0552 425.319 58.1757Z" fill="#0C0C0C"/>
<path opacity="0.52" d="M425.42 61.4783C425.017 61.5031 424.613 61.4934 424.212 61.4494C424.166 61.4446 424.122 61.4308 424.082 61.409C424.042 61.3871 424.007 61.3576 423.978 61.322C423.949 61.2865 423.928 61.2456 423.915 61.2018C423.902 61.1579 423.898 61.112 423.902 61.0665C423.907 61.021 423.921 60.977 423.943 60.9368C423.965 60.8967 423.994 60.8612 424.03 60.8325C424.065 60.8037 424.106 60.7823 424.15 60.7693C424.194 60.7564 424.24 60.7522 424.285 60.757C426.698 61.0129 427.849 59.9082 427.898 59.8606C427.963 59.7952 428.052 59.7584 428.144 59.7583C428.237 59.7582 428.325 59.7948 428.391 59.86C428.456 59.9252 428.493 60.0138 428.493 60.1061C428.493 60.1985 428.457 60.2871 428.391 60.3525C427.561 61.0597 426.511 61.4575 425.42 61.4783Z" fill="#0C0C0C"/>
<path d="M413.343 43.9917C414.282 43.9917 415.044 43.2305 415.044 42.2915C415.044 41.3525 414.282 40.5913 413.343 40.5913C412.404 40.5913 411.643 41.3525 411.643 42.2915C411.643 43.2305 412.404 43.9917 413.343 43.9917Z" fill="#0C0C0C"/>
<path d="M429.956 42.9497C430.895 42.9497 431.657 42.1885 431.657 41.2495C431.657 40.3105 430.895 39.5493 429.956 39.5493C429.017 39.5493 428.256 40.3105 428.256 41.2495C428.256 42.1885 429.017 42.9497 429.956 42.9497Z" fill="#0C0C0C"/>
<path d="M453.33 53.5821C457.525 53.6357 460.983 49.1914 461.038 44.9969C461.093 40.8025 457.719 38.446 453.524 38.3931L451.327 41.1757L449.725 53.5364L453.33 53.5821Z" fill="#E98862"/>
<path d="M449.157 46.8393C449.157 46.8393 447.74 26.097 441.449 24.8158C437.259 23.9627 427.099 29.9049 417.688 28.1102C413.571 27.3276 409.663 28.3438 409.265 30.2884C409.108 31.0585 406.543 19.9934 412.99 11.5985C418.124 4.91575 434.922 3.02532 442.564 5.21677C463.726 11.2866 454.388 39.3029 454.388 39.3029L453.445 46.454L449.157 46.8393Z" fill="#0C0C0C"/>
<g opacity="0.52">
<path d="M422.782 53.2811C422.773 53.2817 422.765 53.2817 422.756 53.2811C421.404 53.2679 419.137 53.0939 419.147 52.083C419.156 51.245 421.541 42.2245 421.813 41.1986C421.836 41.1103 421.894 41.0349 421.973 40.989C422.052 40.9431 422.146 40.9305 422.234 40.9539C422.322 40.9773 422.398 41.0348 422.444 41.1138C422.49 41.1927 422.502 41.2867 422.479 41.375C421.419 45.3702 419.841 51.5207 419.835 52.0915C419.966 52.3323 421.362 52.5803 422.762 52.5948C422.85 52.5966 422.934 52.6324 422.997 52.6945C423.06 52.7567 423.096 52.8406 423.099 52.9288C423.101 53.0171 423.07 53.1029 423.011 53.1687C422.952 53.2345 422.87 53.2752 422.782 53.2823V53.2811Z" fill="#0C0C0C"/>
</g>
<path d="M418.171 33.073C416.75 32.682 415.25 32.682 413.829 33.073C413.131 33.2607 412.466 33.5521 411.854 33.9376C411.25 34.315 410.696 34.7673 410.205 35.2837C410.114 35.3757 410.062 35.4991 410.061 35.6281C410.059 35.7572 410.107 35.882 410.194 35.9766C410.282 36.0712 410.403 36.1283 410.532 36.1361C410.661 36.1439 410.788 36.1016 410.886 36.0182L410.917 35.9918C411.371 35.5708 411.877 35.2089 412.422 34.9147C412.957 34.6218 413.533 34.4115 414.131 34.291C415.307 34.0444 416.528 34.1127 417.669 34.489L417.717 34.5059C417.904 34.5661 418.107 34.5511 418.283 34.464C418.459 34.377 418.594 34.2247 418.659 34.0396C418.725 33.8546 418.715 33.6513 418.633 33.4731C418.551 33.2948 418.402 33.1556 418.219 33.0851L418.171 33.073Z" fill="#0C0C0C"/>
<path d="M428.231 33.9261C429.312 33.4008 430.513 33.1705 431.712 33.2584C432.32 33.2979 432.919 33.4294 433.488 33.6485C434.067 33.868 434.615 34.1593 435.122 34.5155L435.154 34.5371C435.263 34.6072 435.394 34.6325 435.521 34.6079C435.648 34.5833 435.761 34.5107 435.835 34.4051C435.91 34.2996 435.941 34.1693 435.922 34.0414C435.903 33.9136 435.835 33.7981 435.733 33.719C435.177 33.2726 434.568 32.8981 433.918 32.6046C433.261 32.3041 432.563 32.104 431.846 32.0109C430.386 31.812 428.899 32.0111 427.543 32.5871C427.452 32.6266 427.37 32.6837 427.301 32.755C427.232 32.8263 427.178 32.9105 427.141 33.0027C427.105 33.095 427.087 33.1935 427.089 33.2926C427.091 33.3917 427.112 33.4896 427.151 33.5805C427.231 33.7641 427.381 33.9085 427.567 33.9819C427.659 34.0182 427.758 34.036 427.857 34.0343C427.956 34.0326 428.054 34.0113 428.145 33.9718L428.187 33.952L428.231 33.9261Z" fill="#0C0C0C"/>
<path d="M427.541 11.6931C428.496 7.12344 426.753 2.89314 423.648 2.24448C420.543 1.59582 417.251 4.77443 416.296 9.34409C415.341 13.9137 417.085 18.144 420.19 18.7927C423.295 19.4413 426.586 16.2628 427.541 11.6931Z" fill="#0C0C0C"/>
<path d="M381.72 132.33C382.531 141.861 388.283 201.331 389.066 213.072H494.788C495.396 202.482 498.123 156.178 500.426 135.468C502.626 115.707 505.707 106.715 503.175 100.575C498.708 89.744 484.49 84.9078 474.862 83.6043C468.983 82.8084 460.14 82.2383 460.14 82.2383C460.14 82.2383 459.392 97.3816 441.539 98.2245C417.236 99.3683 418.86 82.2383 418.739 82.2383C414.802 82.2383 393.372 85.101 388.013 88.5929C380.444 93.5249 378.207 100.247 378.119 106.422C378.018 113.534 380.801 121.518 381.72 132.33Z" fill="#367CFF"/>
<path d="M387.08 189.637C387.005 189.637 386.932 189.609 386.876 189.558C386.82 189.507 386.786 189.437 386.779 189.362L382.774 143.558C382.767 143.479 382.791 143.4 382.843 143.339C382.894 143.277 382.967 143.239 383.047 143.232C383.087 143.228 383.126 143.232 383.164 143.244C383.202 143.255 383.238 143.274 383.268 143.3C383.299 143.325 383.324 143.357 383.342 143.392C383.36 143.428 383.37 143.466 383.373 143.506L387.379 189.31C387.386 189.389 387.361 189.468 387.31 189.529C387.258 189.59 387.185 189.628 387.105 189.635C387.097 189.636 387.089 189.637 387.08 189.637Z" fill="#0C0C0C"/>
<path d="M394.746 216.242L409.263 204.467L406.82 205.157C406.027 205.364 405.185 205.263 404.464 204.873C403.743 204.483 403.197 203.834 402.936 203.057C402.816 202.652 402.779 202.226 402.828 201.805C402.878 201.385 403.012 200.979 403.224 200.613C403.435 200.246 403.719 199.926 404.058 199.673C404.397 199.42 404.785 199.238 405.196 199.14L435.693 191.724L438.317 201.436C439.132 204.452 439.028 207.643 438.017 210.6C437.007 213.557 435.137 216.144 432.646 218.031L421.346 226.558C420.767 227.011 420.05 227.251 419.315 227.237C418.58 227.223 417.872 226.956 417.311 226.48C416.814 226.04 416.47 225.452 416.331 224.802C416.191 224.152 416.263 223.474 416.537 222.868C416.488 222.854 416.443 222.826 416.409 222.789C416.378 222.752 416.357 222.709 416.348 222.662C416.338 222.616 416.34 222.568 416.354 222.522L414.272 224.098C413.629 224.606 412.817 224.851 412 224.783C411.184 224.715 410.423 224.34 409.872 223.733C409.399 223.173 409.139 222.465 409.137 221.732C409.135 220.999 409.391 220.289 409.861 219.727C409.828 219.722 409.797 219.711 409.768 219.695L408.913 220.343C408.334 220.796 407.617 221.036 406.882 221.022C406.147 221.008 405.439 220.741 404.878 220.266C404.275 219.731 403.902 218.984 403.837 218.18C403.773 217.377 404.022 216.579 404.533 215.955C404.521 215.938 404.51 215.919 404.503 215.899L398.457 220.803C398.157 221.046 397.813 221.228 397.443 221.338C397.073 221.448 396.685 221.484 396.301 221.444C395.917 221.404 395.545 221.288 395.206 221.105C394.866 220.921 394.567 220.672 394.323 220.372C394.08 220.073 393.899 219.728 393.789 219.358C393.679 218.988 393.643 218.601 393.683 218.217C393.723 217.833 393.838 217.461 394.022 217.122C394.206 216.782 394.455 216.483 394.754 216.24L394.746 216.242Z" fill="#E98862"/>
<path opacity="0.2" d="M404.864 216.075C404.896 216.063 404.926 216.046 404.952 216.025L410.769 211.193C410.798 211.169 410.823 211.139 410.841 211.104C410.858 211.07 410.869 211.033 410.873 210.995C410.876 210.957 410.872 210.918 410.861 210.881C410.85 210.845 410.831 210.811 410.806 210.781C410.782 210.752 410.752 210.727 410.718 210.709C410.684 210.691 410.646 210.68 410.608 210.677C410.57 210.673 410.531 210.678 410.495 210.689C410.458 210.7 410.424 210.719 410.394 210.744L404.578 215.574C404.525 215.618 404.49 215.68 404.477 215.747C404.465 215.815 404.477 215.885 404.511 215.944C404.545 216.004 404.599 216.05 404.664 216.074C404.729 216.098 404.799 216.098 404.864 216.075Z" fill="#0A0A0A"/>
<path opacity="0.2" d="M409.99 219.724C410.021 219.713 410.05 219.696 410.076 219.675L414.677 215.913C414.737 215.864 414.775 215.793 414.783 215.716C414.791 215.639 414.768 215.562 414.719 215.502C414.669 215.441 414.598 215.403 414.521 215.396C414.444 215.388 414.367 215.411 414.307 215.46L409.706 219.222C409.652 219.265 409.616 219.326 409.603 219.394C409.59 219.462 409.602 219.533 409.636 219.593C409.67 219.653 409.724 219.699 409.789 219.723C409.854 219.747 409.925 219.747 409.99 219.724Z" fill="#0A0A0A"/>
<path opacity="0.2" d="M416.725 222.878C416.758 222.866 416.789 222.847 416.817 222.824L418.948 220.997C418.977 220.972 419.001 220.942 419.018 220.907C419.035 220.873 419.046 220.836 419.049 220.798C419.052 220.759 419.047 220.721 419.035 220.684C419.023 220.648 419.004 220.614 418.979 220.585C418.954 220.556 418.924 220.532 418.89 220.515C418.855 220.497 418.818 220.487 418.78 220.484C418.741 220.481 418.703 220.485 418.666 220.497C418.63 220.509 418.596 220.528 418.567 220.553L416.435 222.381C416.384 222.425 416.349 222.486 416.338 222.554C416.327 222.621 416.339 222.69 416.374 222.749C416.408 222.808 416.462 222.853 416.526 222.877C416.59 222.9 416.66 222.901 416.725 222.878Z" fill="#0A0A0A"/>
<path d="M523.048 187.4L522.937 186.906L503.639 101.57L465.463 110.199L480.525 176.809L420.19 191.632L427.616 225.67L508.018 210.337C508.199 210.302 508.467 210.248 508.65 210.206C511.093 209.654 513.404 208.626 515.449 207.181C517.495 205.736 519.236 203.902 520.573 201.785C521.91 199.667 522.817 197.307 523.242 194.838C523.666 192.37 523.6 189.843 523.048 187.4Z" fill="#367CFF"/>
<path d="M419.895 191.696C419.879 191.62 419.893 191.54 419.935 191.474C419.976 191.408 420.042 191.361 420.118 191.342L480.184 176.592L470.417 133.464C470.406 133.424 470.403 133.383 470.409 133.343C470.414 133.302 470.428 133.264 470.449 133.228C470.469 133.193 470.497 133.163 470.53 133.139C470.563 133.115 470.601 133.098 470.641 133.089C470.68 133.08 470.722 133.079 470.762 133.087C470.802 133.094 470.84 133.109 470.874 133.132C470.908 133.155 470.937 133.184 470.959 133.218C470.982 133.252 470.997 133.29 471.004 133.331L480.836 176.747C480.854 176.825 480.841 176.906 480.799 176.974C480.758 177.041 480.691 177.09 480.614 177.109L420.544 191.859C420.544 191.859 420.946 193.614 421.06 194.207C421.069 194.284 421.047 194.361 420.999 194.422C420.951 194.483 420.88 194.522 420.803 194.531C420.726 194.54 420.648 194.518 420.588 194.47C420.527 194.422 420.487 194.351 420.479 194.274C420.34 193.625 419.895 191.696 419.895 191.696Z" fill="#0C0C0C"/>
<path d="M422.249 239.228L399.052 167.932C398.644 166.679 397.85 165.587 396.784 164.813C395.718 164.038 394.434 163.621 393.116 163.622H298.607C297.622 163.622 296.65 163.855 295.773 164.302C294.895 164.749 294.136 165.398 293.557 166.195C292.978 166.992 292.596 167.914 292.442 168.887C292.288 169.86 292.367 170.856 292.671 171.793L315.87 243.089C316.278 244.342 317.071 245.433 318.138 246.208C319.204 246.982 320.488 247.399 321.805 247.399H416.314C417.299 247.399 418.27 247.166 419.148 246.718C420.026 246.271 420.785 245.622 421.364 244.825C421.943 244.029 422.325 243.106 422.479 242.133C422.633 241.16 422.554 240.165 422.249 239.228Z" fill="#292A2E"/>
<path opacity="0.2" d="M422.249 239.228L399.052 167.932C398.644 166.679 397.85 165.587 396.784 164.813C395.718 164.038 394.434 163.621 393.116 163.622H298.607C297.622 163.622 296.65 163.855 295.773 164.302C294.895 164.749 294.136 165.398 293.557 166.195C292.978 166.992 292.596 167.914 292.442 168.887C292.288 169.86 292.367 170.856 292.671 171.793L315.87 243.089C316.278 244.342 317.071 245.433 318.138 246.208C319.204 246.982 320.488 247.399 321.805 247.399H416.314C417.299 247.399 418.27 247.166 419.148 246.718C420.026 246.271 420.785 245.622 421.364 244.825C421.943 244.029 422.325 243.106 422.479 242.133C422.633 241.16 422.554 240.165 422.249 239.228Z" fill="white"/>
<path d="M354.738 215.421C360.212 215.421 364.65 210.984 364.65 205.51C364.65 200.037 360.212 195.6 354.738 195.6C349.264 195.6 344.826 200.037 344.826 205.51C344.826 210.984 349.264 215.421 354.738 215.421Z" fill="white"/>
<path d="M261.427 7.53418H73.8491C65.159 7.53418 58.1143 14.5777 58.1143 23.2663V250.943C58.1143 259.631 65.159 266.675 73.8491 266.675H261.427C270.117 266.675 277.162 259.631 277.162 250.943V23.2663C277.162 14.5777 270.117 7.53418 261.427 7.53418Z" fill="#292A2E"/>
<path d="M268.36 0.602051H80.7826C72.0926 0.602051 65.0479 7.64556 65.0479 16.3342V244.011C65.0479 252.699 72.0926 259.743 80.7826 259.743H268.36C277.05 259.743 284.095 252.699 284.095 244.011V16.3342C284.095 7.64556 277.05 0.602051 268.36 0.602051Z" fill="white"/>
<path d="M268.36 260.345H80.7823C76.4508 260.34 72.2981 258.617 69.2354 255.555C66.1726 252.493 64.4499 248.341 64.4453 244.01V16.3342C64.4501 12.0035 66.1728 7.85166 69.2356 4.78944C72.2983 1.72723 76.4509 0.00478064 80.7823 0L268.36 0C272.691 0.00493997 276.844 1.72746 279.906 4.78966C282.969 7.85185 284.691 12.0036 284.696 16.3342V244.01C284.692 248.341 282.969 252.492 279.906 255.555C276.844 258.617 272.691 260.34 268.36 260.345ZM80.7823 1.2041C76.7702 1.20856 72.9237 2.80405 70.0868 5.64051C67.2498 8.47698 65.6541 12.3228 65.6496 16.3342V244.01C65.6541 248.021 67.2498 251.867 70.0868 254.704C72.9237 257.54 76.7702 259.135 80.7823 259.14H268.36C272.372 259.135 276.218 257.54 279.055 254.703C281.892 251.867 283.488 248.021 283.492 244.01V16.3342C283.488 12.3228 281.892 8.47704 279.055 5.64055C276.218 2.80406 272.372 1.20856 268.36 1.2041H80.7823Z" fill="#292A2E"/>
<path d="M62.5208 292.321C84.0962 292.321 101.587 274.833 101.587 253.262C101.587 231.69 84.0962 214.203 62.5208 214.203C40.9454 214.203 23.4551 231.69 23.4551 253.262C23.4551 274.833 40.9454 292.321 62.5208 292.321Z" fill="#292A2E"/>
<path d="M54.4112 248.164C53.8969 248.164 53.4037 247.96 53.04 247.596C52.6763 247.233 52.4718 246.74 52.4717 246.225V236.839C52.4717 231.649 56.98 227.425 62.521 227.425C68.062 227.425 72.5703 231.649 72.5703 236.839V245.581C72.5748 245.839 72.528 246.095 72.4326 246.334C72.3372 246.573 72.195 246.791 72.0145 246.975C71.834 247.158 71.6187 247.304 71.3811 247.404C71.1436 247.503 70.8886 247.555 70.631 247.555C70.3735 247.555 70.1185 247.503 69.8809 247.404C69.6434 247.304 69.4281 247.158 69.2476 246.975C69.067 246.791 68.9249 246.573 68.8295 246.334C68.7341 246.095 68.6873 245.839 68.6918 245.581V236.839C68.6918 233.787 65.9219 231.303 62.521 231.303C59.12 231.303 56.3501 233.787 56.3501 236.839V246.227C56.3498 246.741 56.1454 247.233 55.7818 247.597C55.4182 247.96 54.9252 248.164 54.4112 248.164Z" fill="white"/>
<path d="M74.8924 244.603H50.1489C48.7059 244.603 47.5361 245.773 47.5361 247.215V270.518C47.5361 271.961 48.7059 273.13 50.1489 273.13H74.8924C76.3354 273.13 77.5052 271.961 77.5052 270.518V247.215C77.5052 245.773 76.3354 244.603 74.8924 244.603Z" fill="white"/>
<path d="M60.0577 256.56C60.0575 257.022 60.1872 257.475 60.4321 257.867C60.677 258.259 61.0272 258.574 61.4426 258.777V262.561C61.4426 262.846 61.556 263.12 61.7576 263.321C61.9593 263.523 62.2329 263.636 62.5181 263.636C62.8033 263.636 63.0769 263.523 63.2785 263.321C63.4802 263.12 63.5935 262.846 63.5935 262.561V258.777C63.9893 258.584 64.3264 258.29 64.5698 257.924C64.8133 257.557 64.9542 257.133 64.9779 256.693C65.0016 256.254 64.9073 255.817 64.7047 255.426C64.5021 255.036 64.1987 254.707 63.8259 254.473C63.4532 254.24 63.0247 254.111 62.585 254.099C62.1452 254.087 61.7103 254.193 61.3255 254.406C60.9406 254.618 60.6197 254.931 60.3963 255.309C60.1728 255.688 60.0548 256.12 60.0547 256.56H60.0577Z" fill="#292A2E"/>
<path d="M251.98 129.905H97.1634C93.4677 129.905 90.4717 132.901 90.4717 136.596V158.296C90.4717 161.991 93.4677 164.987 97.1634 164.987H251.98C255.676 164.987 258.672 161.991 258.672 158.296V136.596C258.672 132.901 255.676 129.905 251.98 129.905Z" fill="white"/>
<path d="M251.979 165.588H97.163C95.2292 165.586 93.3753 164.817 92.0079 163.45C90.6405 162.083 89.8714 160.229 89.8691 158.296V136.596C89.8714 134.662 90.6405 132.809 92.0079 131.442C93.3752 130.074 95.2292 129.305 97.163 129.303H251.979C253.913 129.305 255.767 130.074 257.135 131.441C258.502 132.809 259.272 134.662 259.274 136.596V158.296C259.272 160.229 258.502 162.083 257.135 163.45C255.767 164.817 253.913 165.586 251.979 165.588ZM97.163 130.507C95.5484 130.509 94.0004 131.151 92.8588 132.292C91.7171 133.434 91.075 134.982 91.0734 136.596V158.296C91.0752 159.91 91.7173 161.457 92.859 162.599C94.0006 163.74 95.5485 164.382 97.163 164.384H251.979C253.594 164.382 255.142 163.74 256.284 162.599C257.425 161.457 258.068 159.91 258.07 158.296V136.596C258.068 134.982 257.426 133.434 256.284 132.292C255.142 131.151 253.594 130.509 251.979 130.507H97.163Z" fill="#292A2E"/>
<path d="M251.98 180.041H97.1634C93.4677 180.041 90.4717 183.036 90.4717 186.731V208.431C90.4717 212.126 93.4677 215.122 97.1634 215.122H251.98C255.676 215.122 258.672 212.126 258.672 208.431V186.731C258.672 183.036 255.676 180.041 251.98 180.041Z" fill="white"/>
<path d="M251.979 215.723H97.163C95.2289 215.721 93.3747 214.952 92.0073 213.584C90.6399 212.217 89.8709 210.363 89.8691 208.429V186.731C89.8714 184.798 90.6405 182.944 92.0079 181.577C93.3753 180.21 95.2292 179.441 97.163 179.438H251.979C253.913 179.441 255.767 180.21 257.135 181.577C258.502 182.944 259.272 184.798 259.274 186.731V208.429C259.272 210.363 258.503 212.217 257.136 213.584C255.768 214.952 253.914 215.721 251.979 215.723ZM97.163 180.643C95.5485 180.644 94.0006 181.286 92.859 182.428C91.7173 183.569 91.0752 185.117 91.0734 186.731V208.429C91.0752 210.043 91.7173 211.591 92.859 212.732C94.0006 213.874 95.5485 214.516 97.163 214.517H251.979C253.594 214.516 255.142 213.874 256.284 212.732C257.426 211.591 258.068 210.043 258.07 208.429V186.731C258.068 185.117 257.426 183.569 256.284 182.428C255.142 181.286 253.594 180.644 251.979 180.643H97.163Z" fill="#292A2E"/>
<path d="M174.572 103.811C194.423 103.811 210.516 87.7206 210.516 67.8722C210.516 48.0239 194.423 31.9336 174.572 31.9336C154.72 31.9336 138.627 48.0239 138.627 67.8722C138.627 87.7206 154.72 103.811 174.572 103.811Z" fill="white"/>
<path d="M174.571 104.413C167.343 104.413 160.277 102.27 154.267 98.2547C148.257 94.2396 143.573 88.5327 140.806 81.8558C138.04 75.1788 137.317 67.8317 138.727 60.7435C140.137 53.6553 143.618 47.1444 148.729 42.0341C153.84 36.9238 160.352 33.4436 167.441 32.0337C174.531 30.6237 181.879 31.3474 188.557 34.1131C195.235 36.8787 200.943 41.5622 204.959 47.5713C208.975 53.5804 211.118 60.6452 211.118 67.8722C211.107 77.5601 207.253 86.8481 200.402 93.6984C193.55 100.549 184.261 104.402 174.571 104.413ZM174.571 32.5357C167.581 32.5357 160.748 34.6081 154.936 38.4909C149.124 42.3738 144.594 47.8926 141.919 54.3495C139.244 60.8064 138.544 67.9114 139.908 74.7661C141.272 81.6207 144.638 87.9171 149.58 92.859C154.523 97.8009 160.821 101.166 167.676 102.53C174.532 103.893 181.638 103.194 188.096 100.519C194.554 97.8445 200.074 93.3153 203.958 87.5042C207.841 81.6931 209.914 74.8612 209.914 67.8722C209.903 58.5036 206.176 49.5217 199.551 42.8971C192.925 36.2725 183.942 32.5462 174.571 32.5357Z" fill="#292A2E"/>
<path opacity="0.5" d="M209.717 67.8721C209.727 76.1904 206.775 84.2407 201.389 90.5807C198.072 86.7141 193.958 83.6107 189.328 81.4833C184.699 79.3559 179.664 78.2549 174.569 78.2558C169.474 78.2567 164.439 79.3595 159.81 81.4886C155.181 83.6176 151.068 86.7226 147.752 90.5904C144.095 86.2746 141.534 81.14 140.286 75.6227C139.039 70.1054 139.141 64.3686 140.586 58.8996C142.031 53.4306 144.774 48.391 148.584 44.2092C152.394 40.0273 157.157 36.8267 162.468 34.8793C167.78 32.9319 173.483 32.2952 179.094 33.0234C184.704 33.7515 190.056 35.823 194.694 39.0619C199.332 42.3007 203.12 46.6111 205.736 51.6269C208.351 56.6427 209.717 62.2156 209.717 67.8721Z" fill="#367CFF"/>
<path d="M201.389 90.5808C198.09 94.4757 193.983 97.6053 189.352 99.7522C184.721 101.899 179.677 103.012 174.573 103.013C169.468 103.014 164.425 101.903 159.793 99.7575C155.161 97.6123 151.052 94.4841 147.752 90.5905C151.068 86.7226 155.181 83.6177 159.81 81.4887C164.439 79.3596 169.473 78.2568 174.568 78.2559C179.663 78.2549 184.698 79.3559 189.328 81.4834C193.957 83.6108 198.072 86.7142 201.389 90.5808Z" fill="white"/>
<path d="M174.572 71.6992C182.418 71.6992 188.778 65.3398 188.778 57.4951C188.778 49.6504 182.418 43.291 174.572 43.291C166.726 43.291 160.365 49.6504 160.365 57.4951C160.365 65.3398 166.726 71.6992 174.572 71.6992Z" fill="white"/>
<g opacity="0.4">
<path d="M103.503 201.853C105.863 201.853 107.776 199.941 107.776 197.581C107.776 195.222 105.863 193.309 103.503 193.309C101.143 193.309 99.2305 195.222 99.2305 197.581C99.2305 199.941 101.143 201.853 103.503 201.853Z" fill="#292A2E"/>
<path d="M116.87 201.853C119.229 201.853 121.142 199.941 121.142 197.581C121.142 195.222 119.229 193.309 116.87 193.309C114.51 193.309 112.597 195.222 112.597 197.581C112.597 199.941 114.51 201.853 116.87 201.853Z" fill="#292A2E"/>
<path d="M130.235 201.853C132.595 201.853 134.508 199.941 134.508 197.581C134.508 195.222 132.595 193.309 130.235 193.309C127.875 193.309 125.962 195.222 125.962 197.581C125.962 199.941 127.875 201.853 130.235 201.853Z" fill="#292A2E"/>
<path d="M143.601 201.853C145.961 201.853 147.874 199.941 147.874 197.581C147.874 195.222 145.961 193.309 143.601 193.309C141.241 193.309 139.328 195.222 139.328 197.581C139.328 199.941 141.241 201.853 143.601 201.853Z" fill="#292A2E"/>
<path d="M156.966 201.853C159.326 201.853 161.239 199.941 161.239 197.581C161.239 195.222 159.326 193.309 156.966 193.309C154.606 193.309 152.693 195.222 152.693 197.581C152.693 199.941 154.606 201.853 156.966 201.853Z" fill="#292A2E"/>
<path d="M170.332 201.853C172.692 201.853 174.605 199.941 174.605 197.581C174.605 195.222 172.692 193.309 170.332 193.309C167.973 193.309 166.06 195.222 166.06 197.581C166.06 199.941 167.973 201.853 170.332 201.853Z" fill="#292A2E"/>
<path d="M183.699 201.853C186.058 201.853 187.971 199.941 187.971 197.581C187.971 195.222 186.058 193.309 183.699 193.309C181.339 193.309 179.426 195.222 179.426 197.581C179.426 199.941 181.339 201.853 183.699 201.853Z" fill="#292A2E"/>
</g>
<g opacity="0.3">
<path d="M107.741 147.188V148.633H102.254V147.188H107.741Z" fill="black"/>
<path d="M114.561 147.188V148.633H109.073V147.188H114.561Z" fill="black"/>
<path d="M121.379 147.188V148.633H115.892V147.188H121.379Z" fill="black"/>
<path d="M128.198 147.188V148.633H122.711V147.188H128.198Z" fill="black"/>
<path d="M135.018 147.188V148.633H129.53V147.188H135.018Z" fill="black"/>
<path d="M147.325 155.341C146.104 155.968 144.744 156.274 143.373 156.231C139.729 156.231 136.641 153.565 136.641 149.3C136.641 144.725 139.818 140.771 144.75 140.771C148.616 140.771 151.215 143.48 151.215 147.19C151.215 150.522 149.348 152.477 147.26 152.477C146.372 152.477 145.55 151.875 145.616 150.522H145.527C145.24 151.108 144.794 151.602 144.241 151.947C143.687 152.292 143.048 152.476 142.396 152.477C141.107 152.477 139.996 151.433 139.996 149.678C139.994 148.986 140.128 148.301 140.392 147.661C140.656 147.021 141.044 146.439 141.533 145.95C142.023 145.461 142.604 145.073 143.244 144.809C143.884 144.546 144.57 144.411 145.262 144.413C146.079 144.402 146.888 144.561 147.64 144.88L146.884 148.901C146.551 150.586 146.818 151.369 147.55 151.389C148.684 151.41 149.95 149.9 149.95 147.324C149.95 144.103 148.017 141.793 144.573 141.793C140.952 141.793 137.908 144.658 137.908 149.167C137.908 152.877 140.33 155.165 143.618 155.165C144.784 155.192 145.938 154.925 146.973 154.388L147.325 155.341ZM146.103 145.745C145.742 145.639 145.368 145.586 144.992 145.589C143.037 145.589 141.46 147.433 141.46 149.587C141.46 150.565 141.949 151.273 142.926 151.273C144.214 151.273 145.392 149.63 145.636 148.252L146.103 145.745Z" fill="black"/>
<path d="M158.207 147.188V148.633H152.72V147.188H158.207Z" fill="black"/>
<path d="M165.027 147.188V148.633H159.539V147.188H165.027Z" fill="black"/>
<path d="M171.846 147.188V148.633H166.358V147.188H171.846Z" fill="black"/>
</g>
</g>
<defs>
<clipPath id="clip0_252_130">
<rect width="536" height="519" fill="white"/>
</clipPath>
</defs>
</svg>
