<svg width="19" height="19" viewBox="0 0 19 19" fill="none" xmlns="http://www.w3.org/2000/svg">
<path id="Vector" d="M9.5 10.6875C10.9173 10.6875 12.2765 10.1245 13.2786 9.12235C14.2807 8.1202 14.8438 6.761 14.8438 5.34375C14.8438 3.9265 14.2807 2.5673 13.2786 1.56515C12.2765 0.563001 10.9173 0 9.5 0C8.08275 0 6.72355 0.563001 5.7214 1.56515C4.71925 2.5673 4.15625 3.9265 4.15625 5.34375C4.15625 6.761 4.71925 8.1202 5.7214 9.12235C6.72355 10.1245 8.08275 10.6875 9.5 10.6875ZM5.98574 11.875C2.6793 11.875 0 14.5543 0 17.8607C0 18.4916 0.512109 19 1.13926 19H17.8607C18.4916 19 19 18.4879 19 17.8607C19 14.5543 16.3207 11.875 13.0143 11.875H5.98574Z" fill="#5C5C5C"/>
</svg>
